<svg width="35" height="35" viewBox="0 0 35 35" fill="none" xmlns="http://www.w3.org/2000/svg">
<g id="healthicons:ui-user-profile-negative">
<g clip-path="url(#clip0_4966_1560)">
<g id="Group">
<g id="Clip path group">
<mask id="mask0_4966_1560" style="mask-type:luminance" maskUnits="userSpaceOnUse" x="0" y="0" width="35" height="35">
<g id="healthiconsUiUserProfileNegative0">
<path id="Vector" d="M0.0390625 0.683105H34.1296V34.7736H0.0390625V0.683105Z" fill="white"/>
</g>
</mask>
<g mask="url(#mask0_4966_1560)">
<g id="Group_2">
<path id="Vector_2" fill-rule="evenodd" clip-rule="evenodd" d="M0.0390625 0.683105H34.1296V34.7736H0.0390625V0.683105ZM7.85147 25.9882C7.85147 26.2297 7.89195 26.4676 7.96937 26.692C5.61426 24.3035 4.29593 21.0827 4.30037 17.7284C4.30037 10.6681 10.024 4.94442 17.0843 4.94442C24.1446 4.94442 29.8682 10.6681 29.8682 17.7284C29.8728 21.0879 28.5503 24.3133 26.1886 26.7027C26.2997 26.3993 26.3401 26.0745 26.3067 25.7531C26.2733 25.4317 26.167 25.1222 25.996 24.8481C25.8249 24.574 25.5935 24.3425 25.3194 24.1714C25.0454 24.0002 24.7359 23.8939 24.4145 23.8604C18.9046 23.2901 15.2981 23.2354 9.76125 23.8476C9.23517 23.9069 8.74943 24.1581 8.39705 24.5532C8.04467 24.9483 7.85041 25.4588 7.85147 25.9882ZM2.87994 17.7284C2.87994 25.3788 8.92887 31.6174 16.5048 31.9214C16.6651 31.9302 16.8257 31.9338 16.9863 31.932L17.0843 31.9327C24.9294 31.9327 31.2887 25.5734 31.2887 17.7284C31.2887 9.88328 24.9294 3.52398 17.0843 3.52398C9.23924 3.52398 2.87994 9.88328 2.87994 17.7284ZM17.0843 20.5692C18.5912 20.5692 20.0364 19.9706 21.1019 18.9051C22.1674 17.8396 22.7661 16.3944 22.7661 14.8875C22.7661 13.3806 22.1674 11.9354 21.1019 10.8699C20.0364 9.80434 18.5912 9.20573 17.0843 9.20573C15.5774 9.20573 14.1322 9.80434 13.0667 10.8699C12.0012 11.9354 11.4026 13.3806 11.4026 14.8875C11.4026 16.3944 12.0012 17.8396 13.0667 18.9051C14.1322 19.9706 15.5774 20.5692 17.0843 20.5692Z" fill="#2A289C"/>
</g>
</g>
</g>
</g>
</g>
</g>
<defs>
<clipPath id="clip0_4966_1560">
<rect x="0.015625" y="0.682129" width="34.0905" height="34.0905" rx="4.26131" fill="white"/>
</clipPath>
</defs>
</svg>
