<svg width="100" height="120" viewBox="0 0 100 120" fill="none" xmlns="http://www.w3.org/2000/svg">
<g id="Group 1261155396">
<rect id="Rectangle 187777" width="99.2593" height="120" rx="10.2985" fill="white"/>
<g id="Group 1261155393">
<path id="Vector" d="M16.2891 78.1484H69.6224V81.4818H16.2891V78.1484ZM16.2891 28.1484V48.1484C16.3057 50.5884 17.6257 52.7151 19.5924 53.8651L19.6224 74.8151H49.6224V58.1484H59.6224V74.8151H66.2891V53.8818C68.2857 52.7151 69.6057 50.5884 69.6224 48.1518V28.1484H16.2891ZM29.6224 34.8151H36.2891V48.1484C36.2891 49.0325 35.9379 49.8803 35.3128 50.5055C34.6876 51.1306 33.8398 51.4818 32.9557 51.4818C32.0717 51.4818 31.2238 51.1306 30.5987 50.5055C29.9736 49.8803 29.6224 49.0325 29.6224 48.1484V34.8151ZM22.9557 51.4818C22.0717 51.4818 21.2238 51.1306 20.5987 50.5055C19.9736 49.8803 19.6224 49.0325 19.6224 48.1484V34.8151H26.2891V48.1484C26.2891 49.0325 25.9379 49.8803 25.3128 50.5055C24.6876 51.1306 23.8398 51.4818 22.9557 51.4818ZM42.9557 68.1484H26.2891V58.1484H42.9557V68.1484ZM46.2891 48.1484C46.2891 49.0325 45.9379 49.8803 45.3128 50.5055C44.6876 51.1306 43.8398 51.4818 42.9557 51.4818C42.0717 51.4818 41.2238 51.1306 40.5987 50.5055C39.9736 49.8803 39.6224 49.0325 39.6224 48.1484V34.8151H46.2891V48.1484ZM56.2891 48.1484C56.2891 49.0325 55.9379 49.8803 55.3128 50.5055C54.6876 51.1306 53.8398 51.4818 52.9557 51.4818C52.0717 51.4818 51.2238 51.1306 50.5987 50.5055C49.9736 49.8803 49.6224 49.0325 49.6224 48.1484V34.8151H56.2891V48.1484ZM66.2891 48.1484C66.2891 49.0325 65.9379 49.8803 65.3128 50.5055C64.6876 51.1306 63.8398 51.4818 62.9557 51.4818C62.0717 51.4818 61.2238 51.1306 60.5987 50.5055C59.9736 49.8803 59.6224 49.0325 59.6224 48.1484V34.8151H66.2891V48.1484Z" fill="url(#paint0_linear_5380_1968)"/>
<circle id="Ellipse 6400" cx="60.735" cy="57.7779" r="23.7037" fill="#E5EBFD" fill-opacity="0.8"/>
<path id="Vector_2" d="M62.9533 47.3375C65.5308 47.5253 67.7852 45.7063 67.9895 43.284C68.1959 40.8495 66.2726 38.7194 63.695 38.5317C61.1141 38.3461 58.8597 40.1539 58.6599 42.5884C58.4591 45.0219 60.3836 47.1475 62.9533 47.3375ZM82.2609 82.9631L80.7033 69.6293H78.1763C78.1998 68.5182 78.1965 68.3948 78.119 67.7204C78.0439 67.0303 77.8228 66.5259 77.4626 66.367C77.7577 66.0559 77.9541 65.6603 77.9922 65.2147C78.0189 64.8768 77.9563 64.5378 77.8108 64.231C77.6652 63.9242 77.4416 63.6601 77.1619 63.4647L70.7297 59.2779L65.9943 50.4487C65.2099 49.2931 63.8813 48.3609 62.2777 48.2275C61.0456 48.1431 59.9123 48.5464 58.9955 49.1464L49.5986 56.3489C49.2843 56.5922 49.0573 56.9292 48.9512 57.31L46.7619 66.0336L46.5958 66.2925V66.2959H46.5778C46.2109 66.2959 45.8765 66.6426 45.7486 67.1015C45.6251 67.5515 45.4736 68.1459 45.4736 68.6271V69.6293H43.0341L41.4766 82.9631H47.7707L45.0113 87.3354C44.8318 87.6743 44.6208 88.1532 44.5838 88.6155C44.448 90.2711 45.7497 91.71 47.4946 91.8422C48.7413 91.9245 49.8141 91.3289 50.4661 90.3778L55.123 82.9631H55.7323L55.6369 82.1442L56.9285 80.0863C57.0688 79.8107 57.5142 79.1363 57.5636 78.8163L59.1413 72.0272L65.8753 78.9974L67.9895 89.4766C68.3272 90.7155 69.4067 91.7378 70.8431 91.8422C72.5902 91.9734 74.1197 90.7522 74.2589 89.0999L74.2398 88.491L73.1356 82.9631H82.2609ZM46.5475 68.5071C46.6104 67.9815 46.809 67.6826 47.1591 67.6826L47.2904 67.6804C47.6439 68.1037 48.169 68.3937 48.775 68.4426C49.1004 68.4649 49.4267 68.4131 49.7287 68.2912C50.0308 68.1692 50.3007 67.9804 50.5177 67.7393C50.6249 67.8366 50.7016 67.9623 50.7387 68.1015C50.8319 68.4204 50.8857 68.786 50.8857 69.0871C50.8857 69.2671 50.8768 69.6293 50.8644 69.6293H46.515C46.5004 69.6293 46.5049 68.9148 46.5475 68.5071ZM52.9785 69.6293H51.6488C51.6768 68.5182 51.669 68.3948 51.5961 67.7204C51.5332 67.1426 51.3683 66.6959 51.1068 66.467L52.7665 59.309L56.0397 56.8011L52.9785 69.6293ZM77.3941 69.6293H73.0413C73.0234 69.6293 73.029 68.9148 73.0739 68.5071C73.1322 67.9815 73.3342 67.6826 73.6855 67.6826C74.1893 67.6826 74.646 67.667 75.0511 67.6581C75.4584 67.6437 76.0139 67.6237 76.713 67.6237C76.9812 67.6237 77.163 67.7815 77.264 68.1026C77.3605 68.4215 77.4121 68.7871 77.4121 69.0882L77.3941 69.6293ZM63.3157 67.0926L65.4254 58.2745L67.1995 61.5891C67.3397 61.8168 67.5058 62.0046 67.7246 62.1813L74.0614 66.2959H73.1042C72.7372 66.2959 72.6026 66.6426 72.4758 67.1015C72.3557 67.5515 72.4051 68.1459 72.4051 68.6271V69.6293H69.5638L69.1049 73.5517L63.3157 67.0926Z" fill="url(#paint1_linear_5380_1968)"/>
</g>
</g>
<defs>
<linearGradient id="paint0_linear_5380_1968" x1="24.4372" y1="28.1484" x2="59.252" y2="76.2966" gradientUnits="userSpaceOnUse">
<stop stop-color="#FF2231"/>
<stop offset="1" stop-color="#FF2231" stop-opacity="0"/>
</linearGradient>
<linearGradient id="paint1_linear_5380_1968" x1="56.2914" y1="65.1852" x2="89.6247" y2="54.0741" gradientUnits="userSpaceOnUse">
<stop stop-color="#001378"/>
<stop offset="1" stop-color="#001378" stop-opacity="0"/>
</linearGradient>
</defs>
</svg>
