<svg width="44" height="45" viewBox="0 0 44 45" fill="none" xmlns="http://www.w3.org/2000/svg">
<g id="material-symbols:other-admission">
<path id="Vector" d="M28.0114 34.2155C28.3724 34.2155 28.6883 34.0854 28.9591 33.825C29.2299 33.5647 29.3653 33.261 29.3653 32.9138C29.3653 32.5667 29.2299 32.263 28.9591 32.0027C28.6883 31.7423 28.3724 31.6121 28.0114 31.6121C27.6504 31.6121 27.3345 31.7423 27.0637 32.0027C26.7929 32.263 26.6575 32.5667 26.6575 32.9138C26.6575 33.261 26.7929 33.5647 27.0637 33.825C27.3345 34.0854 27.6504 34.2155 28.0114 34.2155ZM32.9755 34.2155C33.3366 34.2155 33.6525 34.0854 33.9232 33.825C34.194 33.5647 34.3294 33.261 34.3294 32.9138C34.3294 32.5667 34.194 32.263 33.9232 32.0027C33.6525 31.7423 33.3366 31.6121 32.9755 31.6121C32.6145 31.6121 32.2986 31.7423 32.0278 32.0027C31.7571 32.263 31.6217 32.5667 31.6217 32.9138C31.6217 33.261 31.7571 33.5647 32.0278 33.825C32.2986 34.0854 32.6145 34.2155 32.9755 34.2155ZM37.9397 34.2155C38.3007 34.2155 38.6166 34.0854 38.8874 33.825C39.1581 33.5647 39.2935 33.261 39.2935 32.9138C39.2935 32.5667 39.1581 32.263 38.8874 32.0027C38.6166 31.7423 38.3007 31.6121 37.9397 31.6121C37.5786 31.6121 37.2627 31.7423 36.992 32.0027C36.7212 32.263 36.5858 32.5667 36.5858 32.9138C36.5858 33.261 36.7212 33.5647 36.992 33.825C37.2627 34.0854 37.5786 34.2155 37.9397 34.2155ZM32.9755 41.5918C30.4784 41.5918 28.3496 40.7454 26.589 39.0527C24.8283 37.3599 23.9486 35.3136 23.9498 32.9138C23.9498 30.5129 24.8301 28.4661 26.5908 26.7733C28.3514 25.0805 30.4796 24.2347 32.9755 24.2359C35.4726 24.2359 37.6015 25.0822 39.3621 26.775C41.1227 28.4678 42.0024 30.5141 42.0012 32.9138C42.0012 35.3148 41.1209 37.3616 39.3603 39.0544C37.5997 40.7472 35.4714 41.593 32.9755 41.5918ZM13.119 17.2935H31.1704V13.8223H13.119V17.2935ZM21.558 38.1206H9.50872C8.51589 38.1206 7.66567 37.7805 6.95806 37.1001C6.25044 36.4197 5.89724 35.6029 5.89844 34.6494V10.3511C5.89844 9.3965 6.25225 8.57903 6.95986 7.89868C7.66748 7.21833 8.5171 6.87873 9.50872 6.87989H34.7807C35.7735 6.87989 36.6237 7.22006 37.3313 7.90042C38.039 8.58077 38.3922 9.39766 38.391 10.3511V21.9796C37.5185 21.5746 36.6382 21.2709 35.75 21.0684C34.8619 20.8659 33.9371 20.7647 32.9755 20.7647C32.6446 20.7647 32.3359 20.7716 32.0495 20.7855C31.7631 20.7994 31.47 20.8358 31.1704 20.8948V20.7647H13.119V24.2359H24.1755C23.6339 24.7276 23.1447 25.2628 22.7079 25.8413C22.2711 26.4198 21.8878 27.0417 21.558 27.7071H13.119V31.1782H20.4749C20.4148 31.4675 20.3769 31.7498 20.3612 32.0252C20.3456 32.3006 20.3384 32.5968 20.3396 32.9138C20.3396 33.8684 20.4298 34.7582 20.6103 35.5832C20.7908 36.4082 21.1067 37.254 21.558 38.1206Z" fill="#2A289C"/>
</g>
</svg>
