<svg width="100" height="120" viewBox="0 0 100 120" fill="none" xmlns="http://www.w3.org/2000/svg">
<rect width="99.2593" height="120" rx="6" fill="white"/>
<circle cx="50.366" cy="60.7401" r="32.5926" fill="#E2E7FE"/>
<path d="M70.4105 55.0201C70.0522 53.9965 69.0798 53.3311 67.9283 53.3311H49.5297C48.3526 53.3311 47.4058 53.9965 47.0219 55.0201L43.3627 65.5379V79.6383C43.3627 80.6108 44.1815 81.4809 45.1539 81.4809H46.7404C47.7128 81.4809 48.4805 80.5084 48.4805 79.536V76.3627H68.9519V79.536C68.9519 80.5084 69.7452 81.4809 70.7175 81.4809H72.2785C73.2509 81.4809 74.0697 80.6108 74.0697 79.6383V65.5379L70.4105 55.0201ZM49.5297 55.8902H67.9283L70.564 63.5674H46.894L49.5297 55.8902ZM48.4805 71.2446C47.0731 71.2446 45.9216 70.093 45.9216 68.6855C45.9216 67.278 47.0731 66.1265 48.4805 66.1265C49.8879 66.1265 51.0394 67.278 51.0394 68.6855C51.0394 70.093 49.8879 71.2446 48.4805 71.2446ZM68.9519 71.2446C67.5445 71.2446 66.393 70.093 66.393 68.6855C66.393 67.278 67.5445 66.1265 68.9519 66.1265C70.3593 66.1265 71.5108 67.278 71.5108 68.6855C71.5108 70.093 70.3593 71.2446 68.9519 71.2446ZM32.2569 59.8056L33.127 66.1265L30.4401 68.8391L25.9364 60.7012L17.7734 56.1717L20.4859 53.4079L26.8832 54.3547L36.7862 44.4512L17.7734 34.4452L21.4071 30.8369L44.9236 36.2621L54.8778 26.3074C56.3108 24.8103 58.8697 24.8103 60.3027 26.3074C61.8125 27.8172 61.8125 30.2995 60.3027 31.7326L50.3485 41.6874L52.4468 50.772H49.5297C47.3034 50.772 45.3842 52.0516 44.6421 54.1244L44.5654 54.278L42.2367 49.8252L32.2569 59.8056Z" fill="url(#paint0_linear_5380_2040)"/>
<path d="M34.001 60.432L34.8866 66.8673L32.1516 69.629L27.5671 61.3439L19.2578 56.7324L22.0189 53.9186L28.5309 54.8826L38.6115 44.7998L19.2578 34.6128L22.9566 30.9392L46.8948 36.4626L57.0275 26.3277C58.4861 24.8035 61.0909 24.8035 62.5496 26.3277C64.0865 27.8648 64.0865 30.3921 62.5496 31.8511L52.417 41.986L54.5529 51.2351H51.5834C49.3172 51.2351 47.3636 52.5378 46.6082 54.6481L46.5301 54.8044L44.1597 50.2711L34.001 60.432Z" fill="url(#paint1_linear_5380_2040)"/>
<rect x="28.1484" y="81.4805" width="45.9259" height="1.48148" rx="0.740741" fill="#939393"/>
<defs>
<linearGradient id="paint0_linear_5380_2040" x1="45.9216" y1="25.1846" x2="68.9543" y2="107.074" gradientUnits="userSpaceOnUse">
<stop stop-color="#001378"/>
<stop offset="1" stop-color="#2941C1" stop-opacity="0.53"/>
</linearGradient>
<linearGradient id="paint1_linear_5380_2040" x1="41.48" y1="25.1846" x2="41.48" y2="69.629" gradientUnits="userSpaceOnUse">
<stop stop-color="#FF2231"/>
<stop offset="1" stop-color="#FF2231" stop-opacity="0.88"/>
</linearGradient>
</defs>
</svg>
