<svg width="35" height="35" viewBox="0 0 35 35" fill="none" xmlns="http://www.w3.org/2000/svg">
<g id="material-symbols:boy">
<g id="Group">
<path id="Vector" d="M16.4011 13.0869H13.5141C13.1594 13.0869 12.8672 13.3582 12.8672 13.6852V18.7425C12.8672 19.0764 13.1594 19.3408 13.5141 19.3408H16.4011C16.7558 19.3408 17.048 19.0695 17.048 18.7425V13.6852C17.0411 13.3582 16.7558 13.0869 16.4011 13.0869ZM18.3837 13.0869H21.2706C21.6254 13.0869 21.9106 13.3582 21.9175 13.6852V18.7425C21.9175 19.0695 21.6254 19.3408 21.2706 19.3408H18.3837C18.0289 19.3408 17.7367 19.0764 17.7367 18.7425V13.6852C17.7367 13.3582 18.0289 13.0869 18.3837 13.0869ZM26.1401 13.0869H23.2532C22.8984 13.0869 22.6062 13.3582 22.6062 13.6852V18.7425C22.6062 19.0764 22.8984 19.3408 23.2532 19.3408H26.1401C26.4949 19.3408 26.787 19.0695 26.787 18.7425V13.6852C26.7801 13.3582 26.4949 13.0869 26.1401 13.0869Z" fill="black"/>
<path id="Vector_2" d="M8 13.0452C8.00037 12.5029 8.21596 11.9829 8.59943 11.5994C8.9829 11.216 9.50289 11.0004 10.0452 11H26.8242C27.0929 10.9995 27.359 11.0521 27.6074 11.1548C27.8557 11.2574 28.0814 11.408 28.2714 11.598C28.4614 11.788 28.612 12.0137 28.7146 12.262C28.8172 12.5103 28.8698 12.7765 28.8694 13.0452V22.8677C28.869 23.41 28.6534 23.93 28.2699 24.3135C27.8865 24.6969 27.3665 24.9125 26.8242 24.9129H26.0694C25.9856 25.4925 25.6959 26.0224 25.2532 26.4057C24.8105 26.789 24.2445 27 23.659 27C23.0734 27 22.5074 26.789 22.0648 26.4057C21.6221 26.0224 21.3323 25.4925 21.2486 24.9129H15.6486C15.5649 25.4925 15.2751 26.0224 14.8324 26.4057C14.3897 26.789 13.8238 27 13.2382 27C12.6526 27 12.0867 26.789 11.644 26.4057C11.2013 26.0224 10.9116 25.4925 10.8278 24.9129H10.0452C9.50289 24.9125 8.9829 24.6969 8.59943 24.3135C8.21596 23.93 8.00037 23.41 8 22.8677V13.0452ZM10.0452 12.3913C9.87188 12.3917 9.70577 12.4607 9.58322 12.5832C9.46067 12.7058 9.39166 12.8719 9.39129 13.0452V13.0869H10.8313C11.1861 13.0869 11.4782 13.3582 11.4782 13.6852V15.1794C11.5082 15.1759 11.5384 15.174 11.5687 15.1739H11.84C12.0208 15.1739 12.1739 15.32 12.1739 15.5078V17.6225C12.1739 17.8034 12.0278 17.9565 11.84 17.9565H11.5687C11.5384 17.9566 11.5083 17.9549 11.4782 17.9516V18.7495C11.4782 19.0764 11.1861 19.3477 10.8313 19.3477H9.39129V20.042H27.4781V13.0452C27.4785 12.9592 27.4619 12.874 27.4292 12.7944C27.3965 12.7149 27.3484 12.6426 27.2876 12.5818C27.2268 12.521 27.1545 12.4728 27.0749 12.4401C26.9954 12.4074 26.9102 12.3908 26.8242 12.3913H10.0452ZM9.39129 22.8914C9.39767 23.0589 9.46801 23.2176 9.58783 23.3348C9.70765 23.452 9.86785 23.5189 10.0355 23.5216C10.2349 23.5194 10.4253 23.4385 10.5652 23.2964C10.7052 23.1544 10.7833 22.9628 10.7826 22.7634V21.4973C10.7826 21.0799 10.4417 20.739 10.0243 20.739H9.39129V22.8914ZM27.4781 20.739H27.1302C26.5389 20.739 26.059 21.2329 26.0868 21.8312C26.1146 22.3947 26.6016 22.826 27.165 22.826H27.4781V20.739ZM13.2173 25.6086C13.4941 25.6086 13.7595 25.4986 13.9552 25.3029C14.1509 25.1072 14.2608 24.8418 14.2608 24.5651C14.2608 24.2883 14.1509 24.0229 13.9552 23.8272C13.7595 23.6316 13.4941 23.5216 13.2173 23.5216C12.9406 23.5216 12.6752 23.6316 12.4795 23.8272C12.2838 24.0229 12.1739 24.2883 12.1739 24.5651C12.1739 24.8418 12.2838 25.1072 12.4795 25.3029C12.6752 25.4986 12.9406 25.6086 13.2173 25.6086ZM23.652 25.6086C23.9288 25.6086 24.1942 25.4986 24.3899 25.3029C24.5856 25.1072 24.6955 24.8418 24.6955 24.5651C24.6955 24.2883 24.5856 24.0229 24.3899 23.8272C24.1942 23.6316 23.9288 23.5216 23.652 23.5216C23.3753 23.5216 23.1099 23.6316 22.9142 23.8272C22.7185 24.0229 22.6086 24.2883 22.6086 24.5651C22.6086 24.8418 22.7185 25.1072 22.9142 25.3029C23.1099 25.4986 23.3753 25.6086 23.652 25.6086Z" fill="black"/>
</g>
</g>
</svg>
