<svg width="27" height="27" viewBox="0 0 27 27" fill="none" xmlns="http://www.w3.org/2000/svg">
<g id="map:atm">
<path id="Vector" d="M21.7364 11.4913L20.4455 6.10167C20.2192 5.1614 19.2663 4.57077 18.3208 4.80282C17.4892 5.006 17.0849 5.58192 16.9211 5.98722C16.7274 6.4655 15.8627 8.6327 15.6606 9.08052C15.5897 9.23592 15.4401 9.31782 15.4097 9.33147C15.238 9.4076 13.5197 10.1326 13.5197 10.1326V10.1358C13.3487 10.2146 13.2038 10.3406 13.1021 10.499C13.0003 10.6574 12.9459 10.8416 12.9453 11.0298C12.9453 11.5774 13.3937 12.0216 13.9465 12.0216C14.0657 12.0216 14.1791 11.9969 14.2856 11.9591V11.9628L16.5668 11.0146C16.8797 10.8687 17.0324 10.6839 17.1878 10.4145C17.2529 10.3011 17.4509 9.82655 17.612 9.437L18.9886 15.1936L18.987 24.1134C18.9844 24.9996 19.5965 25.722 20.4911 25.7251C21.3868 25.7283 22.0341 25.0127 22.0399 24.1249L22.0488 13.5971C22.0478 13.102 21.8509 11.9255 21.7364 11.4913Z" fill="black"/>
<path id="Vector_2" d="M16.7426 4.5359C17.8604 4.5359 18.7665 3.63801 18.7665 2.5304C18.7665 1.4228 17.8604 0.524902 16.7426 0.524902C15.6249 0.524902 14.7188 1.4228 14.7188 2.5304C14.7188 3.63801 15.6249 4.5359 16.7426 4.5359Z" fill="black"/>
<path id="Vector_3" d="M8.9969 19.4786V21.7256C9.27357 21.6802 9.52521 21.5383 9.70722 21.325C9.88887 21.1114 9.9797 20.8615 9.9797 20.5738C9.9797 20.3165 9.90357 20.0944 9.75133 19.9075C9.59698 19.7227 9.3455 19.5799 8.9969 19.4786ZM7.6088 15.9889C7.4723 16.1727 7.40352 16.3764 7.40352 16.599C7.40352 16.8037 7.466 16.9917 7.58937 17.166C7.71432 17.3413 7.9028 17.4831 8.15322 17.5902V15.5968C7.9347 15.6663 7.74401 15.8037 7.6088 15.9889ZM12.948 13.3198H12.9501L9.81328 7.02667L9.81275 7.03244C9.69554 6.79042 9.51241 6.5864 9.2844 6.44384C9.05639 6.30128 8.79278 6.22597 8.52387 6.22657H5.6327C4.84362 6.22604 4.20312 6.86024 4.20312 7.64249V25.7251H13.1103V14.0296C13.1095 13.7839 13.0541 13.5415 12.948 13.3198ZM10.7682 22.1236C10.343 22.5997 9.7529 22.8916 8.99848 22.9987V24.0766H8.1548V23.0276C7.48385 22.9473 6.94047 22.699 6.52047 22.2847C6.10257 21.8695 5.83535 21.2841 5.71932 20.5276L7.23657 20.3653C7.28965 20.6543 7.40917 20.9269 7.5857 21.1618C7.75527 21.3844 7.94532 21.5455 8.15427 21.6453V19.2313C7.39512 19.0161 6.83705 18.6901 6.48372 18.2559C6.1283 17.8201 5.95085 17.2915 5.95085 16.6688C5.95085 16.0388 6.15087 15.5096 6.55355 15.0807C6.95465 14.6528 7.48805 14.4055 8.1548 14.341V13.7703H8.99848V14.341C9.61378 14.4134 10.1046 14.6218 10.469 14.9652C10.8323 15.308 11.0649 15.7695 11.1662 16.3454L9.69567 16.5355C9.6059 16.0829 9.37385 15.7747 8.99848 15.6136V17.8658C9.92825 18.1162 10.5619 18.4396 10.8995 18.8365C11.236 19.2345 11.4051 19.7443 11.4051 20.3664C11.4051 21.0615 11.193 21.6469 10.7682 22.1236Z" fill="black"/>
</g>
</svg>
