<svg width="35" height="35" viewBox="0 0 35 35" fill="none" xmlns="http://www.w3.org/2000/svg">
<g id="ic:outline-girl">
<path id="Vector" d="M24.7 12.1333H16.1667V19.6H7.63333V10H5.5V26H7.63333V22.8H26.8333V26H28.9667V16.4C28.9667 15.2684 28.5171 14.1832 27.717 13.383C26.9168 12.5829 25.8316 12.1333 24.7 12.1333ZM11.9 18.5333C12.7487 18.5333 13.5626 18.1962 14.1627 17.5961C14.7629 16.996 15.1 16.182 15.1 15.3333C15.1 14.4846 14.7629 13.6707 14.1627 13.0706C13.5626 12.4705 12.7487 12.1333 11.9 12.1333C11.0513 12.1333 10.2374 12.4705 9.63726 13.0706C9.03714 13.6707 8.7 14.4846 8.7 15.3333C8.7 16.182 9.03714 16.996 9.63726 17.5961C10.2374 18.1962 11.0513 18.5333 11.9 18.5333Z" fill="black"/>
</g>
</svg>
