<svg width="49" height="50" viewBox="0 0 49 50" fill="none" xmlns="http://www.w3.org/2000/svg">
<path id="Vector" d="M44.9673 15.7767L45.8076 14.39C45.8076 14.39 46.5475 13.1634 46.5475 11.5162C46.5475 7.52605 42.7402 7.6314 42.7402 7.6314L34.4455 5.37336L29.9205 0.898926L23.9663 2.51998L22.0136 1.98834L20.5298 3.45586L11.9574 5.78985C11.9574 5.78985 8.65814 5.6992 8.65814 9.1569C8.65814 10.5844 9.30002 11.6477 9.30002 11.6477L10.4033 13.4688L9.43395 14.4259L4.64838 15.7293C4.64838 15.7293 0.841151 15.624 0.841151 19.6141C0.848764 20.5438 1.06623 21.4597 1.47732 22.2936L0 23.7545L0.775002 24.0616C0.792152 24.1032 0.798685 24.1498 0.832168 24.1833C2.33072 25.6851 2.20741 27.7022 1.99345 28.7916L1.08778 29.6989L7.94846 32.9974L17.371 48.5505C18.881 50.9237 22.0863 49.439 22.0863 49.439L46.2992 37.7969L45.3936 36.8896C45.1796 35.8001 45.0563 33.783 46.5548 32.2804C46.5883 32.2469 46.5948 32.2003 46.612 32.1595L47.387 31.8516L42.8848 27.4009L48.0542 24.9158L47.2694 24.1294C47.084 23.1853 46.977 21.4369 48.2763 20.1351C48.3049 20.1057 48.3098 20.0665 48.3253 20.0298L48.9991 19.7627L44.9673 15.7767ZM40.3246 8.56156L39.3038 10.1769L36.6627 7.56525L40.3246 8.56156ZM30.3598 5.09978L34.1515 9.15282L20.4408 14.1074L17.2028 9.08014L30.3598 5.09978ZM11.2241 14.8245L20.5804 30.2681L2.75538 23.1976L11.2241 14.8245ZM7.32454 16.5125L6.22615 17.5986L5.78679 16.9249L7.32454 16.5125ZM3.85623 17.3569L4.87867 18.9306L2.6631 21.1208C2.48877 20.6374 2.39738 20.128 2.39279 19.6141C2.39279 18.1229 3.13267 17.5553 3.85623 17.3569ZM2.57572 29.5029L2.58797 29.4556L23.1243 38.4445L2.74885 28.7312C2.76763 28.621 2.78233 28.4993 2.79785 28.3768L18.7495 35.057L2.85338 27.6124C2.85743 27.2721 2.83395 26.9321 2.78315 26.5957L17.5474 32.6756L2.5847 25.7251C2.48865 25.4034 2.36005 25.0922 2.20087 24.7966L22.5216 33.4735L22.9838 34.2363C23.9369 35.734 25.6657 35.4571 26.5371 35.1975C27.7416 35.792 29.9009 37.1672 29.348 39.1933C29.0564 40.2648 28.4154 40.7842 27.3888 40.7842C26.3492 40.7842 25.3113 40.2403 25.3007 40.2329L2.57572 29.5029ZM23.0296 40.2493L21.424 40.914L20.0602 38.8209L23.0296 40.2493ZM16.8116 44.6437L10.4997 34.224L16.7732 37.2399L19.7401 41.8066C18.5437 42.3178 17.2068 43.4848 16.8116 44.6437ZM44.6047 34.6936C44.5539 35.03 44.5304 35.3701 44.5344 35.7103L28.6383 43.1549L44.59 36.4747C44.6055 36.5964 44.6194 36.7189 44.639 36.8291L24.2635 46.5432L44.7998 37.5543C44.8044 37.57 44.8085 37.5858 44.8121 37.6017L22.0871 48.33C22.0765 48.3374 21.0402 48.8813 19.999 48.8813C18.9716 48.8813 18.3314 48.361 18.0398 47.2904C17.2901 44.5408 21.5531 42.9818 21.6168 42.9581L25.3529 41.364C25.7539 41.5347 28.6146 42.6576 30.0168 40.4534L30.9013 38.9949L45.1878 32.8945C45.0287 33.1903 44.8998 33.5014 44.8031 33.823L29.8404 40.7735L44.6047 34.6936ZM44.6324 31.2955L32.5256 36.313L35.8853 30.7671L41.4116 28.1106L44.6324 31.2955ZM46.5867 22.225C46.5432 22.5166 46.5228 22.8112 46.5254 23.1061L32.7502 29.5577L46.5744 23.7684C46.5883 23.8738 46.5997 23.9807 46.6169 24.0755L28.9576 32.4935L46.7557 24.7035C46.76 24.7169 46.7636 24.7305 46.7663 24.7443L27.0712 34.0435C27.0622 34.0492 26.163 34.5213 25.2615 34.5213C24.3705 34.5213 23.816 34.0697 23.5637 33.1419C22.9136 30.759 26.6081 29.4082 26.6637 29.3878L47.0914 20.666C46.9536 20.9224 46.8423 21.1922 46.759 21.4712L33.7906 27.4948L46.5867 22.225Z" fill="black"/>
</svg>
