<svg width="35" height="35" viewBox="0 0 35 35" fill="none" xmlns="http://www.w3.org/2000/svg">
<g id="material-symbols:boy">
<path id="Vector" d="M17.4922 10.9377C16.7873 10.9377 16.1855 10.6883 15.6868 10.1895C15.188 9.69079 14.9391 9.08947 14.9401 8.38558C14.9401 7.68072 15.1895 7.07892 15.6882 6.58017C16.187 6.08142 16.7883 5.83253 17.4922 5.8335C18.197 5.8335 18.7989 6.08287 19.2976 6.58162C19.7964 7.08037 20.0452 7.68169 20.0443 8.38558C20.0443 9.09044 19.7949 9.69225 19.2961 10.191C18.7974 10.6897 18.1961 10.9386 17.4922 10.9377ZM14.5755 29.1668V21.8752H13.1172V15.3127C13.1172 14.5106 13.403 13.8237 13.9747 13.252C14.5464 12.6804 15.2327 12.395 16.0339 12.396H18.9505C19.7526 12.396 20.4395 12.6818 21.0111 13.2535C21.5828 13.8252 21.8682 14.5116 21.8672 15.3127V21.8752H20.4089V29.1668H14.5755Z" fill="black"/>
</g>
</svg>
