<svg width="43" height="42" viewBox="0 0 43 42" fill="none" xmlns="http://www.w3.org/2000/svg">
<g id="mdi:company">
<path id="Vector" d="M31.8896 26.25H28.3896V29.75H31.8896M31.8896 19.25H28.3896V22.75H31.8896M35.3896 33.25H21.3896V29.75H24.8896V26.25H21.3896V22.75H24.8896V19.25H21.3896V15.75H35.3896M17.8896 12.25H14.3896V8.75H17.8896M17.8896 19.25H14.3896V15.75H17.8896M17.8896 26.25H14.3896V22.75H17.8896M17.8896 33.25H14.3896V29.75H17.8896M10.8896 12.25H7.38965V8.75H10.8896M10.8896 19.25H7.38965V15.75H10.8896M10.8896 26.25H7.38965V22.75H10.8896M10.8896 33.25H7.38965V29.75H10.8896M21.3896 12.25V5.25H3.88965V36.75H38.8896V12.25H21.3896Z" fill="#2A289C"/>
</g>
</svg>
