<svg width="35" height="32" viewBox="0 0 35 32" fill="none" xmlns="http://www.w3.org/2000/svg">
<g id="fa:university" clip-path="url(#clip0_4966_1532)">
<path id="Vector" d="M17.4865 0.146484L34.4651 6.93795V9.20177H32.2013C32.2013 9.50833 32.0805 9.77362 31.8388 9.99765C31.597 10.2217 31.3111 10.3337 30.981 10.3337H3.99198C3.66184 10.3337 3.37591 10.2217 3.1342 9.99765C2.89249 9.77362 2.77163 9.50833 2.77163 9.20177H0.507812V6.93795L17.4865 0.146484ZM5.03546 11.4656H9.5631V25.0485H11.8269V11.4656H16.3546V25.0485H18.6184V11.4656H23.146V25.0485H25.4099V11.4656H29.9375V25.0485H30.981C31.3111 25.0485 31.597 25.1605 31.8388 25.3846C32.0805 25.6086 32.2013 25.8739 32.2013 26.1804V27.3124H2.77163V26.1804C2.77163 25.8739 2.89249 25.6086 3.1342 25.3846C3.37591 25.1605 3.66184 25.0485 3.99198 25.0485H5.03546V11.4656ZM33.2448 28.4443C33.5749 28.4443 33.8609 28.5563 34.1026 28.7803C34.3443 29.0043 34.4651 29.2696 34.4651 29.5762V31.84H0.507812V29.5762C0.507812 29.2696 0.628668 29.0043 0.870378 28.7803C1.11209 28.5563 1.39801 28.4443 1.72815 28.4443H33.2448Z" fill="#2A289C"/>
</g>
<defs>
<clipPath id="clip0_4966_1532">
<rect width="33.9573" height="31.6935" fill="white" transform="translate(0.507812 0.146484)"/>
</clipPath>
</defs>
</svg>
