<svg width="42" height="38" viewBox="0 0 42 38" fill="none" xmlns="http://www.w3.org/2000/svg">
<g id="Group 1261155501">
<g id="Group 1261155500">
<g id="Clip path group">
<mask id="mask0_546_2996" style="mask-type:luminance" maskUnits="userSpaceOnUse" x="0" y="0" width="42" height="36">
<g id="c26263e8b8">
<path id="Vector" d="M0.838165 0H41.2403V35.8335H0.838165V0Z" fill="white"/>
</g>
</mask>
<g mask="url(#mask0_546_2996)">
<g id="Group">
<path id="Vector_2" d="M28.2496 27.3722C27.9224 27.6978 26.8735 28.8105 26.6984 30.5613C26.5773 31.7428 26.9111 32.6738 27.1091 33.1287C27.4429 32.7884 28.2791 31.8491 28.5523 30.3486C28.8191 28.9398 28.4231 27.8189 28.2496 27.3722ZM31.5452 33.4396C29.3885 32.7049 27.4593 34.2512 27.3137 34.3641C27.5346 34.6145 28.4918 35.629 30.1019 35.8041C31.9264 36.0004 33.1864 34.9548 33.4073 34.7732C33.1176 34.4165 32.5188 33.7734 31.5452 33.4396ZM34.4332 30.6677C33.1111 30.7806 32.1391 31.2879 31.645 31.5906C32.108 31.872 33.134 32.394 34.5314 32.4169C36.2643 32.448 37.4948 31.6904 37.9349 31.386C37.4179 31.1062 36.135 30.5155 34.4332 30.6677ZM29.791 24.9013C29.5472 25.3039 28.9941 26.356 29.0694 27.7796C29.161 29.5157 30.1183 30.6448 30.4145 30.9704C30.5961 30.6824 31.6826 28.9087 31.0297 26.8567C30.7254 25.8864 30.1477 25.2417 29.791 24.9013ZM36.5981 25.9322C35.1925 26.6964 34.6607 27.9629 34.5314 28.2951C34.79 28.3785 36.4394 28.8481 38.0413 27.886C39.3487 27.0989 39.7889 25.857 39.8952 25.5231C39.5762 25.4397 38.1182 25.1059 36.5981 25.9322ZM33.3467 28.2492C33.4678 27.9629 34.4251 25.659 33.1946 23.7657C32.8526 23.2421 32.4353 22.8789 32.0622 22.6367C31.8266 23.0147 31.4322 23.7805 31.447 24.795C31.4617 26.8633 33.134 28.1069 33.3467 28.2492ZM38.6647 21.5076C37.2591 22.3176 36.7355 23.5988 36.5981 23.9768C37.0006 24.0079 38.1248 24.0537 39.28 23.3632C40.6545 22.5385 41.1257 21.2426 41.2403 20.894C40.8067 20.8711 39.7594 20.8793 38.6647 21.5076ZM32.4729 19.5523C32.3748 19.5146 32.2684 19.477 32.162 19.4475C32.1849 19.9401 32.2831 20.6895 32.6775 21.5076C33.4073 23.0081 34.6541 23.7265 35.1238 23.9703C34.9421 22.8789 34.3498 20.3033 32.4729 19.5523ZM37.7369 19.1432C37.9808 19.0908 39.9034 18.667 40.7314 16.8785C41.1487 15.9769 41.0963 15.1359 41.0423 14.7202C40.5939 14.8413 39.8642 15.1129 39.1884 15.7495C37.8057 17.0307 37.7369 18.7652 37.7369 19.1432ZM35.055 16.9849C34.2811 16.0146 33.2927 15.666 32.8902 15.5449C32.8067 15.9016 32.5858 17.0749 33.2027 18.325C34.0143 19.9777 35.649 20.4391 35.9076 20.5079C35.9517 20.2117 36.2414 18.469 35.055 16.9849ZM37.9431 15.234C38.2246 15.1064 40.5416 13.9692 40.8296 11.734C40.8983 11.1973 40.8378 10.7113 40.7232 10.2957C40.2912 10.4462 39.6449 10.7342 39.0755 11.3249C37.6159 12.8254 37.8973 14.9248 37.9431 15.234ZM34.7212 12.4392C34.2811 12.1889 33.8409 12.0596 33.4531 11.9991C33.4384 12.3705 33.4531 13.3326 34.0765 14.2882C35.0027 15.7037 36.5523 15.9622 36.8108 15.9998C36.7732 15.6513 36.4999 13.4537 34.7212 12.4392ZM32.7838 10.5002C34.1289 11.5294 35.6719 11.2643 35.9288 11.2202C35.7783 10.9093 34.7981 8.92443 32.7838 8.5448C32.2831 8.45481 31.8266 8.47608 31.4404 8.5448C31.5533 8.90152 31.8806 9.80967 32.7838 10.5002ZM37.9431 9.06024C38.1018 7.55975 37.4179 6.46996 37.2215 6.18197C36.9482 6.51415 36.3248 7.37812 36.1874 8.65116C36.0352 10.0977 36.5981 11.1744 36.8026 11.5294C37.0612 11.2496 37.7991 10.3938 37.9431 9.06024ZM29.9956 5.462C30.079 5.67308 30.619 6.98377 32.0622 7.52211C33.1176 7.91646 34.0536 7.66611 34.3563 7.56793C34.1665 7.2423 33.3925 6.01507 31.8577 5.56836C31.0821 5.34091 30.4063 5.39327 29.9956 5.462ZM35.9828 3.81096C35.7848 2.95354 35.3299 2.37101 35.055 2.06829C34.8358 2.46101 34.4561 3.25789 34.4398 4.33295C34.4185 5.73363 35.0174 6.74159 35.2678 7.11303C35.4281 6.87086 36.3706 5.51436 35.9828 3.81096ZM28.5065 3.07462C28.2644 3.12044 27.9305 3.23498 27.5656 3.50006C27.6867 3.69642 28.2038 4.49985 29.2674 4.82547C30.4374 5.18055 31.4012 4.68148 31.5844 4.5833C30.7565 3.47716 29.5783 2.86354 28.5065 3.07462ZM32.8444 4.05968C33.3385 2.76536 33.2175 1.4465 32.4582 0.665978C32.2897 0.492529 32.0099 0.265082 31.5844 0.104724C31.4846 0.310898 31.0821 1.18141 31.3864 2.24992C31.7284 3.42316 32.6709 3.9615 32.8444 4.05968ZM28.6063 2.42337C29.6012 3.13517 30.673 2.9699 30.8775 2.93881C30.4521 1.61995 29.5325 0.665978 28.4542 0.521982C28.2104 0.492529 27.8536 0.484347 27.42 0.628343C27.4658 0.847608 27.7015 1.7803 28.6063 2.42337ZM13.837 27.2658C13.6537 27.7125 13.2676 28.8334 13.5261 30.2504C13.7994 31.7428 14.6339 32.6902 14.9693 33.0305C15.1657 32.5756 15.5011 31.6446 15.3784 30.4632C15.2115 28.7041 14.1626 27.5914 13.837 27.2658ZM10.5317 33.3414C9.5597 33.6671 8.95917 34.3183 8.67772 34.6816C8.89044 34.8632 10.1602 35.9088 11.9831 35.7124C13.5867 35.539 14.5439 34.5228 14.7713 34.2725C14.6192 34.1449 12.6981 32.6067 10.5317 33.3414ZM7.64521 30.5613C5.94345 30.4173 4.65895 31.0081 4.13533 31.2797C4.5755 31.584 5.806 32.3416 7.53885 32.3106C8.93626 32.2876 9.96223 31.7657 10.4253 31.4859C9.93932 31.1815 8.96735 30.6742 7.64521 30.5613ZM11.0487 26.7569C10.3959 28.8105 11.4824 30.5842 11.664 30.8706C11.9602 30.5532 12.9174 29.4176 13.009 27.6814C13.0843 26.2578 12.5296 25.2041 12.2874 24.8032C11.9307 25.1435 11.3596 25.7882 11.0487 26.7569ZM7.54703 28.1969C7.41777 27.8565 6.89251 26.5982 5.48038 25.834C3.96843 25.0077 2.50229 25.3415 2.17503 25.425C2.28139 25.7571 2.72156 27.0007 4.02897 27.7878C5.6391 28.7499 7.28032 28.2721 7.54703 28.1969ZM10.638 24.6968C10.6462 23.6823 10.2502 22.9165 10.0228 22.5385C9.65133 22.7872 9.22589 23.144 8.89044 23.6659C7.65994 25.5608 8.61718 27.8631 8.73827 28.1511C8.94444 28.0005 10.6233 26.7569 10.638 24.6968ZM5.48038 23.8721C5.34293 23.5007 4.81931 22.2113 3.41372 21.4013C2.31903 20.7729 1.27015 20.7648 0.838165 20.7877C0.952707 21.1362 1.42233 22.4322 2.79846 23.2569C3.95206 23.9474 5.07784 23.9097 5.48038 23.8721ZM9.39934 21.4013C9.79532 20.5913 9.8935 19.8337 9.91641 19.3412C9.81005 19.3706 9.70369 19.4017 9.60551 19.4475C7.72866 20.197 7.13632 22.7725 6.94651 23.8639C7.42431 23.6218 8.67118 22.9083 9.39934 21.4013ZM4.34805 19.0385C4.33987 18.667 4.27932 16.9243 2.90482 15.6431C2.22903 15.0148 1.49105 14.7431 1.05089 14.6139C0.996887 15.0295 0.944525 15.8706 1.36178 16.7722C2.17503 18.5606 4.10424 18.9926 4.34805 19.0385ZM8.8839 18.2121C9.49915 16.962 9.27825 15.7871 9.1948 15.432C8.79227 15.5531 7.79739 15.9016 7.02996 16.8703C5.84364 18.3561 6.12508 20.1053 6.17908 20.3933C6.43762 20.3262 8.07065 19.8632 8.8839 18.2121ZM4.14351 15.1293C4.18769 14.825 4.46914 12.719 3.01118 11.2202C2.44175 10.6278 1.79541 10.3398 1.36178 10.1893C1.24888 10.6066 1.18834 11.0909 1.25542 11.6292C1.53687 13.8628 3.85388 15 4.14351 15.1293ZM8.00193 14.1819C8.62536 13.2345 8.64009 12.2641 8.62536 11.8943C8.23756 11.9549 7.79739 12.0825 7.35722 12.3329C5.57855 13.349 5.30529 15.5449 5.26766 15.8935C5.53274 15.8558 7.07578 15.5989 8.00193 14.1819ZM9.29298 8.43844C7.27213 8.81807 6.29362 10.8029 6.14799 11.1138C6.40653 11.1596 7.94957 11.4247 9.29298 10.3938C10.1979 9.70495 10.5251 8.79516 10.638 8.43844C10.2584 8.37136 9.79532 8.34845 9.29298 8.43844ZM5.2742 11.4247C5.48692 11.068 6.04981 9.98476 5.88945 8.5448C5.75364 7.27176 5.13021 6.40942 4.86512 6.07561C4.66713 6.3636 3.98315 7.45339 4.14351 8.95388C4.28751 10.2957 5.01566 11.1514 5.2742 11.4247ZM10.0228 7.41575C11.466 6.87904 12.006 5.5749 12.0894 5.35564C11.6787 5.28691 11.0029 5.23455 10.2355 5.462C8.68591 5.90871 7.91848 7.12776 7.72048 7.46157C8.02484 7.5532 8.95917 7.8101 10.0228 7.41575ZM7.64521 4.22659C7.6223 3.15808 7.24923 2.35628 7.02996 1.96193C6.7567 2.26465 6.30017 2.85536 6.10217 3.71115C5.716 5.408 6.65688 6.77268 6.82542 7.00667C7.0676 6.62869 7.67467 5.62072 7.64521 4.22659ZM12.811 4.71911C13.8746 4.40167 14.3917 3.59006 14.5128 3.3937C14.1479 3.12044 13.8059 3.01408 13.5703 2.9699C12.5001 2.75718 11.322 3.3708 10.494 4.48512C10.6757 4.5833 11.6411 5.07583 12.811 4.71911ZM10.692 2.14356C10.9947 1.07505 10.6004 0.204538 10.494 0C10.0686 0.158722 9.79532 0.386169 9.62024 0.559618C8.86754 1.34014 8.74645 2.66555 9.23243 3.95332C9.4157 3.85514 10.3566 3.31843 10.692 2.14356ZM11.2075 2.83245C11.6345 1.51522 12.5525 0.559618 13.6308 0.415622C13.8746 0.386169 14.2314 0.377987 14.665 0.521982C14.611 0.74943 14.3835 1.67394 13.4803 2.32519C12.4772 3.03044 11.4055 2.87009 11.2075 2.83245Z" fill="#001378"/>
</g>
</g>
</g>
<g id="Clip path group_2">
<mask id="mask1_546_2996" style="mask-type:luminance" maskUnits="userSpaceOnUse" x="1" y="0" width="40" height="38">
<g id="3947634609">
<path id="Vector_3" d="M1.36987 0.377991H40.7231V38H1.36987V0.377991Z" fill="white"/>
</g>
</mask>
<g mask="url(#mask1_546_2996)">
<g id="Group_2">
<path id="Vector_4" d="M35.3447 3.1139C35.5198 3.97623 35.5034 4.88602 35.4887 5.76472V5.84817M35.4887 5.84817C35.4658 6.87905 35.3905 7.77247 35.2678 8.58244C35.6409 9.38587 35.9681 10.2188 36.2332 11.0598C36.2496 11.0909 36.2643 11.1204 36.2643 11.1596C36.2872 11.2267 36.3101 11.2954 36.3248 11.3642C36.3477 11.4394 36.3706 11.5147 36.3936 11.59C36.4459 11.7716 36.4917 11.9549 36.5457 12.1431C36.5899 11.9614 36.6357 11.7798 36.6668 11.59C36.765 11.0533 36.819 10.5002 36.8632 9.96185V9.9324C36.909 9.37933 36.9483 8.80335 36.9777 8.25682C37.0088 7.7872 37.0383 7.29467 37.0775 6.8185C37.0775 6.73505 37.1446 6.67451 37.2215 6.67451C37.305 6.67451 37.3737 6.7416 37.3737 6.82505C37.4179 7.97701 37.3197 9.17479 37.2363 10.2351L37.2215 10.4544C37.1528 11.302 37.0775 12.2641 36.7585 13.0757C36.9401 13.9463 37.0546 14.825 37.1152 15.6824C37.6699 15.09 38.2311 14.4846 38.7024 13.8023C39.2571 12.9923 39.7202 12.1594 40.0769 11.3331C40.108 11.2807 40.1538 11.2496 40.2062 11.2496C40.252 11.2496 40.2978 11.2725 40.3289 11.3102C40.3583 11.3478 40.3665 11.3854 40.3518 11.4313V11.4476C39.6449 13.2868 38.5731 14.9395 37.161 16.3631C37.1904 17.3629 37.1528 18.3479 37.0464 19.3183C37.6617 18.8028 38.2246 18.2121 38.7482 17.6509C39.0591 17.3105 39.3258 16.9162 39.5762 16.5382C39.8413 16.1438 40.1162 15.7347 40.45 15.3715C40.4811 15.3404 40.5187 15.3257 40.5481 15.3257C40.6021 15.3257 40.6545 15.3551 40.6774 15.4009C40.7003 15.4468 40.7003 15.5008 40.6709 15.5384C40.4418 15.864 40.2291 16.2044 40.0327 16.53C39.7284 17.0307 39.4093 17.5527 39.0133 18.0158C38.3604 18.7652 37.7141 19.4852 36.9548 20.0382C36.7585 21.3489 36.4312 22.6432 35.9747 23.8934C36.8255 23.6136 37.5701 23.2732 38.254 22.8494C38.7335 22.5451 39.1507 22.2505 39.5238 21.9396C39.6596 21.8251 39.7971 21.6975 39.9263 21.5682C40.0998 21.4013 40.2749 21.2278 40.4811 21.0757L40.6251 20.9693L40.6627 21.1444C40.6627 21.1444 40.6709 21.1509 40.6709 21.1591C40.6938 21.1444 40.7314 21.2197 40.6856 21.3031C40.1685 22.0836 39.2195 22.7431 38.452 23.2274C37.5553 23.7887 36.6292 24.2272 35.6949 24.5299C35.1401 25.924 34.4185 27.2576 33.5595 28.493C33.9538 28.372 34.3416 28.2051 34.7212 28.0463C35.1009 27.886 35.4969 27.7273 35.8912 27.598C36.7585 27.3264 37.5406 26.8257 38.2999 26.3413C38.5044 26.212 38.7253 26.068 38.938 25.9388L38.9462 25.9322C38.9691 25.924 38.9904 25.9175 39.0133 25.9175C39.0673 25.9175 39.1131 25.947 39.136 25.9928C39.1589 26.0386 39.1589 26.0991 39.1278 26.1449V26.1597C38.8398 26.5082 38.4209 26.7651 38.0266 27.0073C37.9055 27.0842 37.791 27.1513 37.6846 27.22C37.3279 27.454 36.8484 27.7583 36.2937 27.9629C35.7554 28.1592 35.2072 28.3785 34.5773 28.6665C34.1142 28.8792 33.6118 29.0985 33.0735 29.1738C32.4648 29.9706 31.8119 30.7119 31.1279 31.386C31.1819 31.386 31.2261 31.386 31.2801 31.386C31.4846 31.386 31.6973 31.3713 31.9035 31.3631C31.9641 31.3631 32.0246 31.3566 32.0852 31.3566L32.3355 31.3419C32.6939 31.3255 33.0571 31.3026 33.4155 31.3026C33.4678 31.3026 33.5218 31.3026 33.5742 31.3026C33.8785 31.3026 34.1976 31.3108 34.502 31.319C34.8816 31.3255 35.2678 31.3337 35.649 31.3337C36.0205 31.3337 36.3477 31.3255 36.6439 31.3108C36.7355 31.3108 36.8026 31.3713 36.8108 31.4629C36.819 31.5448 36.765 31.6135 36.6897 31.6282C36.081 31.7509 35.4739 31.7657 34.9569 31.7657C34.7671 31.7657 34.5773 31.7657 34.3874 31.7575C34.1976 31.7575 34.0078 31.7509 33.8246 31.7509C33.6576 31.7509 33.5137 31.7509 33.3844 31.7575C33.0129 31.7657 32.6399 31.7951 32.275 31.818C32.0541 31.8328 31.8266 31.8491 31.6074 31.8557L31.4781 31.8638C31.3554 31.872 31.2261 31.8786 31.105 31.8786C30.9299 31.8786 30.7859 31.8638 30.6501 31.8409C30.3687 32.0913 30.1019 32.3106 29.8287 32.5233C29.0547 33.114 28.1809 33.5983 27.155 33.9927C27.7997 34.1285 28.5 34.243 29.3345 34.333C29.7829 34.387 30.2165 34.4165 30.6648 34.4247C30.6877 34.4247 30.7172 34.4247 30.7401 34.4247C30.9005 34.4247 31.0674 34.4165 31.2343 34.4099C31.4012 34.4018 31.5763 34.3936 31.7432 34.3936C31.8806 34.3936 32.0017 34.4018 32.1162 34.4099C32.185 34.4099 32.2373 34.4623 32.2455 34.531C32.2521 34.5981 32.2062 34.6668 32.1392 34.6816C31.7284 34.8027 31.249 34.8632 30.6796 34.8632C30.1559 34.8632 29.6389 34.8108 29.1382 34.765H29.13C28.9942 34.7503 28.8633 34.7421 28.7193 34.7274C27.9371 34.6668 27.0568 34.5916 26.327 34.2725C26.0684 34.3494 25.8034 34.4328 25.5366 34.4999C24.9132 34.6587 24.2521 34.8027 23.614 34.9401C23.2049 35.0236 22.786 35.1136 22.3687 35.2117C23.7891 35.7435 24.8608 36.4324 25.7117 37.3569C25.8034 37.4551 25.8181 37.5844 25.7641 37.7055C25.7117 37.8266 25.589 37.9018 25.4761 37.9018C25.3926 37.9018 25.3157 37.8642 25.2552 37.7955C24.3061 36.758 23.0298 36.0233 21.2593 35.4932C19.8996 35.8712 18.1749 36.4848 16.8757 37.9018C16.8151 37.9706 16.7382 38 16.6548 38C16.5337 38 16.4126 37.9166 16.3586 37.7955C16.3062 37.6744 16.3291 37.5533 16.4208 37.4551C17.3322 36.4619 18.5087 35.7354 20.1123 35.1823C19.5887 35.0612 19.0569 34.9467 18.5398 34.8337C17.6284 34.6374 16.6777 34.4394 15.7973 34.1743C15.0675 34.4999 14.2167 34.5687 13.3969 34.6292C13.2594 34.6374 13.122 34.6521 12.9943 34.6587H12.9861C12.4838 34.7045 11.9684 34.7585 11.4431 34.7585C10.8737 34.7585 10.3959 34.6979 9.97697 34.5687C9.91643 34.5539 9.87062 34.4852 9.8788 34.4165C9.88698 34.3494 9.94752 34.2954 10.0081 34.2954C10.121 34.2889 10.2437 34.2807 10.3795 34.2807C10.548 34.2807 10.7215 34.2889 10.8819 34.2954C11.0406 34.3036 11.2157 34.3101 11.376 34.3101C11.3973 34.3101 11.4284 34.3101 11.4513 34.3101C11.9307 34.3036 12.4085 34.2578 12.78 34.2201C13.6161 34.1285 14.3148 34.0156 14.953 33.8798C13.7389 33.4102 12.5673 32.6902 11.466 31.728C11.322 31.7575 11.1698 31.7657 10.9882 31.7657C10.8213 31.7657 10.6528 31.7575 10.4859 31.7428L10.4106 31.7346C10.1979 31.7199 9.98516 31.7117 9.78062 31.6969C9.43863 31.674 9.08846 31.6511 8.73829 31.6364C8.61066 31.6364 8.48139 31.6282 8.32921 31.6282C8.13122 31.6282 7.93322 31.6282 7.72869 31.6364C7.53069 31.6364 7.32615 31.6446 7.12816 31.6446C6.62745 31.6446 6.02692 31.6282 5.4264 31.5071C5.35113 31.5006 5.29713 31.4319 5.30531 31.3484C5.31349 31.2584 5.38058 31.1979 5.46403 31.1979C5.76839 31.2126 6.09565 31.2208 6.46709 31.2208C6.84671 31.2208 7.2427 31.2126 7.61414 31.2044C7.9185 31.1979 8.2294 31.1897 8.54193 31.1897C9.03446 31.1897 9.53681 31.2126 10.0228 31.2355C10.121 31.242 10.2208 31.242 10.319 31.2502C10.494 31.2584 10.6691 31.2731 10.8442 31.2731C10.8819 31.2731 10.9195 31.2731 10.9571 31.2731C10.2961 30.6448 9.64317 29.9019 9.01319 29.0608C8.43557 28.9774 7.88904 28.727 7.44724 28.5225C6.89253 28.2656 6.33128 28.0529 5.80602 27.8483C5.30531 27.6667 4.85696 27.4016 4.33989 27.0678C4.23353 27.0007 4.12717 26.932 4.00608 26.8633C3.62646 26.6358 3.23865 26.3937 2.96539 26.0615C2.92775 26.0222 2.91957 25.9617 2.94248 25.9175C2.96539 25.8635 3.01775 25.8259 3.07993 25.8259C3.1012 25.8259 3.12411 25.834 3.14702 25.8406L3.1552 25.8488C3.38265 25.9846 3.61173 26.1286 3.831 26.2726C4.57552 26.7422 5.35113 27.2347 6.20201 27.508C6.59636 27.6373 6.97598 27.796 7.34906 27.9465C7.73687 28.1069 8.12467 28.2656 8.52557 28.3949C8.44212 28.2803 8.36685 28.1592 8.28339 28.0382C7.53887 26.9173 6.90071 25.6966 6.38364 24.4235C5.44931 24.1208 4.5297 23.6888 3.633 23.1292C2.7674 22.5762 1.89361 21.9625 1.39944 21.2115C1.36999 21.1591 1.36999 21.0986 1.39944 21.0462C1.43053 20.9922 1.48453 20.9628 1.54507 20.9628C1.56798 20.9628 1.59743 20.9693 1.62034 20.9775L1.62852 20.984L1.63507 20.9922C1.84124 21.1444 2.03106 21.326 2.21269 21.4995C2.35668 21.6369 2.50231 21.7809 2.66103 21.9085C3.02593 22.1965 3.42846 22.4845 3.86863 22.766C4.53788 23.1816 5.2824 23.5219 6.14147 23.8034C5.68493 22.5451 5.35113 21.2426 5.14495 19.9319C4.33989 19.3559 3.65591 18.5607 3.10938 17.9241C2.71503 17.4627 2.39595 16.9391 2.0916 16.44C1.89361 16.1062 1.68089 15.7658 1.45344 15.4468C1.42235 15.4009 1.42235 15.3486 1.44526 15.3028C1.46816 15.2569 1.52216 15.2275 1.57452 15.2275C1.61216 15.2275 1.65143 15.2422 1.67434 15.2651C2.02287 15.6366 2.30432 16.0522 2.5694 16.4547C2.81321 16.8262 3.07175 17.2123 3.3761 17.5461C3.81627 18.0305 4.39389 18.6359 5.04677 19.1972C4.94041 18.2579 4.90278 17.2647 4.94041 16.2502C3.54301 14.8331 2.4794 13.1821 1.76434 11.356C1.74961 11.3184 1.74961 11.2725 1.77252 11.2349C1.80197 11.1891 1.84779 11.1662 1.90179 11.1662C1.95415 11.1662 2.00815 11.1973 2.03106 11.2414C2.39595 12.0989 2.85903 12.9318 3.40556 13.7188C3.86863 14.393 4.43152 15 4.97805 15.5826C5.04677 14.7039 5.16786 13.8334 5.34295 12.9841C5.02387 12.1741 4.9486 11.212 4.87987 10.3627L4.86514 10.1435C4.78006 9.08315 4.68188 7.87883 4.72769 6.72687C4.72769 6.6516 4.79642 6.58287 4.87169 6.58287C4.95514 6.58287 5.01568 6.64342 5.01568 6.72687C5.05496 7.20467 5.08441 7.6972 5.1155 8.16682C5.14495 8.71989 5.18422 9.28769 5.2284 9.84076C5.29058 10.5002 5.35113 11.0451 5.44931 11.5982C5.4804 11.7503 5.50985 11.9091 5.54748 12.0596C5.63912 11.7192 5.73075 11.3936 5.82893 11.0762C5.82893 11.0451 5.83711 11.0075 5.86002 10.9616C5.92875 10.7489 5.99583 10.5378 6.07929 10.3104C6.28546 9.74259 6.52763 9.15188 6.82544 8.50717C6.69617 7.6432 6.61927 6.72687 6.60454 5.7729V5.606C6.58981 4.75021 6.57345 3.86333 6.75672 3.02227V3.00754C6.77144 2.95354 6.82544 2.91591 6.88599 2.91591C6.95307 2.91591 7.01525 2.97645 7.0218 3.04517C7.05943 3.56061 7.03816 4.08259 7.0218 4.58985C7.00707 4.94657 6.99889 5.30983 7.00707 5.66654C7.0218 6.34888 7.0758 7.04431 7.18216 7.80192C7.63705 6.9085 8.16231 6.06089 8.73829 5.28037C8.82338 4.75021 8.99028 4.21841 9.149 3.70461C9.20955 3.5148 9.27009 3.31844 9.32409 3.12045C9.35518 3.00754 9.39281 2.893 9.42227 2.77191C9.62844 2.03721 9.84116 1.27305 10.1439 0.544895C10.1602 0.492533 10.2208 0.446716 10.2895 0.446716C10.3337 0.446716 10.3877 0.469625 10.4106 0.50726C10.4401 0.544895 10.4482 0.590711 10.4335 0.643073C10.3042 1.21905 10.1373 1.80322 9.97697 2.37102C9.9017 2.62792 9.83298 2.88645 9.75771 3.14335C9.65789 3.52298 9.55972 3.91569 9.46808 4.29531C9.46154 4.32477 9.45336 4.35586 9.44517 4.38531C9.85589 3.90915 10.2961 3.45425 10.7526 3.03699C10.7608 3.02227 10.7755 2.99118 10.7984 2.9699C11.9913 1.73449 13.1449 0.94579 14.3377 0.559622L14.3606 0.530168H14.3917C14.4376 0.530168 14.4752 0.553076 14.4981 0.590711C14.521 0.628347 14.5276 0.680708 14.5046 0.726525L14.4899 0.749433L14.467 0.76416C14.1856 0.962153 13.8747 1.1356 13.5785 1.30251C13.2905 1.46123 12.9943 1.62813 12.7276 1.80976C12.1958 2.1812 11.7327 2.64264 11.3826 3.00754C10.9948 3.44607 10.638 3.87151 10.2961 4.29531C10.5399 4.24132 10.782 4.19714 11.0177 4.15132C11.2386 4.11368 11.4742 4.06787 11.6935 4.02205C12.4543 3.86333 13.1678 3.67352 13.8894 3.44607L13.9058 3.43953H13.9287C13.9892 3.43953 14.0497 3.48371 14.0645 3.54425C14.0792 3.60643 14.0497 3.66534 13.9892 3.69643C13.2741 4.03678 12.5231 4.2495 11.8849 4.40167C11.6935 4.44586 11.5037 4.49167 11.322 4.54567C10.836 4.66676 10.3337 4.79439 9.83298 4.88602C9.33227 5.552 8.86756 6.22616 8.45848 6.89377C8.66302 6.81032 8.86756 6.72687 9.07373 6.64342C9.93116 6.29488 10.8279 5.93817 11.6558 5.46855C11.6787 5.45382 11.7016 5.45382 11.7246 5.45382C11.7933 5.45382 11.8456 5.49964 11.8685 5.56836C11.8849 5.62891 11.862 5.68127 11.808 5.71236C10.7215 6.44706 9.43863 7.06722 8.09358 7.51393C7.51597 8.53826 7.05943 9.52987 6.69617 10.5444C7.82032 10.0371 8.95264 9.42351 10.2355 8.62826C10.2584 8.61353 10.2813 8.60535 10.3042 8.60535C10.3566 8.60535 10.4106 8.64299 10.4253 8.69699C10.4401 8.74935 10.4188 8.81807 10.373 8.84753C9.28645 9.67386 7.98722 10.4167 6.50636 11.0598C6.39837 11.3707 6.3231 11.6293 6.25437 11.878C5.96638 12.9236 5.76839 13.9921 5.67021 15.0671C6.55054 14.2343 7.46197 13.3261 8.27521 12.2641C8.29812 12.2347 8.33576 12.2118 8.38157 12.2118C8.43557 12.2118 8.48139 12.2429 8.50266 12.287C8.52557 12.3329 8.52557 12.3869 8.49611 12.4245C7.78105 13.6583 6.69617 14.735 5.61621 15.7118C5.51803 17.2876 5.61621 18.8552 5.88947 20.3786C6.08747 20.0988 6.28546 19.8255 6.47527 19.5523C7.2427 18.469 8.03958 17.3482 8.70065 16.1586C8.72356 16.1127 8.76938 16.0833 8.82338 16.0833C8.86756 16.0833 8.91337 16.1062 8.94446 16.1438C8.97392 16.1815 8.9821 16.2191 8.96737 16.2649V16.2796C8.63356 17.1436 8.13122 17.947 7.64523 18.6965C7.05943 19.5915 6.55872 20.3328 6.0351 21.0675C6.22492 21.9462 6.49 22.8265 6.80908 23.697C7.23452 23.1669 7.65342 22.6367 8.03304 22.0689C8.24576 21.758 8.43557 21.4242 8.62538 21.1068C8.80047 20.8106 8.9821 20.4997 9.18009 20.2051V20.1888C9.20955 20.1511 9.25536 20.1282 9.30936 20.1282C9.36172 20.1282 9.41572 20.1511 9.44517 20.197C9.47626 20.2428 9.47626 20.2951 9.45336 20.341C8.99028 21.5224 8.15413 22.8036 6.98416 24.1585C7.45542 25.3333 8.03958 26.4624 8.70883 27.508C8.82992 26.9173 8.96737 26.3037 9.11955 25.7048C9.18009 25.4462 9.25536 25.1893 9.32409 24.939C9.48445 24.3565 9.65135 23.7576 9.7348 23.1521C9.74953 23.0687 9.81007 23.0147 9.88698 23.0147C9.96225 23.0147 10.031 23.0752 10.0375 23.1521V23.1587C10.0768 23.7347 9.91643 24.3336 9.76425 24.9161C9.69717 25.1599 9.63499 25.3939 9.58917 25.6131C9.40754 26.4918 9.24064 27.2805 9.10319 28.0758C9.31591 28.372 9.58917 28.75 9.8788 29.1067C10.3877 29.7432 10.8884 30.2963 11.3973 30.7872C11.5495 29.5452 11.7246 28.2803 11.8915 27.0613C11.952 26.644 12.006 26.2202 12.0665 25.803C12.0813 25.7277 12.1434 25.6819 12.2105 25.6819C12.294 25.6819 12.3627 25.7424 12.3627 25.8259C12.3251 27.7731 12.1582 29.5828 11.8767 31.2044C11.8915 31.2208 11.9078 31.242 11.9225 31.2731C12.3562 31.6593 12.7963 31.9997 13.2447 32.2958C13.6767 32.5838 14.1561 32.8407 14.7108 33.0764C14.6797 32.8342 14.6568 32.5985 14.6339 32.3646C14.5897 31.9473 14.5439 31.5235 14.4834 31.1062C14.4212 30.6677 14.3459 30.2275 14.2707 29.7956C14.2019 29.4176 14.1332 29.0232 14.0792 28.6289C14.0727 28.5765 14.0874 28.5307 14.1185 28.493C14.1479 28.4554 14.1937 28.4391 14.2396 28.4391C14.3083 28.4391 14.3688 28.4849 14.3917 28.5454C14.665 29.3865 14.8254 30.2652 14.9612 31.0981C15.0823 31.8409 15.1968 32.5756 15.2344 33.2809C16.1459 33.6212 17.0736 33.8405 17.7953 34.0009C17.9998 34.045 18.206 34.0909 18.4171 34.1367C19.353 34.333 20.3168 34.5458 21.2511 34.8108C21.958 34.621 22.6944 34.4623 23.4013 34.3101C24.1163 34.1596 24.8527 34.0009 25.5514 33.8111C25.9768 33.6965 26.4252 33.5525 26.8964 33.3791C26.9341 32.6673 27.0486 31.9473 27.1697 31.2044C27.3071 30.3797 27.4659 29.4928 27.7326 28.66C27.7555 28.5912 27.8078 28.5454 27.8847 28.5454C27.9306 28.5454 27.9747 28.5683 28.0124 28.606C28.0435 28.6436 28.0582 28.6894 28.0516 28.7352C27.9911 29.1738 27.9142 29.6221 27.8389 30.0525C27.7702 30.4321 27.7015 30.8264 27.6491 31.2126C27.5951 31.5988 27.5575 31.9997 27.5117 32.3858C27.4888 32.6444 27.4593 32.9094 27.4282 33.1745C28.3544 32.7655 29.1676 32.2647 29.8892 31.6511C29.9956 31.5611 30.1101 31.463 30.2247 31.3631C30.2312 31.3484 30.2476 31.3337 30.2541 31.3255C29.9661 29.6516 29.8058 27.8418 29.7681 25.947C29.7681 25.8635 29.8369 25.7948 29.9203 25.7948C29.9956 25.7948 30.0578 25.8488 30.0643 25.924L30.1936 26.8486C30.3768 28.174 30.5667 29.5452 30.7336 30.8935C31.5534 30.1065 32.3208 29.1967 33.0129 28.2051L33.0195 28.1969C32.8837 27.3934 32.7168 26.5982 32.5335 25.7277C32.4877 25.515 32.4271 25.2957 32.3666 25.0683C32.2062 24.4775 32.0393 23.8639 32.0852 23.2732V23.265C32.0933 23.1816 32.1621 23.1292 32.2373 23.1292C32.3126 23.1292 32.3813 23.1898 32.3895 23.265C32.4648 23.8934 32.6399 24.5234 32.8149 25.1288C32.8755 25.3562 32.9442 25.5837 33.0048 25.8177C33.1569 26.4166 33.2862 27.022 33.4155 27.6144C34.0831 26.5917 34.6607 25.4692 35.1467 24.2796C33.9538 22.9083 33.1258 21.6206 32.671 20.4539C32.648 20.4097 32.6546 20.3557 32.6857 20.3181C32.7168 20.2722 32.7691 20.2493 32.8215 20.2493C32.8837 20.2493 32.9279 20.2804 32.9589 20.3262C33.1488 20.6142 33.332 20.9235 33.5055 21.2197C33.6953 21.5371 33.8867 21.8709 34.0994 22.1818C34.5085 22.7872 34.9569 23.3632 35.33 23.8181C35.6556 22.9312 35.9223 22.0525 36.1121 21.1967C35.6179 20.5079 35.1009 19.7421 34.4856 18.8028C33.9996 18.0534 33.4907 17.25 33.1635 16.386C33.1488 16.3402 33.1488 16.296 33.1798 16.2567C33.2028 16.2191 33.2486 16.1962 33.3009 16.1962C33.3467 16.1962 33.3926 16.2191 33.422 16.2567L33.4302 16.2649V16.2731C34.0994 17.4692 34.9045 18.6065 35.6785 19.7044C35.8683 19.9695 36.0663 20.2428 36.2561 20.5226C36.3019 20.3033 36.3396 20.0841 36.3706 19.8632C36.567 18.5688 36.621 17.2123 36.5294 15.8411C35.451 14.8626 34.3563 13.7794 33.6347 12.5292C33.6118 12.4916 33.6118 12.4474 33.6347 12.4016C33.6576 12.3558 33.7035 12.3247 33.7575 12.3247C33.8016 12.3247 33.8409 12.3476 33.8704 12.3869C34.6542 13.4014 35.5116 14.2653 36.477 15.1899C36.3396 13.8105 36.0516 12.4703 35.6327 11.1809C34.16 10.5378 32.8526 9.79495 31.7579 8.96861L31.7432 8.95389C31.7055 8.91625 31.6908 8.85571 31.7137 8.80335C31.7366 8.75753 31.7808 8.72644 31.8266 8.72644C31.8577 8.72644 31.8806 8.73462 31.9035 8.74935C33.2551 9.57568 34.3645 10.1746 35.451 10.6671C35.0861 9.64441 34.6231 8.62826 34.0536 7.63666C32.7233 7.19649 31.4323 6.57469 30.3228 5.82526C30.2688 5.78763 30.2476 5.7189 30.2689 5.66654C30.2918 5.606 30.3458 5.56836 30.3981 5.56836C30.4292 5.56836 30.4521 5.57491 30.475 5.59127C31.2948 6.04453 32.1686 6.40124 33.0129 6.7416C33.2322 6.83323 33.4597 6.92323 33.6806 7.01486C33.2698 6.34888 32.8068 5.67309 32.2979 4.99893C31.7513 4.90075 31.2048 4.76494 30.673 4.62912C30.5274 4.58985 30.3768 4.55222 30.2312 4.51458C29.6012 4.36404 28.8567 4.15786 28.1269 3.81097H28.1204L28.1122 3.80279C28.0582 3.76515 28.0353 3.70461 28.0582 3.64406C28.0746 3.58352 28.1269 3.54425 28.1875 3.54425H28.2038L28.2267 3.55243C28.9402 3.76515 29.6536 3.95333 30.421 4.12841C30.6272 4.17423 30.8465 4.21186 31.0526 4.2495C31.303 4.29531 31.5615 4.34768 31.8201 4.40167C31.4781 3.97623 31.1214 3.55243 30.7336 3.1139C30.2541 2.59846 29.8287 2.21884 29.3951 1.91612C29.13 1.73449 28.842 1.56759 28.5524 1.41541C28.2562 1.25014 27.9453 1.08324 27.6557 0.878702C27.6098 0.847612 27.5886 0.79525 27.6033 0.741252C27.618 0.680709 27.672 0.634892 27.7391 0.634892H27.7555L27.7702 0.643073C28.9778 1.03742 30.1412 1.82612 31.3177 3.0599C31.3406 3.08281 31.3554 3.10572 31.3635 3.12863C31.8119 3.52952 32.2455 3.97623 32.671 4.47694C32.671 4.46222 32.6628 4.44586 32.6628 4.43113C32.5646 4.03678 32.4648 3.63588 32.3584 3.24153C32.2897 2.99118 32.2226 2.74246 32.1457 2.4921C31.987 1.9243 31.8201 1.3336 31.6826 0.741252C31.6679 0.697071 31.6826 0.651255 31.7055 0.61362C31.7366 0.575985 31.7808 0.553076 31.8266 0.553076C31.8953 0.553076 31.9559 0.597257 31.9722 0.6578C32.2455 1.34014 32.4582 2.0683 32.6546 2.77191C32.7004 2.92409 32.738 3.07463 32.7839 3.21862C32.8379 3.40025 32.8902 3.58352 32.9508 3.75697C33.1111 4.28059 33.278 4.8173 33.3697 5.36382C33.9391 6.13616 34.4627 6.97723 34.9274 7.87883C35.0256 7.16704 35.078 6.44706 35.0943 5.74999C35.1009 5.37855 35.0943 4.99238 35.078 4.62094C35.0632 4.12841 35.0485 3.6277 35.078 3.12863C35.078 3.0599 35.1401 2.99936 35.2154 2.99936C35.2841 2.99936 35.3365 3.04518 35.3447 3.1139" fill="#001378"/>
</g>
</g>
</g>
</g>
<g id="Group 1261155497">
<path id="Subtract" fill-rule="evenodd" clip-rule="evenodd" d="M29.631 8.81379V20.5667C29.6309 21.5047 28.8054 24.5394 24.7878 26.8017C21.675 28.5545 21.1367 28.8515 21.0522 28.8964L21.0522 28.9012C21.0522 28.9012 21.0637 28.9081 21.0467 28.8993C21.0298 28.9081 21.0413 28.9012 21.0413 28.9012L21.0413 28.8964C20.9567 28.8515 20.4184 28.5545 17.3057 26.8017C13.2881 24.5395 12.4626 21.5047 12.4625 20.5667V8.8138C16.4183 9.76631 18.4511 9.84902 21.0375 8.49237L21.0375 8.48264L21.0467 8.48751L21.056 8.48264L21.056 8.49236C23.6423 9.84901 25.6752 9.7663 29.631 8.81379ZM26.3867 13.6315V15.3145H26.2313H23.246C22.7799 15.3145 22.5278 15.5646 22.5258 16.0285C22.5246 16.2786 22.5249 16.5285 22.5258 16.7787C22.5278 17.373 22.9285 17.7861 23.5205 17.7706C24.1414 17.7544 24.7181 17.8753 25.238 18.2268C26.1266 18.8281 26.5624 19.9216 26.332 20.9746C26.1093 21.9931 25.2513 22.8175 24.2198 22.9941C24.0256 23.0272 23.8264 23.0456 23.6295 23.0464C22.8796 23.0502 22.1297 23.0498 21.3799 23.0493C21.1299 23.0491 20.88 23.049 20.63 23.049H20.4526V21.3439H20.6158L21.4497 21.3441C22.214 21.3443 22.9783 21.3445 23.7426 21.3431C24.2152 21.3422 24.6329 20.9789 24.6856 20.5289C24.7416 20.0504 24.4431 19.6146 23.9702 19.5016C23.853 19.4736 23.7268 19.4731 23.6051 19.4759C22.9132 19.4912 22.2903 19.3007 21.7614 18.8479C21.1974 18.3651 20.8717 17.7493 20.8403 17.0051C20.8193 16.5067 20.7984 15.999 20.8683 15.5083C21.0222 14.4222 21.9015 13.6539 23.0009 13.6295C23.7747 13.6125 24.5491 13.6166 25.3235 13.6208H25.3236C25.6576 13.6226 25.9917 13.6243 26.3258 13.6244C26.3378 13.6244 26.3499 13.6262 26.3641 13.6284C26.3709 13.6294 26.3783 13.6305 26.3864 13.6315H26.3867ZM20.0877 21.3089V21.3087L20.088 21.309C20.0879 21.3089 20.0878 21.3089 20.0877 21.3089ZM20.0877 23.0406V21.3089C20.0741 21.3061 20.0624 21.3035 20.0518 21.3013C20.0352 21.2977 20.0213 21.2947 20.0074 21.292C18.0757 20.9145 17.0113 18.7651 17.9005 17.0114C18.3974 16.0314 19.2071 15.4748 20.3017 15.3486C20.4307 15.3338 20.4907 15.2956 20.5261 15.1606C20.6733 14.5966 20.9786 14.1291 21.4314 13.7598C21.4612 13.7355 21.4902 13.71 21.5255 13.6789C21.5431 13.6634 21.5623 13.6465 21.5839 13.6277C21.4902 13.6277 21.3997 13.6279 21.3113 13.6282C21.1218 13.6287 20.9423 13.6292 20.763 13.6271C20.2508 13.6212 19.747 13.6749 19.2546 13.8218C16.9745 14.5007 15.5262 16.7913 15.9555 19.1231C16.3027 21.0084 17.4313 22.2485 19.2484 22.8524C19.4306 22.913 19.6212 22.9492 19.8148 22.986C19.9053 23.0033 19.9964 23.0206 20.0877 23.0406Z" fill="#FF2231"/>
</g>
</g>
</svg>
