<svg width="134" height="34" viewBox="0 0 134 34" fill="none" xmlns="http://www.w3.org/2000/svg">
<mask id="mask0_464_4424" style="mask-type:luminance" maskUnits="userSpaceOnUse" x="0" y="0" width="37" height="33">
<path d="M0 0H36.1492V32.0616H0V0Z" fill="white"/>
</mask>
<g mask="url(#mask0_464_4424)">
<path d="M24.526 24.4909C24.2332 24.7822 23.2947 25.7778 23.1381 27.3444C23.0297 28.4014 23.3284 29.2345 23.5055 29.6415C23.8042 29.337 24.5523 28.4966 24.7968 27.154C25.0355 25.8935 24.6812 24.8906 24.526 24.4909ZM27.4746 29.9196C25.545 29.2623 23.8188 30.6458 23.6885 30.7468C23.8862 30.9708 24.7427 31.8786 26.1833 32.0352C27.8157 32.2109 28.9431 31.2754 29.1407 31.1129C28.8816 30.7937 28.3457 30.2183 27.4746 29.9196ZM30.0587 27.4395C28.8757 27.5405 28.0061 27.9944 27.5639 28.2653C27.9783 28.5171 28.8962 28.9841 30.1465 29.0046C31.697 29.0324 32.798 28.3546 33.1918 28.0822C32.7291 27.8319 31.5813 27.3034 30.0587 27.4395ZM25.9051 22.2802C25.687 22.6403 25.1921 23.5817 25.2595 24.8554C25.3415 26.4088 26.198 27.419 26.4629 27.7104C26.6255 27.4527 27.5976 25.8657 27.0134 24.0297C26.7411 23.1615 26.2243 22.5847 25.9051 22.2802ZM31.9956 23.2025C30.738 23.8862 30.2622 25.0194 30.1465 25.3166C30.3779 25.3913 31.8536 25.8115 33.2869 24.9506C34.4567 24.2464 34.8506 23.1352 34.9457 22.8365C34.6602 22.7618 33.3558 22.4632 31.9956 23.2025ZM29.0865 25.2756C29.1949 25.0194 30.0514 22.958 28.9504 21.2641C28.6444 20.7956 28.2711 20.4706 27.9373 20.2539C27.7264 20.5921 27.3736 21.2773 27.3868 22.185C27.4 24.0356 28.8962 25.1483 29.0865 25.2756ZM33.8448 19.2437C32.5871 19.9684 32.1186 21.1148 31.9956 21.453C32.3558 21.4808 33.3616 21.5218 34.3952 20.9039C35.6251 20.166 36.0467 19.0065 36.1492 18.6947C35.7612 18.6742 34.8242 18.6815 33.8448 19.2437ZM28.3047 17.4941C28.2169 17.4604 28.1217 17.4268 28.0266 17.4004C28.0471 17.8411 28.1349 18.5116 28.4877 19.2437C29.1407 20.5862 30.2563 21.229 30.6765 21.4471C30.514 20.4706 29.984 18.1661 28.3047 17.4941ZM33.0146 17.1281C33.2328 17.0813 34.9531 16.7021 35.6939 15.1018C36.0672 14.2951 36.0204 13.5426 35.972 13.1707C35.5709 13.2791 34.9179 13.5221 34.3133 14.0916C33.0761 15.238 33.0146 16.7899 33.0146 17.1281ZM30.615 15.197C29.9225 14.3288 29.0382 14.017 28.6781 13.9086C28.6034 14.2278 28.4058 15.2775 28.9577 16.3961C29.6839 17.8748 31.1465 18.2876 31.3778 18.3491C31.4173 18.0841 31.6765 16.5249 30.615 15.197ZM33.1991 13.6305C33.4509 13.5163 35.524 12.4987 35.7817 10.4988C35.8432 10.0186 35.789 9.58377 35.6866 9.2119C35.3 9.3466 34.7217 9.60427 34.2122 10.1328C32.9063 11.4753 33.1581 13.3537 33.1991 13.6305ZM30.3164 11.1298C29.9225 10.9058 29.5287 10.7902 29.1817 10.736C29.1685 11.0683 29.1817 11.9292 29.7395 12.7842C30.5682 14.0506 31.9547 14.282 32.186 14.3156C32.1523 14.0038 31.9078 12.0375 30.3164 11.1298ZM28.5829 9.39491C29.7864 10.3158 31.167 10.0786 31.3968 10.0391C31.2621 9.76093 30.3852 7.98501 28.5829 7.64535C28.1349 7.56483 27.7264 7.58386 27.3809 7.64535C27.4819 7.96452 27.7747 8.77707 28.5829 9.39491ZM33.1991 8.10653C33.3411 6.76398 32.7291 5.78892 32.5535 5.53124C32.309 5.82845 31.7511 6.60147 31.6282 7.74052C31.492 9.03475 31.9956 9.99811 32.1787 10.3158C32.41 10.0655 33.0703 9.29975 33.1991 8.10653ZM26.0881 4.88705C26.1628 5.07592 26.646 6.24863 27.9373 6.73031C28.8816 7.08315 29.719 6.85915 29.9899 6.7713C29.82 6.47995 29.1275 5.38191 27.7543 4.98222C27.0603 4.77871 26.4556 4.82556 26.0881 4.88705ZM31.4452 3.40981C31.268 2.64264 30.861 2.12143 30.615 1.85058C30.4188 2.20195 30.0792 2.91495 30.0645 3.87685C30.0455 5.13009 30.5814 6.03195 30.8054 6.36429C30.9488 6.14761 31.7921 4.9339 31.4452 3.40981ZM24.7558 2.75098C24.5392 2.79197 24.2405 2.89446 23.914 3.13164C24.0224 3.30732 24.485 4.02618 25.4366 4.31753C26.4834 4.63523 27.3458 4.18869 27.5098 4.10085C26.7689 3.11114 25.7148 2.56212 24.7558 2.75098ZM28.6371 3.63235C29.0792 2.47427 28.9709 1.29423 28.2916 0.595875C28.1408 0.440684 27.8904 0.237178 27.5098 0.0937002C27.4204 0.278172 27.0603 1.05706 27.3326 2.01309C27.6386 3.06283 28.4819 3.5445 28.6371 3.63235ZM24.8452 2.16828C25.7353 2.80515 26.6943 2.65728 26.8773 2.62946C26.4966 1.44942 25.6738 0.595875 24.709 0.467037C24.4909 0.440684 24.1717 0.433363 23.7837 0.562201C23.8247 0.758386 24.0355 1.5929 24.8452 2.16828ZM11.6305 24.3957C11.4665 24.7954 11.121 25.7983 11.3523 27.0662C11.5968 28.4014 12.3435 29.2491 12.6437 29.5536C12.8193 29.1466 13.1195 28.3136 13.0097 27.2565C12.8603 25.6826 11.9219 24.6871 11.6305 24.3957ZM8.67311 29.8318C7.80346 30.1232 7.26615 30.7059 7.01433 31.0309C7.20466 31.1934 8.34077 32.1289 9.97174 31.9532C11.4065 31.798 12.263 30.8889 12.4665 30.6649C12.3303 30.5507 10.6115 29.1744 8.67311 29.8318ZM6.0905 27.3444C4.56788 27.2155 3.41859 27.744 2.95009 27.9871C3.34392 28.2594 4.4449 28.9373 5.99534 28.9094C7.24565 28.8889 8.16362 28.4219 8.57795 28.1716C8.14312 27.8992 7.27347 27.4454 6.0905 27.3444ZM9.13576 23.9404C8.55159 25.7778 9.52373 27.3649 9.68624 27.6211C9.95124 27.337 10.8077 26.321 10.8897 24.7676C10.9571 23.4939 10.4607 22.551 10.2441 22.1923C9.92489 22.4968 9.41393 23.0737 9.13576 23.9404ZM6.00266 25.2288C5.887 24.9243 5.41704 23.7984 4.15355 23.1147C2.80075 22.3753 1.48895 22.674 1.19614 22.7487C1.2913 23.0459 1.68514 24.1585 2.85492 24.8628C4.29556 25.7236 5.76402 25.2961 6.00266 25.2288ZM8.76828 22.0971C8.7756 21.1894 8.42129 20.5042 8.21779 20.166C7.88545 20.3886 7.50479 20.7077 7.20466 21.1748C6.10368 22.8702 6.96016 24.9301 7.0685 25.1878C7.25297 25.0531 8.7551 23.9404 8.76828 22.0971ZM4.15355 21.3593C4.03057 21.0269 3.56207 19.8732 2.30444 19.1485C1.32498 18.5863 0.386513 18.579 0 18.5995C0.102485 18.9113 0.522671 20.0709 1.75395 20.8088C2.78611 21.4266 3.79339 21.3929 4.15355 21.3593ZM7.65998 19.1485C8.01428 18.4238 8.10213 17.7459 8.12262 17.3053C8.02746 17.3316 7.9323 17.3594 7.84445 17.4004C6.16517 18.071 5.63518 20.3754 5.46535 21.3519C5.89286 21.1353 7.00847 20.4969 7.65998 19.1485ZM3.14042 17.0344C3.1331 16.7021 3.07893 15.1428 1.84911 13.9965C1.24445 13.4343 0.584161 13.1912 0.190328 13.0756C0.142014 13.4474 0.095164 14.2 0.4685 15.0067C1.19614 16.6069 2.92227 16.9934 3.14042 17.0344ZM7.1988 16.2951C7.74929 15.1765 7.55164 14.1253 7.47697 13.8076C7.11681 13.9159 6.22666 14.2278 5.54002 15.0945C4.47857 16.4239 4.73039 17.989 4.7787 18.2467C5.01003 18.1866 6.47116 17.7723 7.1988 16.2951ZM2.95741 13.5368C2.99694 13.2644 3.24876 11.3802 1.94428 10.0391C1.43478 9.50911 0.856477 9.25143 0.4685 9.11674C0.36748 9.49007 0.31331 9.92344 0.373336 10.4051C0.625155 12.4036 2.69827 13.4211 2.95741 13.5368ZM6.40967 12.6891C6.96748 11.8414 6.98065 10.9732 6.96748 10.6423C6.62049 10.6965 6.22666 10.8107 5.83283 11.0347C4.24139 11.9438 3.99689 13.9086 3.96322 14.2205C4.2004 14.1868 5.58101 13.9569 6.40967 12.6891ZM7.56482 7.55019C5.7567 7.88985 4.88119 9.66576 4.75089 9.94393C4.98221 9.98493 6.36282 10.2221 7.56482 9.29975C8.37444 8.68337 8.66726 7.86935 8.76828 7.55019C8.42861 7.49016 8.01428 7.46966 7.56482 7.55019ZM3.96908 10.2221C4.1594 9.90294 4.66304 8.93373 4.51956 7.64535C4.39805 6.50631 3.84024 5.73475 3.60306 5.43608C3.42591 5.69375 2.81393 6.66882 2.95741 8.01137C3.08625 9.2119 3.73775 9.97761 3.96908 10.2221ZM8.21779 6.63515C9.50909 6.15493 9.99223 4.98807 10.0669 4.79189C9.69942 4.7304 9.09476 4.68355 8.40812 4.88705C7.02165 5.28674 6.335 6.37747 6.15785 6.67614C6.43017 6.75813 7.26615 6.98799 8.21779 6.63515ZM6.0905 3.78168C6.07001 2.82565 5.7362 2.10825 5.54002 1.75541C5.29552 2.02627 4.88704 2.55479 4.70989 3.3205C4.36437 4.83874 5.20621 6.05977 5.35701 6.26913C5.57369 5.93093 6.11686 5.02907 6.0905 3.78168ZM10.7126 4.22237C11.6642 3.93834 12.1268 3.21216 12.2352 3.03647C11.9087 2.79197 11.6027 2.69681 11.3919 2.65728C10.4344 2.46695 9.38026 3.01598 8.63944 4.013C8.80195 4.10085 9.66575 4.54153 10.7126 4.22237ZM8.81659 1.91793C9.08744 0.961891 8.7346 0.183008 8.63944 0C8.25878 0.142014 8.01428 0.34552 7.85763 0.50071C7.18416 1.19907 7.07582 2.38496 7.51065 3.53718C7.67462 3.44934 8.51646 2.96913 8.81659 1.91793ZM9.27777 2.5343C9.65989 1.35572 10.4812 0.50071 11.446 0.371873C11.6642 0.34552 11.9834 0.338199 12.3713 0.467037C12.323 0.670542 12.1195 1.49774 11.3114 2.08044C10.4139 2.71145 9.45492 2.56797 9.27777 2.5343Z" fill="white"/>
</g>
<mask id="mask1_464_4424" style="mask-type:luminance" maskUnits="userSpaceOnUse" x="0" y="0" width="36" height="35">
<path d="M0.474609 0.338867H35.6853V34.0007H0.474609V0.338867Z" fill="white"/>
</mask>
<g mask="url(#mask1_464_4424)">
<path d="M30.8732 2.78584C31.0299 3.5574 31.0152 4.37142 31.002 5.15763V5.2323M31.002 5.2323C30.9815 6.15466 30.9142 6.95404 30.8044 7.67875C31.1382 8.39761 31.431 9.14282 31.6682 9.89535C31.6828 9.92316 31.696 9.94952 31.696 9.98465C31.7165 10.0447 31.737 10.1062 31.7502 10.1677C31.7707 10.235 31.7912 10.3024 31.8117 10.3697C31.8585 10.5322 31.8995 10.6962 31.9478 10.8646C31.9874 10.702 32.0284 10.5395 32.0562 10.3697C32.144 9.88949 32.1923 9.39463 32.2319 8.91296V8.8866C32.2729 8.39175 32.308 7.8764 32.3343 7.3874C32.3622 6.96721 32.3885 6.52653 32.4237 6.10049C32.4237 6.02582 32.4837 5.97165 32.5525 5.97165C32.6272 5.97165 32.6886 6.03168 32.6886 6.10634C32.7282 7.13705 32.6403 8.20874 32.5657 9.15746L32.5525 9.35364C32.491 10.112 32.4237 10.9729 32.1382 11.6991C32.3007 12.478 32.4032 13.2642 32.4573 14.0313C32.9536 13.5013 33.4558 12.9596 33.8775 12.3491C34.3738 11.6244 34.7881 10.8792 35.1073 10.1398C35.1351 10.093 35.1761 10.0652 35.2229 10.0652C35.2639 10.0652 35.3049 10.0857 35.3327 10.1193C35.3591 10.153 35.3664 10.1867 35.3532 10.2277V10.2423C34.7208 11.8879 33.7618 13.3666 32.4983 14.6404C32.5247 15.5349 32.491 16.4163 32.3958 17.2845C32.9463 16.8233 33.45 16.2948 33.9185 15.7926C34.1966 15.4881 34.4353 15.1352 34.6593 14.797C34.8965 14.4442 35.1424 14.0782 35.4411 13.7532C35.4689 13.7253 35.5026 13.7122 35.5289 13.7122C35.5772 13.7122 35.6241 13.7385 35.6446 13.7795C35.6651 13.8205 35.6651 13.8688 35.6387 13.9025C35.4338 14.1938 35.2434 14.4984 35.0677 14.7897C34.7954 15.2377 34.5099 15.7048 34.1556 16.1191C33.5715 16.7896 32.9932 17.4338 32.3138 17.9287C32.1382 19.1014 31.8453 20.2595 31.4369 21.378C32.1982 21.1277 32.8643 20.8231 33.4763 20.4439C33.9053 20.1716 34.2786 19.9081 34.6124 19.6299C34.7339 19.5274 34.8569 19.4132 34.9726 19.2976C35.1278 19.1482 35.2844 18.993 35.4689 18.8569L35.5977 18.7617L35.6314 18.9184C35.6314 18.9184 35.6387 18.9242 35.6387 18.9316C35.6592 18.9184 35.6929 18.9857 35.6519 19.0604C35.1893 19.7588 34.3401 20.3488 33.6535 20.7821C32.8512 21.2843 32.0225 21.6767 31.1865 21.9475C30.6902 23.1949 30.0445 24.3881 29.2759 25.4935C29.6288 25.3852 29.9757 25.2358 30.3154 25.0938C30.6551 24.9503 31.0094 24.8083 31.3622 24.6927C32.1382 24.4496 32.838 24.0016 33.5173 23.5683C33.7003 23.4526 33.898 23.3238 34.0883 23.2081L34.0956 23.2022C34.1161 23.1949 34.1351 23.1891 34.1556 23.1891C34.204 23.1891 34.2449 23.2154 34.2654 23.2564C34.2859 23.2974 34.2859 23.3516 34.2581 23.3926V23.4057C34.0004 23.7176 33.6256 23.9474 33.2728 24.1641C33.1645 24.2329 33.062 24.293 32.9668 24.3545C32.6477 24.5638 32.2187 24.8361 31.7224 25.0191C31.2407 25.1948 30.7502 25.391 30.1866 25.6487C29.7722 25.839 29.3228 26.0352 28.8411 26.1026C28.2965 26.8156 27.7123 27.4788 27.1003 28.082C27.1486 28.082 27.1882 28.082 27.2365 28.082C27.4195 28.082 27.6098 28.0688 27.7943 28.0615C27.8485 28.0615 27.9026 28.0556 27.9568 28.0556L28.1808 28.0424C28.5014 28.0278 28.8264 28.0073 29.1471 28.0073C29.1939 28.0073 29.2422 28.0073 29.2891 28.0073C29.5614 28.0073 29.8469 28.0146 30.1192 28.0219C30.4589 28.0278 30.8044 28.0351 31.1455 28.0351C31.4779 28.0351 31.7707 28.0278 32.0357 28.0146C32.1177 28.0146 32.1777 28.0688 32.185 28.1508C32.1923 28.224 32.144 28.2855 32.0767 28.2987C31.532 28.4085 30.9889 28.4216 30.5262 28.4216C30.3564 28.4216 30.1866 28.4216 30.0167 28.4143C29.8469 28.4143 29.6771 28.4085 29.5131 28.4085C29.3638 28.4085 29.2349 28.4085 29.1193 28.4143C28.7869 28.4216 28.4531 28.448 28.1266 28.4685C27.929 28.4817 27.7255 28.4963 27.5293 28.5022L27.4136 28.5095C27.3038 28.5168 27.1882 28.5227 27.0798 28.5227C26.9232 28.5227 26.7943 28.5095 26.6728 28.489C26.421 28.713 26.1823 28.9092 25.9379 29.0995C25.2453 29.628 24.4635 30.0614 23.5456 30.4142C24.1224 30.5357 24.749 30.6382 25.4957 30.7188C25.8969 30.7671 26.2848 30.7934 26.686 30.8007C26.7065 30.8007 26.7328 30.8007 26.7533 30.8007C26.8968 30.8007 27.0461 30.7934 27.1955 30.7876C27.3448 30.7802 27.5015 30.7729 27.6508 30.7729C27.7738 30.7729 27.8821 30.7802 27.9846 30.7876C28.0461 30.7876 28.093 30.8344 28.1003 30.8959C28.1061 30.9559 28.0651 31.0174 28.0051 31.0306C27.6376 31.1389 27.2087 31.1931 26.6992 31.1931C26.2307 31.1931 25.768 31.1463 25.32 31.1053H25.3127C25.1912 31.0921 25.0741 31.0848 24.9452 31.0716C24.2454 31.0174 23.4577 30.9501 22.8048 30.6646C22.5734 30.7334 22.3363 30.8081 22.0976 30.8681C21.5398 31.0101 20.9483 31.1389 20.3773 31.2619C20.0113 31.3366 19.6365 31.4171 19.2632 31.505C20.534 31.9808 21.493 32.5971 22.2543 33.4243C22.3363 33.5122 22.3494 33.6279 22.3011 33.7362C22.2543 33.8445 22.1445 33.9119 22.0434 33.9119C21.9688 33.9119 21.9 33.8782 21.8458 33.8167C20.9966 32.8885 19.8547 32.2311 18.2705 31.7568C17.0539 32.095 15.5108 32.644 14.3483 33.9119C14.2942 33.9734 14.2253 33.9997 14.1507 33.9997C14.0423 33.9997 13.934 33.9251 13.8857 33.8167C13.8388 33.7084 13.8593 33.6 13.9413 33.5122C14.7568 32.6235 15.8095 31.9735 17.2442 31.4786C16.7757 31.3703 16.2999 31.2678 15.8373 31.1668C15.0218 30.9911 14.1712 30.8139 13.3835 30.5767C12.7305 30.8681 11.9692 30.9296 11.2357 30.9837C11.1127 30.9911 10.9898 31.0042 10.8756 31.0101H10.8682C10.4188 31.0511 9.9576 31.0994 9.48763 31.0994C8.97814 31.0994 8.55063 31.0452 8.17583 30.9296C8.12166 30.9164 8.08067 30.8549 8.08799 30.7934C8.09531 30.7334 8.14948 30.6851 8.20365 30.6851C8.30467 30.6792 8.41447 30.6719 8.53599 30.6719C8.68679 30.6719 8.84198 30.6792 8.98546 30.6851C9.12747 30.6924 9.28413 30.6983 9.42761 30.6983C9.44664 30.6983 9.47446 30.6983 9.49495 30.6983C9.92392 30.6924 10.3514 30.6514 10.6838 30.6177C11.4319 30.5357 12.0571 30.4347 12.628 30.3132C11.5417 29.893 10.4934 29.2488 9.50813 28.388C9.37929 28.4143 9.24313 28.4216 9.08062 28.4216C8.93129 28.4216 8.78049 28.4143 8.63116 28.4011L8.56381 28.3938C8.37348 28.3806 8.18315 28.3733 8.00014 28.3601C7.69415 28.3396 7.38084 28.3192 7.06753 28.306C6.95334 28.306 6.83768 28.2987 6.70152 28.2987C6.52437 28.2987 6.34722 28.2987 6.16421 28.306C5.98706 28.306 5.80405 28.3133 5.6269 28.3133C5.17889 28.3133 4.64158 28.2987 4.10427 28.1903C4.03692 28.1845 3.98861 28.123 3.99593 28.0483C4.00325 27.9678 4.06328 27.9136 4.13794 27.9136C4.41026 27.9268 4.70307 27.9341 5.03542 27.9341C5.37508 27.9341 5.72938 27.9268 6.06172 27.9195C6.33404 27.9136 6.61221 27.9063 6.89185 27.9063C7.33253 27.9063 7.782 27.9268 8.21683 27.9473C8.30467 27.9531 8.39398 27.9531 8.48182 27.9605C8.63848 27.9678 8.79513 27.981 8.95179 27.981C8.98546 27.981 9.01913 27.981 9.0528 27.981C8.46132 27.4187 7.87716 26.7541 7.3135 26.0015C6.79668 25.9269 6.30769 25.7029 5.91239 25.5199C5.41607 25.29 4.9139 25.0997 4.44393 24.9167C3.99593 24.7542 3.59478 24.517 3.13213 24.2183C3.03697 24.1583 2.9418 24.0968 2.83346 24.0353C2.4938 23.8318 2.14682 23.6151 1.90232 23.3179C1.86865 23.2828 1.86133 23.2286 1.88182 23.1891C1.90232 23.1407 1.94917 23.1071 2.0048 23.1071C2.02384 23.1071 2.04433 23.1144 2.06483 23.1203L2.07215 23.1276C2.27566 23.2491 2.48062 23.3779 2.67681 23.5068C3.34296 23.927 4.03692 24.3676 4.79824 24.6121C5.15108 24.7278 5.49074 24.8698 5.82455 25.0045C6.17153 25.148 6.51851 25.29 6.87721 25.4057C6.80254 25.3032 6.73519 25.1948 6.66053 25.0865C5.99438 24.0836 5.42339 22.9914 4.96075 21.8524C4.12477 21.5815 3.30196 21.195 2.49966 20.6943C1.72517 20.1994 0.943357 19.6504 0.50121 18.9784C0.474857 18.9316 0.474857 18.8774 0.50121 18.8305C0.529027 18.7822 0.577342 18.7559 0.631512 18.7559C0.652009 18.7559 0.678362 18.7617 0.698859 18.769L0.706179 18.7749L0.712035 18.7822C0.896507 18.9184 1.06634 19.0809 1.22885 19.2361C1.35769 19.3591 1.48799 19.4879 1.63 19.6021C1.95649 19.8598 2.31665 20.1175 2.71048 20.3693C3.30928 20.7411 3.97543 21.0457 4.74407 21.2975C4.33559 20.1716 4.03692 19.0062 3.85245 17.8335C3.13213 17.3182 2.52015 16.6066 2.03116 16.0371C1.67832 15.6242 1.39283 15.1557 1.12051 14.7092C0.943358 14.4105 0.753029 14.106 0.549524 13.8205C0.521707 13.7795 0.521707 13.7327 0.542204 13.6917C0.562701 13.6507 0.611015 13.6243 0.657865 13.6243C0.691538 13.6243 0.726676 13.6375 0.747173 13.658C1.05902 13.9903 1.31084 14.3622 1.54802 14.7224C1.76616 15.0547 1.99748 15.4002 2.2698 15.6989C2.66363 16.1323 3.18045 16.674 3.76461 17.1761C3.66944 16.3358 3.63577 15.4471 3.66944 14.5394C2.41913 13.2715 1.46749 11.7942 0.827697 10.1603C0.81452 10.1267 0.81452 10.0857 0.835017 10.052C0.86137 10.011 0.902363 9.99051 0.950677 9.99051C0.997527 9.99051 1.04584 10.0183 1.06634 10.0579C1.39283 10.825 1.80716 11.5702 2.29615 12.2745C2.71048 12.8776 3.21412 13.4208 3.70312 13.942C3.76461 13.1558 3.87295 12.3769 4.0296 11.6171C3.74411 10.8924 3.67676 10.0315 3.61527 9.27165L3.6021 9.07547C3.52597 8.12675 3.43812 7.0492 3.47912 6.0185C3.47912 5.95115 3.54061 5.88966 3.60795 5.88966C3.68262 5.88966 3.73679 5.94383 3.73679 6.0185C3.77193 6.44601 3.79828 6.88669 3.8261 7.30688C3.85245 7.80173 3.88759 8.30976 3.92712 8.80462C3.98275 9.39464 4.03692 9.88217 4.12477 10.377C4.15258 10.5132 4.17894 10.6552 4.21261 10.7899C4.2946 10.4854 4.37659 10.194 4.46443 9.90999C4.46443 9.88217 4.47175 9.84849 4.49225 9.8075C4.55374 9.61717 4.61376 9.42831 4.68843 9.2248C4.8729 8.71677 5.08959 8.18824 5.35604 7.6114C5.24038 6.83838 5.17157 6.0185 5.1584 5.16495V5.01561C5.14522 4.24991 5.13058 3.45638 5.29455 2.70385V2.69068C5.30773 2.64236 5.35604 2.60869 5.41022 2.60869C5.47024 2.60869 5.52588 2.66286 5.53173 2.72435C5.56541 3.18553 5.54637 3.65257 5.53173 4.10643C5.51856 4.42559 5.51124 4.75062 5.51856 5.06978C5.53173 5.6803 5.58005 6.30253 5.67521 6.98039C6.08222 6.18101 6.55218 5.42262 7.06753 4.72426C7.14367 4.24991 7.293 3.77409 7.43502 3.31437C7.48919 3.14454 7.54336 2.96885 7.59167 2.7917C7.61949 2.69068 7.65316 2.58819 7.67951 2.47985C7.86399 1.82249 8.05431 1.13877 8.32517 0.487258C8.33981 0.440408 8.39398 0.399414 8.45547 0.399414C8.495 0.399414 8.54331 0.419911 8.56381 0.453584C8.59016 0.487258 8.59748 0.528252 8.5843 0.575102C8.46864 1.09045 8.31931 1.61312 8.17583 2.12116C8.10848 2.35101 8.04699 2.58234 7.97965 2.81219C7.89034 3.15186 7.8025 3.50323 7.72051 3.8429C7.71465 3.86925 7.70733 3.89707 7.70001 3.92342C8.06749 3.49738 8.46132 3.09037 8.8698 2.71703C8.87712 2.70385 8.89029 2.67604 8.91079 2.657C9.97809 1.55163 11.0103 0.845954 12.0776 0.500435L12.0981 0.474081H12.1259C12.1669 0.474081 12.2005 0.494578 12.221 0.528252C12.2415 0.561925 12.2474 0.608775 12.2269 0.649769L12.2137 0.670266L12.1932 0.683443C11.9414 0.860595 11.6632 1.01579 11.3982 1.16512C11.1406 1.30713 10.8756 1.45647 10.6369 1.61898C10.1611 1.95132 9.74677 2.36419 9.43346 2.69068C9.08648 3.08305 8.76731 3.4637 8.46132 3.8429C8.67947 3.79458 8.89615 3.75505 9.10698 3.71406C9.30462 3.68039 9.51545 3.63939 9.71163 3.5984C10.3924 3.45638 11.0308 3.28655 11.6764 3.08305L11.691 3.07719H11.7115C11.7657 3.07719 11.8199 3.11672 11.8331 3.17089C11.8462 3.22653 11.8199 3.27923 11.7657 3.30705C11.1259 3.61157 10.4539 3.8019 9.88293 3.93806C9.71163 3.97759 9.5418 4.01858 9.37929 4.0669C8.94446 4.17524 8.495 4.28944 8.04699 4.37142C7.59899 4.9673 7.1832 5.57049 6.81718 6.16783C7.00019 6.09317 7.1832 6.0185 7.36767 5.94383C8.13484 5.63199 8.93714 5.31282 9.67796 4.89263C9.69846 4.87946 9.71895 4.87946 9.73945 4.87946C9.80094 4.87946 9.84779 4.92045 9.86829 4.98194C9.88293 5.03611 9.86243 5.08296 9.81412 5.11078C8.84198 5.76814 7.69415 6.32302 6.49069 6.72271C5.97388 7.63922 5.56541 8.52644 5.24038 9.43416C6.2462 8.9803 7.25933 8.43128 8.40715 7.71974C8.42765 7.70657 8.44815 7.69925 8.46864 7.69925C8.51549 7.69925 8.56381 7.73292 8.57698 7.78123C8.59016 7.82808 8.57113 7.88958 8.53013 7.91593C7.558 8.65528 6.39553 9.31997 5.07055 9.89535C4.97392 10.1735 4.90658 10.4048 4.84509 10.6274C4.58741 11.5629 4.41026 12.519 4.32242 13.4808C5.11008 12.7356 5.92557 11.9231 6.6532 10.9729C6.6737 10.9465 6.70738 10.926 6.74837 10.926C6.79668 10.926 6.83768 10.9539 6.85671 10.9934C6.87721 11.0344 6.87721 11.0827 6.85085 11.1164C6.21106 12.2203 5.24038 13.1836 4.2741 14.0577C4.18626 15.4676 4.2741 16.8702 4.5186 18.2332C4.69575 17.9828 4.8729 17.7383 5.04274 17.4938C5.72938 16.5246 6.44238 15.5218 7.03386 14.4574C7.05436 14.4164 7.09535 14.39 7.14367 14.39C7.1832 14.39 7.22419 14.4105 7.25201 14.4442C7.27836 14.4779 7.28568 14.5115 7.2725 14.5525V14.5657C6.97383 15.3387 6.52437 16.0576 6.08954 16.7281C5.56541 17.529 5.1174 18.1922 4.6489 18.8496C4.81873 19.6358 5.05591 20.4234 5.3414 21.2023C5.72206 20.728 6.09686 20.2536 6.43652 19.7456C6.62685 19.4674 6.79668 19.1687 6.96651 18.8847C7.12317 18.6197 7.28568 18.3415 7.46283 18.078V18.0634C7.48919 18.0297 7.53018 18.0092 7.57849 18.0092C7.62534 18.0092 7.67366 18.0297 7.70001 18.0707C7.72783 18.1117 7.72783 18.1585 7.70733 18.1995C7.293 19.2566 6.54486 20.4029 5.49806 21.6152C5.91971 22.6664 6.44238 23.6766 7.04118 24.6121C7.14952 24.0836 7.2725 23.5346 7.40866 22.9987C7.46283 22.7674 7.53018 22.5376 7.59167 22.3136C7.73515 21.7923 7.88448 21.2565 7.95915 20.7148C7.97233 20.6401 8.0265 20.5918 8.09531 20.5918C8.16265 20.5918 8.22414 20.646 8.23 20.7148V20.7206C8.26514 21.236 8.12166 21.7718 7.9855 22.2931C7.92548 22.5112 7.86984 22.7206 7.82885 22.9167C7.66634 23.7029 7.517 24.4086 7.39402 25.1202C7.58435 25.3852 7.82885 25.7234 8.08799 26.0425C8.54331 26.612 8.99131 27.1069 9.44664 27.5461C9.5828 26.4349 9.73945 25.3032 9.88879 24.2124C9.94296 23.8391 9.99127 23.4599 10.0454 23.0866C10.0586 23.0192 10.1143 22.9782 10.1743 22.9782C10.2489 22.9782 10.3104 23.0324 10.3104 23.1071C10.2768 24.8493 10.1274 26.4686 9.87561 27.9195C9.88879 27.9341 9.90343 27.9531 9.9166 27.981C10.3046 28.3265 10.6984 28.631 11.0996 28.896C11.4861 29.1537 11.915 29.3835 12.4114 29.5944C12.3835 29.3777 12.3631 29.1668 12.3426 28.9575C12.303 28.5841 12.262 28.205 12.2079 27.8316C12.1522 27.4392 12.0849 27.0454 12.0175 26.6589C11.956 26.3207 11.8946 25.9679 11.8462 25.615C11.8404 25.5682 11.8536 25.5272 11.8814 25.4935C11.9077 25.4598 11.9487 25.4452 11.9897 25.4452C12.0512 25.4452 12.1054 25.4862 12.1259 25.5404C12.3704 26.2929 12.5139 27.0791 12.6354 27.8243C12.7437 28.489 12.8462 29.1463 12.8799 29.7774C13.6954 30.0819 14.5255 30.2781 15.1711 30.4215C15.3541 30.4611 15.5386 30.5021 15.7275 30.5431C16.5649 30.7188 17.4272 30.9091 18.2632 31.1463C18.8957 30.9764 19.5545 30.8344 20.187 30.6983C20.8268 30.5636 21.4856 30.4215 22.1108 30.2517C22.4914 30.1492 22.8926 30.0204 23.3142 29.8652C23.3479 29.2283 23.4504 28.5841 23.5587 27.9195C23.6817 27.1816 23.8237 26.388 24.0624 25.6428C24.0829 25.5813 24.1297 25.5404 24.1985 25.5404C24.2395 25.5404 24.2791 25.5609 24.3127 25.5945C24.3406 25.6282 24.3537 25.6692 24.3479 25.7102C24.2937 26.1026 24.2249 26.5037 24.1575 26.8888C24.0961 27.2284 24.0346 27.5813 23.9877 27.9268C23.9394 28.2723 23.9057 28.631 23.8647 28.9765C23.8442 29.2078 23.8179 29.445 23.7901 29.6822C24.6187 29.3162 25.3464 28.8682 25.992 28.3192C26.0872 28.2386 26.1897 28.1508 26.2922 28.0615C26.298 28.0483 26.3127 28.0351 26.3185 28.0278C26.0608 26.5301 25.9174 24.9108 25.8837 23.2154C25.8837 23.1407 25.9452 23.0793 26.0198 23.0793C26.0872 23.0793 26.1428 23.1276 26.1487 23.1949L26.2643 24.0221C26.4283 25.208 26.5981 26.4349 26.7475 27.6413C27.481 26.9371 28.1676 26.1231 28.7869 25.2358L28.7928 25.2285C28.6713 24.5097 28.5219 23.7981 28.3579 23.0192C28.317 22.8289 28.2628 22.6327 28.2086 22.4292C28.0651 21.9007 27.9158 21.3517 27.9568 20.8231V20.8158C27.9641 20.7411 28.0256 20.6943 28.093 20.6943C28.1603 20.6943 28.2218 20.7485 28.2291 20.8158C28.2965 21.378 28.4531 21.9417 28.6098 22.4834C28.6639 22.6869 28.7254 22.8904 28.7796 23.0998C28.9158 23.6356 29.0314 24.1773 29.1471 24.7073C29.7444 23.7923 30.2612 22.7879 30.6961 21.7235C29.6288 20.4966 28.8879 19.3444 28.4809 18.3005C28.4604 18.261 28.4663 18.2127 28.4941 18.179C28.5219 18.138 28.5688 18.1175 28.6156 18.1175C28.6713 18.1175 28.7108 18.1454 28.7386 18.1863C28.9084 18.444 29.0724 18.7207 29.2276 18.9857C29.3974 19.2698 29.5687 19.5684 29.7591 19.8466C30.1251 20.3883 30.5262 20.9037 30.86 21.3107C31.1514 20.5171 31.39 19.7309 31.5599 18.9652C31.1177 18.3489 30.6551 17.6637 30.1046 16.8233C29.6697 16.1528 29.2144 15.4339 28.9216 14.6609C28.9084 14.6199 28.9084 14.5804 28.9363 14.5452C28.9567 14.5115 28.9977 14.491 29.0446 14.491C29.0856 14.491 29.1266 14.5115 29.1529 14.5452L29.1603 14.5525V14.5599C29.7591 15.6301 30.4794 16.6476 31.1719 17.63C31.3417 17.8672 31.5189 18.1117 31.6887 18.362C31.7297 18.1659 31.7634 17.9697 31.7912 17.772C31.9669 16.6139 32.0152 15.4002 31.9332 14.1733C30.9684 13.2978 29.9889 12.3286 29.3433 11.2101C29.3228 11.1764 29.3228 11.1369 29.3433 11.0959C29.3638 11.0549 29.4048 11.0271 29.4531 11.0271C29.4926 11.0271 29.5277 11.0476 29.5541 11.0827C30.2554 11.9904 31.0225 12.7634 31.8863 13.5906C31.7634 12.3564 31.5057 11.1574 31.1309 10.0037C29.8132 9.42831 28.6434 8.76362 27.664 8.02427L27.6508 8.01109C27.6171 7.97742 27.604 7.92325 27.6245 7.8764C27.6449 7.8354 27.6845 7.80759 27.7255 7.80759C27.7533 7.80759 27.7738 7.81491 27.7943 7.82808C29.0036 8.56744 29.9962 9.10329 30.9684 9.54397C30.6419 8.62893 30.2276 7.71974 29.7181 6.83252C28.5278 6.43869 27.3726 5.88234 26.38 5.2118C26.3317 5.17812 26.3127 5.11663 26.3317 5.06978C26.3522 5.01561 26.4005 4.98194 26.4473 4.98194C26.4752 4.98194 26.4957 4.9878 26.5162 5.00244C27.2497 5.40798 28.0315 5.72715 28.7869 6.03168C28.9831 6.11366 29.1866 6.19419 29.3843 6.27617C29.0168 5.6803 28.6024 5.07564 28.1471 4.47245C27.6581 4.3846 27.1691 4.26308 26.6933 4.14157C26.563 4.10643 26.4283 4.07276 26.298 4.03908C25.7343 3.90439 25.0682 3.71992 24.4152 3.40953H24.4094L24.402 3.40221C24.3537 3.36854 24.3332 3.31437 24.3537 3.2602C24.3684 3.20603 24.4152 3.17089 24.4694 3.17089H24.484L24.5045 3.17821C25.1429 3.36854 25.7812 3.53691 26.4678 3.69356C26.6523 3.73456 26.8485 3.76823 27.033 3.8019C27.257 3.8429 27.4883 3.88975 27.7196 3.93806C27.4136 3.5574 27.0945 3.17821 26.7475 2.78584C26.3185 2.32466 25.9378 1.985 25.5499 1.71415C25.3127 1.55163 25.055 1.4023 24.7959 1.26614C24.5309 1.11827 24.2527 0.968936 23.9936 0.785927C23.9526 0.75811 23.9335 0.71126 23.9467 0.662946C23.9599 0.608776 24.0082 0.567782 24.0682 0.567782H24.0829L24.0961 0.575102C25.1765 0.927942 26.2175 1.63362 27.2701 2.73753C27.2906 2.75802 27.3038 2.77852 27.3111 2.79902C27.7123 3.15771 28.1003 3.5574 28.4809 4.00541C28.4809 3.99223 28.4736 3.97759 28.4736 3.96441C28.3858 3.61157 28.2965 3.25288 28.2013 2.90004C28.1398 2.67604 28.0798 2.4535 28.011 2.2295C27.8689 1.72147 27.7196 1.19294 27.5966 0.662946C27.5835 0.623416 27.5966 0.582422 27.6171 0.548749C27.6449 0.515076 27.6845 0.494578 27.7255 0.494578C27.787 0.494578 27.8411 0.534108 27.8558 0.588279C28.1003 1.19879 28.2906 1.8503 28.4663 2.47985C28.5073 2.61601 28.541 2.7507 28.5819 2.87954C28.6303 3.04205 28.6771 3.20603 28.7313 3.36122C28.8748 3.82972 29.0241 4.30993 29.1061 4.79893C29.6156 5.48997 30.0841 6.2425 30.4999 7.0492C30.5877 6.41233 30.6346 5.76814 30.6492 5.14445C30.6551 4.81211 30.6492 4.46659 30.6346 4.13425C30.6214 3.69356 30.6082 3.24556 30.6346 2.79902C30.6346 2.73753 30.6902 2.68336 30.7575 2.68336C30.819 2.68336 30.8659 2.72435 30.8732 2.78584" fill="white"/>
</g>
<path fill-rule="evenodd" clip-rule="evenodd" d="M10.4004 7.88516V18.4009C10.4005 19.2402 11.139 21.9555 14.7338 23.9796C17.5235 25.5505 18.0021 25.8145 18.0765 25.854L18.0765 25.8581C18.0765 25.8581 18.0663 25.8642 18.0812 25.8565C18.0961 25.8642 18.0858 25.8581 18.0858 25.8581L18.0858 25.854C18.1603 25.8145 18.6389 25.5505 21.4286 23.9796C25.0233 21.9555 25.7619 19.2402 25.762 18.4009V7.88516C22.2224 8.73746 20.4036 8.81142 18.0893 7.59737L18.0893 7.58887L18.0812 7.59312L18.0731 7.58887L18.0731 7.59737C15.7588 8.81142 13.94 8.73745 10.4004 7.88516ZM22.858 12.1952V13.701H22.719H20.048C19.6309 13.701 19.4053 13.9249 19.4036 14.3399C19.4025 14.5637 19.4028 14.7873 19.4036 15.0111C19.4053 15.5428 19.7639 15.9125 20.2936 15.8986C20.8491 15.8842 21.3651 15.9923 21.8303 16.3068C22.6253 16.8448 23.0153 17.8232 22.8092 18.7654C22.6099 19.6767 21.8422 20.4143 20.9192 20.5723C20.7455 20.6019 20.5673 20.6183 20.3911 20.6191C19.7202 20.6225 19.0492 20.6221 18.3783 20.6217L17.7073 20.6214H17.5486V19.0958H17.6947L18.441 19.096C19.1248 19.0962 19.8085 19.0964 20.4923 19.0951C20.9152 19.0943 21.2889 18.7692 21.336 18.3666C21.3862 17.9384 21.119 17.5485 20.6959 17.4475C20.5911 17.4224 20.4782 17.4219 20.3693 17.4244C19.7502 17.4381 19.1929 17.2677 18.7197 16.8626C18.215 16.4306 17.9236 15.8796 17.8955 15.2137C17.8767 14.7678 17.858 14.3135 17.9205 13.8745C18.0583 12.9027 18.845 12.2152 19.8287 12.1935C20.5211 12.1782 21.2139 12.1819 21.9068 12.1856C22.2058 12.1872 22.5047 12.1888 22.8036 12.1889C22.8144 12.1889 22.8251 12.1905 22.8378 12.1924C22.844 12.1933 22.8505 12.1943 22.8578 12.1952H22.858ZM17.2224 19.0645V19.0643L17.2226 19.0646C17.2226 19.0645 17.2225 19.0645 17.2224 19.0645ZM17.2224 20.6139V19.0645C17.2102 19.0619 17.1997 19.0597 17.1903 19.0577C17.1754 19.0545 17.163 19.0518 17.1505 19.0494C15.4221 18.7116 14.4698 16.7885 15.2654 15.2194C15.71 14.3425 16.4344 13.8445 17.4138 13.7316C17.5293 13.7184 17.583 13.6842 17.6146 13.5634C17.7463 13.0588 18.0195 12.6405 18.4246 12.3101C18.4513 12.2883 18.4772 12.2655 18.5088 12.2376C18.5246 12.2238 18.5417 12.2087 18.5611 12.1918C18.4772 12.1918 18.3962 12.192 18.3172 12.1923C18.1476 12.1927 17.987 12.1932 17.8265 12.1913C17.3682 12.186 16.9175 12.2341 16.477 12.3655C14.4369 12.9729 13.141 15.0224 13.5251 17.1088C13.8358 18.7957 14.8456 19.9052 16.4714 20.4455C16.6345 20.4997 16.8049 20.5321 16.9782 20.5651C17.0591 20.5805 17.1407 20.596 17.2224 20.6139Z" fill="#FF2231"/>
<path d="M51.1303 9.17782H49.3971C49.3476 8.89357 49.2565 8.64177 49.1236 8.4224C48.9908 8.19995 48.8255 8.01148 48.6277 7.857C48.43 7.70252 48.2045 7.58665 47.9511 7.50941C47.7008 7.42908 47.4305 7.38892 47.1401 7.38892C46.6241 7.38892 46.1668 7.51868 45.7683 7.77821C45.3697 8.03465 45.0576 8.41159 44.8321 8.90902C44.6066 9.40337 44.4938 10.0074 44.4938 10.7211C44.4938 11.4472 44.6066 12.0589 44.8321 12.5564C45.0607 13.0507 45.3728 13.4245 45.7683 13.6779C46.1668 13.9282 46.6226 14.0533 47.1354 14.0533C47.4197 14.0533 47.6854 14.0162 47.9326 13.9421C48.1828 13.8648 48.4068 13.752 48.6046 13.6037C48.8054 13.4554 48.9738 13.2731 49.1097 13.0569C49.2488 12.8406 49.3445 12.5934 49.3971 12.3154L51.1303 12.3246C51.0655 12.7757 50.9249 13.199 50.7086 13.5945C50.4954 13.9899 50.2158 14.3391 49.8698 14.6419C49.5237 14.9416 49.119 15.1764 48.6555 15.3463C48.1921 15.5131 47.6777 15.5966 47.1123 15.5966C46.2781 15.5966 45.5335 15.4035 44.8784 15.0173C44.2234 14.631 43.7075 14.0734 43.3305 13.3442C42.9536 12.6151 42.7651 11.7407 42.7651 10.7211C42.7651 9.69843 42.9551 8.82406 43.3352 8.09799C43.7152 7.36883 44.2327 6.81115 44.8877 6.42495C45.5427 6.03874 46.2842 5.84564 47.1123 5.84564C47.6406 5.84564 48.1318 5.91979 48.586 6.06809C49.0402 6.2164 49.4449 6.43422 49.8003 6.72155C50.1556 7.0058 50.4475 7.35493 50.6762 7.76894C50.9079 8.17987 51.0593 8.64949 51.1303 9.17782ZM55.7359 15.6058C55.0407 15.6058 54.4382 15.4529 53.9284 15.147C53.4186 14.8411 53.0231 14.4132 52.742 13.8633C52.4639 13.3133 52.3249 12.6707 52.3249 11.9353C52.3249 11.2 52.4639 10.5558 52.742 10.0028C53.0231 9.44971 53.4186 9.02025 53.9284 8.71438C54.4382 8.4085 55.0407 8.25556 55.7359 8.25556C56.431 8.25556 57.0335 8.4085 57.5433 8.71438C58.0531 9.02025 58.447 9.44971 58.7251 10.0028C59.0062 10.5558 59.1468 11.2 59.1468 11.9353C59.1468 12.6707 59.0062 13.3133 58.7251 13.8633C58.447 14.4132 58.0531 14.8411 57.5433 15.147C57.0335 15.4529 56.431 15.6058 55.7359 15.6058ZM55.7451 14.2618C56.1221 14.2618 56.4372 14.1583 56.6906 13.9513C56.9439 13.7412 57.1324 13.4601 57.256 13.1079C57.3826 12.7556 57.446 12.3632 57.446 11.9307C57.446 11.4951 57.3826 11.1011 57.256 10.7489C57.1324 10.3936 56.9439 10.1109 56.6906 9.9008C56.4372 9.6907 56.1221 9.58566 55.7451 9.58566C55.3589 9.58566 55.0376 9.6907 54.7812 9.9008C54.5278 10.1109 54.3378 10.3936 54.2111 10.7489C54.0875 11.1011 54.0257 11.4951 54.0257 11.9307C54.0257 12.3632 54.0875 12.7556 54.2111 13.1079C54.3378 13.4601 54.5278 13.7412 54.7812 13.9513C55.0376 14.1583 55.3589 14.2618 55.7451 14.2618ZM62.2484 5.9754V15.4668H60.5708V5.9754H62.2484ZM65.6513 5.9754V15.4668H63.9736V5.9754H65.6513ZM70.5279 15.6058C69.8142 15.6058 69.1978 15.4575 68.6788 15.1609C68.1628 14.8612 67.7658 14.4379 67.4877 13.8911C67.2096 13.3411 67.0706 12.6938 67.0706 11.9492C67.0706 11.217 67.2096 10.5743 67.4877 10.0213C67.7689 9.46516 68.1613 9.03261 68.6649 8.72364C69.1685 8.41159 69.7601 8.25556 70.4399 8.25556C70.8786 8.25556 71.2926 8.32662 71.6819 8.46875C72.0743 8.60778 72.4203 8.82406 72.72 9.11757C73.0228 9.41109 73.2607 9.78494 73.4337 10.2391C73.6068 10.6902 73.6933 11.2278 73.6933 11.8519V12.3663H67.8585V11.2355H72.0851C72.082 10.9142 72.0125 10.6284 71.8766 10.3781C71.7406 10.1248 71.5506 9.92552 71.3065 9.7803C71.0655 9.63509 70.7844 9.56248 70.463 9.56248C70.1201 9.56248 69.8188 9.6459 69.5593 9.81274C69.2998 9.9765 69.0974 10.1928 68.9522 10.4616C68.8101 10.7273 68.7375 11.0193 68.7344 11.3375V12.3246C68.7344 12.7386 68.8101 13.0939 68.9615 13.3906C69.1129 13.6841 69.3245 13.9096 69.5964 14.0672C69.8683 14.2217 70.1865 14.2989 70.5511 14.2989C70.7952 14.2989 71.0161 14.2649 71.2138 14.197C71.4116 14.1259 71.583 14.0224 71.7282 13.8864C71.8735 13.7505 71.9831 13.5821 72.0573 13.3813L73.6237 13.5574C73.5249 13.9714 73.3364 14.3329 73.0583 14.6419C72.7834 14.9477 72.4311 15.1856 72.0017 15.3556C71.5722 15.5224 71.081 15.6058 70.5279 15.6058ZM78.2084 18.2846C77.6059 18.2846 77.0884 18.2027 76.6558 18.0389C76.2233 17.8783 75.8757 17.662 75.6131 17.3901C75.3505 17.1182 75.1682 16.817 75.0662 16.4864L76.5771 16.1203C76.645 16.2593 76.7439 16.3968 76.8737 16.5327C77.0034 16.6718 77.178 16.7861 77.3974 16.8757C77.6198 16.9684 77.8994 17.0147 78.2362 17.0147C78.712 17.0147 79.1059 16.8988 79.418 16.6671C79.73 16.4385 79.8861 16.0616 79.8861 15.5363V14.1877H79.8027C79.7161 14.3607 79.5895 14.5384 79.4226 14.7206C79.2589 14.9029 79.0411 15.0559 78.7692 15.1795C78.5004 15.303 78.162 15.3648 77.7542 15.3648C77.2073 15.3648 76.7115 15.2366 76.2666 14.9802C75.8247 14.7206 75.4725 14.3344 75.2099 13.8216C74.9504 13.3056 74.8206 12.6599 74.8206 11.8844C74.8206 11.1027 74.9504 10.443 75.2099 9.90543C75.4725 9.36475 75.8263 8.95537 76.2712 8.6773C76.7161 8.39614 77.212 8.25556 77.7589 8.25556C78.176 8.25556 78.5189 8.32662 78.7877 8.46875C79.0596 8.60778 79.2759 8.77617 79.4365 8.97391C79.5972 9.16855 79.7192 9.35239 79.8027 9.52541H79.8953V8.34825H81.5498V15.5827C81.5498 16.1913 81.4046 16.6949 81.1142 17.0935C80.8238 17.4921 80.4268 17.7902 79.9231 17.9879C79.4195 18.1857 78.848 18.2846 78.2084 18.2846ZM78.2223 14.0486C78.5776 14.0486 78.8804 13.9621 79.1307 13.7891C79.3809 13.6161 79.5709 13.3674 79.7007 13.043C79.8305 12.7186 79.8953 12.3293 79.8953 11.8751C79.8953 11.4271 79.8305 11.0347 79.7007 10.6979C79.574 10.3612 79.3855 10.1001 79.1353 9.9147C78.8881 9.72623 78.5838 9.632 78.2223 9.632C77.8485 9.632 77.5364 9.72932 77.2861 9.92397C77.0359 10.1186 76.8474 10.3859 76.7207 10.7257C76.5941 11.0625 76.5307 11.4456 76.5307 11.8751C76.5307 12.3107 76.5941 12.6923 76.7207 13.0198C76.8505 13.3442 77.0405 13.5976 77.2908 13.7798C77.5441 13.959 77.8546 14.0486 78.2223 14.0486ZM86.4207 15.6058C85.707 15.6058 85.0906 15.4575 84.5715 15.1609C84.0555 14.8612 83.6585 14.4379 83.3805 13.8911C83.1024 13.3411 82.9634 12.6938 82.9634 11.9492C82.9634 11.217 83.1024 10.5743 83.3805 10.0213C83.6616 9.46516 84.054 9.03261 84.5576 8.72364C85.0612 8.41159 85.6529 8.25556 86.3326 8.25556C86.7713 8.25556 87.1854 8.32662 87.5747 8.46875C87.967 8.60778 88.3131 8.82406 88.6128 9.11757C88.9156 9.41109 89.1535 9.78494 89.3265 10.2391C89.4995 10.6902 89.586 11.2278 89.586 11.8519V12.3663H83.7512V11.2355H87.9779C87.9748 10.9142 87.9052 10.6284 87.7693 10.3781C87.6334 10.1248 87.4433 9.92552 87.1993 9.7803C86.9583 9.63509 86.6771 9.56248 86.3558 9.56248C86.0128 9.56248 85.7116 9.6459 85.4521 9.81274C85.1925 9.9765 84.9902 10.1928 84.845 10.4616C84.7028 10.7273 84.6302 11.0193 84.6271 11.3375V12.3246C84.6271 12.7386 84.7028 13.0939 84.8542 13.3906C85.0056 13.6841 85.2173 13.9096 85.4891 14.0672C85.761 14.2217 86.0793 14.2989 86.4438 14.2989C86.6879 14.2989 86.9088 14.2649 87.1066 14.197C87.3043 14.1259 87.4758 14.0224 87.621 13.8864C87.7662 13.7505 87.8759 13.5821 87.95 13.3813L89.5165 13.5574C89.4176 13.9714 89.2292 14.3329 88.9511 14.6419C88.6761 14.9477 88.3239 15.1856 87.8944 15.3556C87.465 15.5224 86.9737 15.6058 86.4207 15.6058ZM96.2376 8.58461C96.1944 8.17987 96.0121 7.86472 95.6908 7.63918C95.3725 7.41363 94.9585 7.30086 94.4487 7.30086C94.0903 7.30086 93.7829 7.35493 93.5265 7.46307C93.27 7.57121 93.0738 7.71796 92.9379 7.90334C92.802 8.08872 92.7324 8.30036 92.7293 8.53827C92.7293 8.736 92.7741 8.90748 92.8637 9.05269C92.9564 9.1979 93.0816 9.32149 93.2391 9.42345C93.3967 9.52232 93.5713 9.60574 93.7628 9.67371C93.9544 9.74168 94.1475 9.79884 94.3421 9.84519L95.232 10.0676C95.5904 10.1511 95.9349 10.2638 96.2654 10.406C96.5991 10.5481 96.8973 10.7273 97.1599 10.9436C97.4256 11.1598 97.6357 11.4209 97.7902 11.7268C97.9447 12.0327 98.0219 12.3911 98.0219 12.802C98.0219 13.3581 97.8798 13.8478 97.5955 14.2711C97.3113 14.6913 96.9004 15.0203 96.3628 15.2582C95.8283 15.4931 95.181 15.6105 94.4209 15.6105C93.6825 15.6105 93.0414 15.4961 92.4976 15.2675C91.9569 15.0389 91.5337 14.7052 91.2278 14.2665C90.925 13.8277 90.7612 13.2932 90.7365 12.6629H92.4281C92.4528 12.9935 92.5548 13.2685 92.734 13.4879C92.9132 13.7072 93.1464 13.871 93.4338 13.9791C93.7242 14.0873 94.0486 14.1413 94.407 14.1413C94.7809 14.1413 95.1084 14.0857 95.3895 13.9745C95.6738 13.8602 95.8962 13.7026 96.0569 13.5018C96.2176 13.2979 96.2994 13.06 96.3025 12.7881C96.2994 12.5409 96.2268 12.337 96.0847 12.1763C95.9426 12.0126 95.7433 11.8766 95.4869 11.7685C95.2335 11.6573 94.9369 11.5584 94.597 11.4719L93.5172 11.1938C92.7355 10.993 92.1176 10.6887 91.6634 10.2808C91.2123 9.8699 90.9868 9.32458 90.9868 8.64486C90.9868 8.08563 91.1382 7.59592 91.441 7.17573C91.7468 6.75554 92.1624 6.42958 92.6876 6.19786C93.2129 5.96305 93.8076 5.84564 94.4719 5.84564C95.1454 5.84564 95.7356 5.96305 96.2423 6.19786C96.7521 6.42958 97.1522 6.75245 97.4426 7.16646C97.733 7.57739 97.8829 8.0501 97.8921 8.58461H96.2376ZM101.158 11.2958V15.4668H99.4806V5.9754H101.121V9.55785H101.205C101.371 9.15619 101.629 8.83951 101.979 8.60778C102.331 8.37297 102.779 8.25556 103.323 8.25556C103.817 8.25556 104.248 8.35907 104.616 8.56607C104.983 8.77308 105.268 9.07586 105.468 9.47443C105.672 9.87299 105.774 10.3596 105.774 10.9343V15.4668H104.097V11.1938C104.097 10.7149 103.973 10.3426 103.726 10.0769C103.482 9.80811 103.139 9.67371 102.697 9.67371C102.4 9.67371 102.135 9.73859 101.9 9.86836C101.668 9.99503 101.486 10.1789 101.353 10.4199C101.223 10.6609 101.158 10.9528 101.158 11.2958ZM109.533 15.6105C109.082 15.6105 108.675 15.5301 108.314 15.3695C107.956 15.2057 107.671 14.9647 107.461 14.6465C107.254 14.3283 107.151 13.9359 107.151 13.4693C107.151 13.0677 107.225 12.7355 107.373 12.4729C107.521 12.2103 107.724 12.0002 107.98 11.8426C108.237 11.6851 108.526 11.5661 108.847 11.4858C109.171 11.4024 109.507 11.3421 109.853 11.305C110.27 11.2618 110.608 11.2232 110.867 11.1892C111.127 11.1521 111.315 11.0965 111.433 11.0223C111.553 10.9451 111.614 10.8261 111.614 10.6655V10.6377C111.614 10.2886 111.51 10.0182 111.303 9.82665C111.096 9.63509 110.798 9.53931 110.409 9.53931C109.998 9.53931 109.672 9.62891 109.431 9.80811C109.193 9.98731 109.032 10.199 108.949 10.443L107.382 10.2206C107.506 9.78803 107.71 9.42654 107.994 9.13611C108.278 8.8426 108.626 8.62323 109.037 8.47802C109.448 8.32971 109.902 8.25556 110.399 8.25556C110.742 8.25556 111.084 8.29573 111.424 8.37606C111.763 8.45639 112.074 8.58924 112.355 8.77462C112.636 8.95691 112.862 9.20563 113.032 9.52077C113.205 9.83592 113.291 10.2298 113.291 10.7026V15.4668H111.679V14.4889H111.623C111.521 14.6867 111.377 14.872 111.192 15.0451C111.01 15.215 110.779 15.3525 110.501 15.4575C110.226 15.5595 109.904 15.6105 109.533 15.6105ZM109.968 14.3777C110.305 14.3777 110.597 14.3113 110.844 14.1784C111.091 14.0425 111.282 13.8633 111.414 13.6408C111.55 13.4184 111.618 13.1758 111.618 12.9132V12.0744C111.566 12.1176 111.476 12.1578 111.349 12.1949C111.226 12.2319 111.087 12.2644 110.932 12.2922C110.778 12.32 110.625 12.3447 110.474 12.3663C110.322 12.388 110.191 12.4065 110.08 12.422C109.829 12.4559 109.605 12.5116 109.408 12.5888C109.21 12.666 109.054 12.7742 108.94 12.9132C108.825 13.0491 108.768 13.2253 108.768 13.4415C108.768 13.7505 108.881 13.9838 109.106 14.1413C109.332 14.2989 109.619 14.3777 109.968 14.3777ZM117.027 15.6105C116.576 15.6105 116.169 15.5301 115.808 15.3695C115.449 15.2057 115.165 14.9647 114.955 14.6465C114.748 14.3283 114.645 13.9359 114.645 13.4693C114.645 13.0677 114.719 12.7355 114.867 12.4729C115.015 12.2103 115.218 12.0002 115.474 11.8426C115.731 11.6851 116.019 11.5661 116.341 11.4858C116.665 11.4024 117 11.3421 117.346 11.305C117.764 11.2618 118.102 11.2232 118.361 11.1892C118.621 11.1521 118.809 11.0965 118.927 11.0223C119.047 10.9451 119.108 10.8261 119.108 10.6655V10.6377C119.108 10.2886 119.004 10.0182 118.797 9.82665C118.59 9.63509 118.292 9.53931 117.903 9.53931C117.492 9.53931 117.166 9.62891 116.925 9.80811C116.687 9.98731 116.526 10.199 116.443 10.443L114.876 10.2206C115 9.78803 115.204 9.42654 115.488 9.13611C115.772 8.8426 116.12 8.62323 116.531 8.47802C116.942 8.32971 117.396 8.25556 117.893 8.25556C118.236 8.25556 118.578 8.29573 118.918 8.37606C119.257 8.45639 119.568 8.58924 119.849 8.77462C120.13 8.95691 120.356 9.20563 120.526 9.52077C120.699 9.83592 120.785 10.2298 120.785 10.7026V15.4668H119.172V14.4889H119.117C119.015 14.6867 118.871 14.872 118.686 15.0451C118.504 15.215 118.273 15.3525 117.995 15.4575C117.72 15.5595 117.397 15.6105 117.027 15.6105ZM117.462 14.3777C117.799 14.3777 118.091 14.3113 118.338 14.1784C118.585 14.0425 118.775 13.8633 118.908 13.6408C119.044 13.4184 119.112 13.1758 119.112 12.9132V12.0744C119.06 12.1176 118.97 12.1578 118.843 12.1949C118.72 12.2319 118.581 12.2644 118.426 12.2922C118.272 12.32 118.119 12.3447 117.968 12.3663C117.816 12.388 117.685 12.4065 117.574 12.422C117.323 12.4559 117.099 12.5116 116.902 12.5888C116.704 12.666 116.548 12.7742 116.433 12.9132C116.319 13.0491 116.262 13.2253 116.262 13.4415C116.262 13.7505 116.375 13.9838 116.6 14.1413C116.826 14.2989 117.113 14.3777 117.462 14.3777ZM124.15 5.9754V15.4668H122.472V5.9754H124.15ZM127.924 15.6105C127.472 15.6105 127.066 15.5301 126.705 15.3695C126.346 15.2057 126.062 14.9647 125.852 14.6465C125.645 14.3283 125.541 13.9359 125.541 13.4693C125.541 13.0677 125.616 12.7355 125.764 12.4729C125.912 12.2103 126.115 12.0002 126.371 11.8426C126.627 11.6851 126.916 11.5661 127.238 11.4858C127.562 11.4024 127.897 11.3421 128.243 11.305C128.66 11.2618 128.999 11.2232 129.258 11.1892C129.518 11.1521 129.706 11.0965 129.824 11.0223C129.944 10.9451 130.004 10.8261 130.004 10.6655V10.6377C130.004 10.2886 129.901 10.0182 129.694 9.82665C129.487 9.63509 129.189 9.53931 128.799 9.53931C128.388 9.53931 128.063 9.62891 127.822 9.80811C127.584 9.98731 127.423 10.199 127.34 10.443L125.773 10.2206C125.897 9.78803 126.101 9.42654 126.385 9.13611C126.669 8.8426 127.017 8.62323 127.428 8.47802C127.839 8.32971 128.293 8.25556 128.79 8.25556C129.133 8.25556 129.475 8.29573 129.814 8.37606C130.154 8.45639 130.465 8.58924 130.746 8.77462C131.027 8.95691 131.253 9.20563 131.423 9.52077C131.596 9.83592 131.682 10.2298 131.682 10.7026V15.4668H130.069V14.4889H130.014C129.912 14.6867 129.768 14.872 129.583 15.0451C129.4 15.215 129.17 15.3525 128.892 15.4575C128.617 15.5595 128.294 15.6105 127.924 15.6105ZM128.359 14.3777C128.696 14.3777 128.988 14.3113 129.235 14.1784C129.482 14.0425 129.672 13.8633 129.805 13.6408C129.941 13.4184 130.009 13.1758 130.009 12.9132V12.0744C129.956 12.1176 129.867 12.1578 129.74 12.1949C129.617 12.2319 129.478 12.2644 129.323 12.2922C129.169 12.32 129.016 12.3447 128.864 12.3663C128.713 12.388 128.582 12.4065 128.47 12.422C128.22 12.4559 127.996 12.5116 127.798 12.5888C127.601 12.666 127.445 12.7742 127.33 12.9132C127.216 13.0491 127.159 13.2253 127.159 13.4415C127.159 13.7505 127.272 13.9838 127.497 14.1413C127.723 14.2989 128.01 14.3777 128.359 14.3777Z" fill="white"/>
<path d="M43.5262 29.5312V24.1076H44.318V26.1229H44.3657C44.4116 26.0382 44.4778 25.9402 44.5643 25.829C44.6508 25.7177 44.7708 25.6206 44.9244 25.5377C45.078 25.4529 45.2811 25.4105 45.5335 25.4105C45.8619 25.4105 46.155 25.4935 46.4128 25.6595C46.6705 25.8254 46.8727 26.0647 47.0192 26.3772C47.1675 26.6897 47.2417 27.0657 47.2417 27.5053C47.2417 27.9449 47.1684 28.3219 47.0219 28.6361C46.8753 28.9486 46.6741 29.1896 46.4181 29.3591C46.1621 29.5268 45.8699 29.6107 45.5415 29.6107C45.2943 29.6107 45.0922 29.5692 44.935 29.4862C44.7797 29.4033 44.6579 29.3061 44.5696 29.1949C44.4813 29.0837 44.4133 28.9848 44.3657 28.8983H44.2995V29.5312H43.5262ZM44.3021 27.4974C44.3021 27.7834 44.3436 28.0341 44.4266 28.2495C44.5096 28.4649 44.6296 28.6335 44.7867 28.7553C44.9439 28.8754 45.1363 28.9354 45.3641 28.9354C45.6006 28.9354 45.7984 28.8727 45.9573 28.7474C46.1162 28.6202 46.2362 28.4481 46.3174 28.231C46.4004 28.0138 46.4419 27.7693 46.4419 27.4974C46.4419 27.229 46.4013 26.988 46.3201 26.7744C46.2406 26.5608 46.1206 26.3922 45.9599 26.2686C45.801 26.145 45.6024 26.0832 45.3641 26.0832C45.1345 26.0832 44.9403 26.1424 44.7814 26.2606C44.6243 26.3789 44.5051 26.544 44.4239 26.7559C44.3427 26.9677 44.3021 27.2149 44.3021 27.4974ZM48.493 31.0567C48.3747 31.0567 48.267 31.0469 48.1699 31.0275C48.0728 31.0099 48.0004 30.9904 47.9527 30.9693L48.1434 30.3204C48.2882 30.3593 48.4171 30.376 48.5301 30.3708C48.6431 30.3655 48.7428 30.3231 48.8293 30.2436C48.9176 30.1642 48.9953 30.0344 49.0624 29.8543L49.1604 29.5842L47.672 25.4635H48.5195L49.5496 28.6202H49.592L50.6222 25.4635H51.4723L49.7959 30.0741C49.7183 30.286 49.6194 30.4652 49.4993 30.6117C49.3793 30.76 49.2363 30.8713 49.0703 30.9454C48.9044 31.0196 48.7119 31.0567 48.493 31.0567ZM54.2536 29.5312V24.1076H57.6169V24.812H55.0719V26.4646H57.3759V27.1663H55.0719V29.5312H54.2536ZM60.8816 27.8443V25.4635H61.6761V29.5312H60.8975V28.8268H60.8551C60.7615 29.044 60.6115 29.2249 60.4049 29.3697C60.2001 29.5127 59.945 29.5842 59.6395 29.5842C59.3782 29.5842 59.147 29.5268 58.9457 29.4121C58.7462 29.2956 58.5891 29.1234 58.4743 28.8957C58.3613 28.6679 58.3048 28.3863 58.3048 28.0509V25.4635H59.0967V27.9555C59.0967 28.2327 59.1734 28.4534 59.327 28.6176C59.4806 28.7818 59.6802 28.8639 59.9256 28.8639C60.0739 28.8639 60.2213 28.8268 60.3678 28.7527C60.5161 28.6785 60.6388 28.5664 60.7359 28.4163C60.8348 28.2663 60.8833 28.0756 60.8816 27.8443ZM63.5318 27.116V29.5312H62.74V25.4635H63.5001V26.1256H63.5504C63.6439 25.9102 63.7905 25.7372 63.99 25.6065C64.1913 25.4759 64.4446 25.4105 64.75 25.4105C65.0272 25.4105 65.27 25.4688 65.4783 25.5853C65.6866 25.7001 65.8482 25.8713 65.9629 26.0991C66.0777 26.3268 66.1351 26.6084 66.1351 26.9439V29.5312H65.3433V27.0392C65.3433 26.7444 65.2665 26.514 65.1129 26.348C64.9593 26.1803 64.7483 26.0964 64.4799 26.0964C64.2963 26.0964 64.133 26.1362 63.99 26.2156C63.8487 26.2951 63.7366 26.4116 63.6537 26.5652C63.5724 26.717 63.5318 26.9006 63.5318 27.116ZM68.9105 29.6133C68.5168 29.6133 68.1778 29.5242 67.8935 29.3459C67.6111 29.1658 67.3939 28.9177 67.2421 28.6017C67.0902 28.2857 67.0143 27.9238 67.0143 27.5159C67.0143 27.1028 67.092 26.7382 67.2474 26.4222C67.4027 26.1044 67.6216 25.8563 67.9041 25.678C68.1866 25.4997 68.5194 25.4105 68.9025 25.4105C69.2115 25.4105 69.4869 25.4679 69.7288 25.5827C69.9707 25.6957 70.1657 25.8546 70.3141 26.0594C70.4641 26.2642 70.5533 26.5034 70.5815 26.7771H69.8109C69.7685 26.5864 69.6714 26.4222 69.5196 26.2845C69.3695 26.1468 69.1682 26.0779 68.9158 26.0779C68.6951 26.0779 68.5018 26.1362 68.3358 26.2527C68.1716 26.3675 68.0436 26.5316 67.9518 26.7453C67.86 26.9571 67.8141 27.2078 67.8141 27.4974C67.8141 27.794 67.8591 28.05 67.9491 28.2654C68.0392 28.4808 68.1663 28.6476 68.3305 28.7659C68.4965 28.8842 68.6915 28.9433 68.9158 28.9433C69.0658 28.9433 69.2018 28.916 69.3236 28.8612C69.4472 28.8047 69.5505 28.7244 69.6334 28.6202C69.7182 28.5161 69.7773 28.3907 69.8109 28.2442H70.5815C70.5533 28.5073 70.4676 28.7421 70.3246 28.9486C70.1816 29.1552 69.9901 29.3176 69.75 29.4359C69.5116 29.5542 69.2318 29.6133 68.9105 29.6133ZM73.3271 25.4635V26.0991H71.1052V25.4635H73.3271ZM71.7011 24.4889H72.4929V28.3369C72.4929 28.4905 72.5159 28.6061 72.5618 28.6838C72.6077 28.7597 72.6668 28.8118 72.7392 28.8401C72.8134 28.8665 72.8937 28.8798 72.9802 28.8798C73.0438 28.8798 73.0994 28.8754 73.147 28.8665C73.1947 28.8577 73.2318 28.8506 73.2583 28.8453L73.4013 29.4995C73.3554 29.5171 73.29 29.5348 73.2053 29.5524C73.1206 29.5719 73.0146 29.5824 72.8875 29.5842C72.6792 29.5877 72.485 29.5507 72.3049 29.473C72.1248 29.3953 71.9791 29.2753 71.8679 29.1128C71.7567 28.9504 71.7011 28.7465 71.7011 28.5011V24.4889ZM74.203 29.5312V25.4635H74.9949V29.5312H74.203ZM74.6029 24.8359C74.4652 24.8359 74.3469 24.79 74.2481 24.6982C74.1509 24.6046 74.1024 24.4934 74.1024 24.3645C74.1024 24.2338 74.1509 24.1226 74.2481 24.0308C74.3469 23.9372 74.4652 23.8904 74.6029 23.8904C74.7406 23.8904 74.858 23.9372 74.9551 24.0308C75.054 24.1226 75.1034 24.2338 75.1034 24.3645C75.1034 24.4934 75.054 24.6046 74.9551 24.6982C74.858 24.79 74.7406 24.8359 74.6029 24.8359ZM77.7736 29.6133C77.3922 29.6133 77.0594 29.526 76.7752 29.3512C76.4909 29.1764 76.2702 28.9319 76.1131 28.6176C75.956 28.3033 75.8774 27.9361 75.8774 27.5159C75.8774 27.094 75.956 26.725 76.1131 26.4089C76.2702 26.0929 76.4909 25.8475 76.7752 25.6727C77.0594 25.4979 77.3922 25.4105 77.7736 25.4105C78.1549 25.4105 78.4877 25.4979 78.772 25.6727C79.0562 25.8475 79.2769 26.0929 79.434 26.4089C79.5911 26.725 79.6697 27.094 79.6697 27.5159C79.6697 27.9361 79.5911 28.3033 79.434 28.6176C79.2769 28.9319 79.0562 29.1764 78.772 29.3512C78.4877 29.526 78.1549 29.6133 77.7736 29.6133ZM77.7762 28.9486C78.0234 28.9486 78.2282 28.8833 78.3906 28.7527C78.553 28.622 78.6731 28.4481 78.7508 28.231C78.8302 28.0138 78.8699 27.7746 78.8699 27.5133C78.8699 27.2537 78.8302 27.0154 78.7508 26.7982C78.6731 26.5793 78.553 26.4036 78.3906 26.2712C78.2282 26.1388 78.0234 26.0726 77.7762 26.0726C77.5273 26.0726 77.3207 26.1388 77.1565 26.2712C76.9941 26.4036 76.8731 26.5793 76.7937 26.7982C76.716 27.0154 76.6772 27.2537 76.6772 27.5133C76.6772 27.7746 76.716 28.0138 76.7937 28.231C76.8731 28.4481 76.9941 28.622 77.1565 28.7527C77.3207 28.8833 77.5273 28.9486 77.7762 28.9486ZM81.3454 27.116V29.5312H80.5536V25.4635H81.3136V26.1256H81.3639C81.4575 25.9102 81.6041 25.7372 81.8036 25.6065C82.0048 25.4759 82.2582 25.4105 82.5636 25.4105C82.8408 25.4105 83.0836 25.4688 83.2919 25.5853C83.5002 25.7001 83.6618 25.8713 83.7765 26.0991C83.8913 26.3268 83.9487 26.6084 83.9487 26.9439V29.5312H83.1568V27.0392C83.1568 26.7444 83.08 26.514 82.9264 26.348C82.7728 26.1803 82.5618 26.0964 82.2935 26.0964C82.1099 26.0964 81.9466 26.1362 81.8036 26.2156C81.6623 26.2951 81.5502 26.4116 81.4672 26.5652C81.386 26.717 81.3454 26.9006 81.3454 27.116ZM88.5619 24.1076H89.3829V27.6748C89.3829 28.0544 89.2937 28.3907 89.1154 28.6838C88.9371 28.9751 88.6864 29.2046 88.3633 29.3724C88.0402 29.5383 87.6615 29.6213 87.2272 29.6213C86.7947 29.6213 86.4168 29.5383 86.0938 29.3724C85.7707 29.2046 85.52 28.9751 85.3416 28.6838C85.1633 28.3907 85.0742 28.0544 85.0742 27.6748V24.1076H85.8925V27.6086C85.8925 27.854 85.9463 28.0721 86.054 28.2627C86.1635 28.4534 86.318 28.6035 86.5175 28.7129C86.717 28.8206 86.9536 28.8745 87.2272 28.8745C87.5026 28.8745 87.7401 28.8206 87.9396 28.7129C88.1409 28.6035 88.2945 28.4534 88.4004 28.2627C88.5081 28.0721 88.5619 27.854 88.5619 27.6086V24.1076ZM90.5091 31.0567V25.4635H91.2824V26.1229H91.3486C91.3945 26.0382 91.4607 25.9402 91.5472 25.829C91.6337 25.7177 91.7538 25.6206 91.9074 25.5377C92.061 25.4529 92.264 25.4105 92.5165 25.4105C92.8448 25.4105 93.1379 25.4935 93.3957 25.6595C93.6535 25.8254 93.8556 26.0647 94.0021 26.3772C94.1504 26.6897 94.2246 27.0657 94.2246 27.5053C94.2246 27.9449 94.1513 28.3219 94.0048 28.6361C93.8583 28.9486 93.657 29.1896 93.401 29.3591C93.145 29.5268 92.8528 29.6107 92.5244 29.6107C92.2772 29.6107 92.0751 29.5692 91.918 29.4862C91.7626 29.4033 91.6408 29.3061 91.5525 29.1949C91.4642 29.0837 91.3962 28.9848 91.3486 28.8983H91.3009V31.0567H90.5091ZM91.285 27.4974C91.285 27.7834 91.3265 28.0341 91.4095 28.2495C91.4925 28.4649 91.6125 28.6335 91.7696 28.7553C91.9268 28.8754 92.1192 28.9354 92.347 28.9354C92.5836 28.9354 92.7813 28.8727 92.9402 28.7474C93.0991 28.6202 93.2191 28.4481 93.3003 28.231C93.3833 28.0138 93.4248 27.7693 93.4248 27.4974C93.4248 27.229 93.3842 26.988 93.303 26.7744C93.2235 26.5608 93.1035 26.3922 92.9428 26.2686C92.7839 26.145 92.5853 26.0832 92.347 26.0832C92.1175 26.0832 91.9232 26.1424 91.7644 26.2606C91.6072 26.3789 91.4881 26.544 91.4068 26.7559C91.3256 26.9677 91.285 27.2149 91.285 27.4974Z" fill="white"/>
</svg>
