<svg width="216" height="56" viewBox="0 0 216 56" fill="none" xmlns="http://www.w3.org/2000/svg">
<mask id="mask0_562_38" style="mask-type:luminance" maskUnits="userSpaceOnUse" x="0" y="0" width="59" height="52">
<path d="M0 0H58.599V51.9727H0V0Z" fill="white"/>
</mask>
<g mask="url(#mask0_562_38)">
<path d="M39.7574 39.7004C39.2827 40.1727 37.7615 41.7866 37.5075 44.326C37.3319 46.0395 37.816 47.3899 38.1032 48.0497C38.5874 47.556 39.8001 46.1938 40.1965 44.0175C40.5833 41.9741 40.009 40.3483 39.7574 39.7004ZM44.5372 48.5006C41.4092 47.435 38.6111 49.6778 38.3999 49.8415C38.7203 50.2046 40.1086 51.6761 42.444 51.93C45.0902 52.2148 46.9176 50.6983 47.238 50.4348C46.8179 49.9175 45.9493 48.9848 44.5372 48.5006ZM48.7261 44.4803C46.8084 44.644 45.3987 45.3797 44.682 45.8188C45.3536 46.227 46.8417 46.9841 48.8685 47.0173C51.3818 47.0624 53.1665 45.9636 53.8049 45.5221C53.055 45.1163 51.1943 44.2595 48.7261 44.4803ZM41.993 36.1168C41.6394 36.7006 40.8372 38.2266 40.9464 40.2914C41.0793 42.8095 42.4677 44.447 42.8973 44.9193C43.1607 44.5016 44.7366 41.929 43.7896 38.9529C43.3482 37.5455 42.5104 36.6104 41.993 36.1168ZM51.8659 37.6119C49.8273 38.7203 49.056 40.5572 48.8685 41.039C49.2434 41.16 51.6357 41.8411 53.9592 40.4457C55.8554 39.3041 56.4939 37.5028 56.6481 37.0186C56.1853 36.8976 54.0707 36.4134 51.8659 37.6119ZM47.1502 40.9725C47.3258 40.5572 48.7142 37.2156 46.9295 34.4697C46.4335 33.7102 45.8283 33.1834 45.2872 32.8321C44.9454 33.3804 44.3735 34.4911 44.3948 35.9625C44.4162 38.9623 46.8417 40.766 47.1502 40.9725ZM54.8634 31.1946C52.8247 32.3693 52.0653 34.2276 51.8659 34.7759C52.4498 34.8209 54.0802 34.8874 55.7558 33.8859C57.7493 32.6897 58.4328 30.8101 58.599 30.3046C57.97 30.2713 56.4511 30.2832 54.8634 31.1946ZM45.8829 28.3585C45.7405 28.3039 45.5862 28.2493 45.4319 28.2066C45.4652 28.9209 45.6076 30.0079 46.1795 31.1946C47.238 33.3709 49.0465 34.4127 49.7276 34.7664C49.4642 33.1834 48.605 29.4478 45.8829 28.3585ZM53.5177 27.7652C53.8714 27.6892 56.66 27.0745 57.8609 24.4805C58.4661 23.1728 58.3901 21.953 58.3118 21.3501C57.6615 21.5258 56.603 21.9197 55.6229 22.8429C53.6174 24.7012 53.5177 27.2169 53.5177 27.7652ZM49.6279 24.6348C48.5054 23.2274 47.0719 22.7219 46.4881 22.5463C46.367 23.0637 46.0466 24.7653 46.9414 26.5785C48.1185 28.9755 50.4894 29.6448 50.8644 29.7445C50.9285 29.3149 51.3486 26.7874 49.6279 24.6348ZM53.8168 22.0954C54.225 21.9102 57.5856 20.2608 58.0033 17.0189C58.1029 16.2404 58.0151 15.5356 57.849 14.9328C57.2225 15.1511 56.285 15.5688 55.4591 16.4256C53.3421 18.6019 53.7503 21.6468 53.8168 22.0954ZM49.1438 18.0418C48.5054 17.6787 47.8669 17.4912 47.3045 17.4034C47.2831 17.9421 47.3045 19.3376 48.2087 20.7236C49.552 22.7765 51.7995 23.1515 52.1745 23.2061C52.1199 22.7005 51.7235 19.5132 49.1438 18.0418ZM46.3338 15.2294C48.2846 16.7222 50.5227 16.3377 50.8953 16.2737C50.6769 15.8227 49.2553 12.9439 46.3338 12.3933C45.6076 12.2628 44.9454 12.2937 44.3853 12.3933C44.5491 12.9107 45.0237 14.2279 46.3338 15.2294ZM53.8168 13.1409C54.047 10.9646 53.055 9.384 52.7702 8.9663C52.3738 9.44808 51.4696 10.7012 51.2702 12.5476C51.0495 14.6456 51.8659 16.2072 52.1626 16.7222C52.5376 16.3164 53.6079 15.0752 53.8168 13.1409ZM42.2897 7.92205C42.4107 8.22821 43.1939 10.1292 45.2872 10.91C46.8179 11.482 48.1755 11.1189 48.6145 10.9765C48.3392 10.5042 47.2167 8.72422 44.9905 8.07631C43.8656 7.74643 42.8854 7.82237 42.2897 7.92205ZM50.9736 5.5274C50.6864 4.28379 50.0266 3.4389 49.6279 2.99984C49.3099 3.56943 48.7593 4.72522 48.7356 6.28448C48.7047 8.31602 49.5733 9.77797 49.9365 10.3167C50.169 9.96546 51.536 7.998 50.9736 5.5274ZM40.13 4.45942C39.7788 4.52587 39.2946 4.692 38.7654 5.07647C38.941 5.36127 39.6909 6.52655 41.2336 6.99884C42.9305 7.51384 44.3284 6.78999 44.5942 6.64759C43.3933 5.04325 41.6845 4.15326 40.13 4.45942ZM46.4216 5.88814C47.1383 4.01086 46.9627 2.09799 45.8615 0.96593C45.6171 0.714361 45.2112 0.384473 44.5942 0.151891C44.4494 0.450925 43.8656 1.71352 44.307 3.26328C44.803 4.96493 46.17 5.74574 46.4216 5.88814ZM40.2748 3.51485C41.7177 4.54723 43.2722 4.30753 43.5689 4.26243C42.9518 2.34956 41.6181 0.96593 40.0541 0.75708C39.7004 0.714361 39.1831 0.702495 38.5541 0.911344C38.6206 1.22937 38.9623 2.58214 40.2748 3.51485ZM18.8534 39.5462C18.5876 40.1941 18.0275 41.8198 18.4025 43.8751C18.7989 46.0395 20.0092 47.4136 20.4958 47.9073C20.7806 47.2475 21.2671 45.8971 21.0891 44.1836C20.847 41.6323 19.3257 40.0185 18.8534 39.5462ZM14.0594 48.3582C12.6496 48.8305 11.7787 49.7751 11.3704 50.3019C11.679 50.5654 13.5206 52.0819 16.1645 51.7971C18.4903 51.5455 19.8787 50.0717 20.2086 49.7086C19.9879 49.5235 17.2016 47.2926 14.0594 48.3582ZM9.8729 44.326C7.40467 44.1171 5.54164 44.9739 4.78218 45.3679C5.4206 45.8093 7.20532 46.9081 9.71863 46.863C11.7454 46.8298 13.2335 46.0727 13.9051 45.6669C13.2003 45.2255 11.7905 44.4897 9.8729 44.326ZM14.8093 38.8081C13.8624 41.7866 15.4383 44.3592 15.7017 44.7745C16.1313 44.3141 17.5196 42.6671 17.6525 40.149C17.7617 38.0842 16.9572 36.5558 16.6059 35.9744C16.0886 36.468 15.2603 37.4031 14.8093 38.8081ZM9.7305 40.8966C9.54301 40.4029 8.78118 38.5779 6.73303 37.4695C4.54011 36.271 2.41364 36.7552 1.93898 36.8762C2.09324 37.358 2.73166 39.1617 4.62792 40.3033C6.96324 41.6987 9.34365 41.0057 9.7305 40.8966ZM14.2136 35.8201C14.2255 34.3487 13.6512 33.238 13.3213 32.6897C12.7826 33.0505 12.1655 33.5679 11.679 34.3249C9.89426 37.0732 11.2826 40.4124 11.4583 40.8301C11.7573 40.6118 14.1923 38.8081 14.2136 35.8201ZM6.73303 34.624C6.53367 34.0852 5.77422 32.2151 3.73556 31.0403C2.14783 30.129 0.626549 30.1171 0 30.1503C0.166131 30.6558 0.847266 32.5355 2.8432 33.7316C4.51638 34.7331 6.1492 34.6786 6.73303 34.624ZM12.4171 31.0403C12.9914 29.8655 13.1338 28.7667 13.167 28.0523C13.0128 28.095 12.8585 28.1401 12.7161 28.2066C9.99393 29.2936 9.1348 33.0291 8.8595 34.6121C9.5525 34.2609 11.361 33.2261 12.4171 31.0403ZM5.09071 27.6133C5.07885 27.0745 4.99103 24.547 2.99747 22.6887C2.0173 21.7773 0.946944 21.3834 0.308527 21.1959C0.230209 21.7987 0.154264 23.0186 0.759454 24.3262C1.93898 26.9203 4.73709 27.5468 5.09071 27.6133ZM11.6695 26.4147C12.5618 24.6016 12.2414 22.8975 12.1204 22.3825C11.5366 22.5581 10.0936 23.0637 8.98054 24.4686C7.2599 26.6236 7.66811 29.1606 7.74643 29.5783C8.12141 29.481 10.49 28.8094 11.6695 26.4147ZM4.79405 21.9435C4.85813 21.502 5.26634 18.4476 3.15173 16.2737C2.32583 15.4145 1.38838 14.9968 0.759454 14.7785C0.595697 15.3837 0.507885 16.0862 0.60519 16.867C1.0134 20.1065 4.37398 21.756 4.79405 21.9435ZM10.3903 20.5693C11.2945 19.1952 11.3159 17.7878 11.2945 17.2515C10.732 17.3393 10.0936 17.5244 9.4552 17.8875C6.87543 19.3613 6.47909 22.5463 6.4245 23.0518C6.80898 22.9972 9.04699 22.6246 10.3903 20.5693ZM12.2628 12.2391C9.33179 12.7897 7.91256 15.6685 7.70133 16.1194C8.07631 16.1859 10.3143 16.5703 12.2628 15.0752C13.5752 14.076 14.0499 12.7564 14.2136 12.2391C13.663 12.1418 12.9914 12.1085 12.2628 12.2391ZM6.434 16.5703C6.74252 16.053 7.55894 14.4818 7.32635 12.3933C7.12937 10.5469 6.22515 9.29619 5.84067 8.81204C5.5535 9.22973 4.56147 10.8103 4.79405 12.9867C5.0029 14.9328 6.05902 16.174 6.434 16.5703ZM13.3213 10.7558C15.4145 9.97732 16.1977 8.08581 16.3188 7.76779C15.7231 7.66811 14.7429 7.59216 13.6298 7.92205C11.3823 8.56996 10.2692 10.3381 9.98207 10.8222C10.4235 10.9551 11.7787 11.3277 13.3213 10.7558ZM9.8729 6.13021C9.83967 4.58045 9.29856 3.41754 8.98054 2.84558C8.5842 3.28464 7.92205 4.1414 7.63488 5.38263C7.07479 7.84373 8.43943 9.82306 8.68388 10.1624C9.03512 9.61421 9.91562 8.15226 9.8729 6.13021ZM17.3654 6.84458C18.908 6.38416 19.658 5.207 19.8336 4.92221C19.3044 4.52587 18.8083 4.3716 18.4666 4.30753C16.9145 3.999 15.2057 4.88898 14.0048 6.5052C14.2682 6.64759 15.6685 7.36195 17.3654 6.84458ZM14.292 3.10901C14.731 1.55925 14.1591 0.296661 14.0048 0C13.3877 0.230209 12.9914 0.560097 12.7375 0.811666C11.6457 1.94373 11.4701 3.86609 12.175 5.73387C12.4408 5.59148 13.8054 4.81304 14.292 3.10901ZM15.0396 4.10817C15.659 2.19767 16.9904 0.811666 18.5544 0.602816C18.908 0.560097 19.4254 0.548231 20.0543 0.75708C19.976 1.08697 19.6461 2.42788 18.3361 3.37245C16.8812 4.39534 15.3267 4.16275 15.0396 4.10817Z" fill="#001378"/>
</g>
<mask id="mask1_562_38" style="mask-type:luminance" maskUnits="userSpaceOnUse" x="0" y="0" width="58" height="56">
<path d="M0.771179 0.548218H57.8489V55.115H0.771179V0.548218Z" fill="white"/>
</mask>
<g mask="url(#mask1_562_38)">
<path d="M50.048 4.51642C50.302 5.76714 50.2782 7.08669 50.2569 8.36115V8.48219M50.2569 8.48219C50.2237 9.97736 50.1145 11.2732 49.9365 12.448C50.4776 13.6132 50.9523 14.8213 51.3367 16.0411C51.3605 16.0862 51.3818 16.1289 51.3818 16.1859C51.4151 16.2832 51.4483 16.3829 51.4696 16.4826C51.5029 16.5917 51.5361 16.7009 51.5693 16.8101C51.6453 17.0735 51.7117 17.3393 51.79 17.6122C51.8541 17.3488 51.9206 17.0854 51.9657 16.8101C52.1081 16.0316 52.1864 15.2295 52.2505 14.4486V14.4059C52.3169 13.6038 52.3739 12.7684 52.4166 11.9757C52.4617 11.2945 52.5044 10.5802 52.5614 9.88955C52.5614 9.76851 52.6587 9.6807 52.7702 9.6807C52.8912 9.6807 52.9909 9.778 52.9909 9.89904C53.055 11.5698 52.9126 13.3071 52.7916 14.845L52.7702 15.163C52.6705 16.3924 52.5614 17.7879 52.0986 18.965C52.362 20.2276 52.5281 21.5021 52.6159 22.7457C53.4205 21.8865 54.2345 21.0084 54.918 20.0188C55.7226 18.844 56.3942 17.636 56.9116 16.4375C56.9567 16.3615 57.0231 16.3164 57.0991 16.3164C57.1655 16.3164 57.232 16.3497 57.2771 16.4042C57.3198 16.4588 57.3317 16.5134 57.3103 16.5799V16.6036C56.285 19.2712 54.7305 21.6682 52.6824 23.733C52.7251 25.183 52.6705 26.6118 52.5163 28.0191C53.4086 27.2715 54.225 26.4148 54.9845 25.6007C55.4354 25.1071 55.8223 24.5351 56.1854 23.9869C56.5698 23.4149 56.9686 22.8216 57.4527 22.2947C57.4978 22.2497 57.5524 22.2283 57.5951 22.2283C57.6734 22.2283 57.7494 22.271 57.7826 22.3375C57.8158 22.4039 57.8158 22.4822 57.7731 22.5368C57.4408 23.0091 57.1323 23.5028 56.8475 23.975C56.4061 24.7013 55.9433 25.4583 55.369 26.13C54.422 27.217 53.4846 28.2612 52.3834 29.0634C52.0986 30.9644 51.6239 32.8417 50.9618 34.6549C52.1959 34.249 53.2757 33.7554 54.2677 33.1407C54.9631 32.6993 55.5683 32.2721 56.1094 31.8211C56.3064 31.655 56.5058 31.4699 56.6933 31.2824C56.9448 31.0403 57.1988 30.7888 57.4978 30.568L57.7067 30.4138L57.7612 30.6677C57.7612 30.6677 57.7731 30.6772 57.7731 30.6891C57.8063 30.6677 57.8609 30.7769 57.7945 30.8979C57.0445 32.03 55.668 32.9864 54.5549 33.6889C53.2544 34.503 51.9111 35.139 50.5559 35.5781C49.7514 37.6001 48.7048 39.5343 47.4588 41.3262C48.0307 41.1506 48.5932 40.9085 49.1438 40.6783C49.6944 40.4457 50.2688 40.2155 50.8407 40.028C52.0986 39.634 53.233 38.9078 54.3342 38.2053C54.6309 38.0178 54.9513 37.809 55.2598 37.6215L55.2717 37.612C55.3049 37.6001 55.3357 37.5906 55.369 37.5906C55.4473 37.5906 55.5137 37.6333 55.547 37.6998C55.5802 37.7662 55.5802 37.8541 55.5351 37.9205V37.9419C55.1174 38.4474 54.5098 38.82 53.9379 39.1712C53.7622 39.2828 53.5961 39.3801 53.4418 39.4798C52.9245 39.8191 52.2291 40.2606 51.4245 40.5572C50.6437 40.842 49.8487 41.16 48.935 41.5777C48.2633 41.8863 47.5347 42.2043 46.7539 42.3135C45.871 43.4693 44.9241 44.5444 43.9321 45.5222C44.0104 45.5222 44.0745 45.5222 44.1528 45.5222C44.4494 45.5222 44.758 45.5008 45.057 45.4889C45.1448 45.4889 45.2326 45.4794 45.3204 45.4794L45.6836 45.4581C46.2033 45.4343 46.7302 45.4011 47.2499 45.4011C47.3259 45.4011 47.4042 45.4011 47.4801 45.4011C47.9216 45.4011 48.3844 45.413 48.8258 45.4249C49.3764 45.4343 49.9365 45.4462 50.4895 45.4462C51.0282 45.4462 51.5029 45.4343 51.9324 45.413C52.0653 45.413 52.1626 45.5008 52.1745 45.6337C52.1864 45.7524 52.1081 45.852 51.9989 45.8734C51.116 46.0514 50.2355 46.0728 49.4856 46.0728C49.2103 46.0728 48.935 46.0728 48.6597 46.0609C48.3844 46.0609 48.1091 46.0514 47.8433 46.0514C47.6012 46.0514 47.3923 46.0514 47.2048 46.0609C46.6661 46.0728 46.125 46.1155 45.5957 46.1487C45.2753 46.1701 44.9455 46.1938 44.6274 46.2033L44.4399 46.2152C44.262 46.227 44.0745 46.2365 43.8988 46.2365C43.6449 46.2365 43.436 46.2152 43.2391 46.1819C42.8309 46.5451 42.444 46.8631 42.0477 47.1716C40.9251 48.0284 39.6578 48.7309 38.1697 49.3028C39.1048 49.4998 40.1206 49.6659 41.3309 49.7965C41.9812 49.8748 42.6101 49.9175 43.2604 49.9294C43.2936 49.9294 43.3364 49.9294 43.3696 49.9294C43.6022 49.9294 43.8442 49.9175 44.0863 49.908C44.3284 49.8961 44.5823 49.8843 44.8244 49.8843C45.0238 49.8843 45.1994 49.8961 45.3655 49.908C45.4652 49.908 45.5412 49.984 45.553 50.0836C45.5625 50.1809 45.4961 50.2806 45.3988 50.302C44.8031 50.4776 44.1077 50.5654 43.2818 50.5654C42.5223 50.5654 41.7724 50.4895 41.0461 50.423H41.0343C40.8373 50.4016 40.6474 50.3898 40.4386 50.3684C39.3041 50.2806 38.0273 50.1714 36.9688 49.7086C36.5938 49.8202 36.2094 49.9412 35.8225 50.0385C34.9183 50.2687 33.9595 50.4776 33.0339 50.677C32.4406 50.798 31.833 50.9285 31.2278 51.0709C33.2878 51.8422 34.8424 52.8414 36.0765 54.1823C36.2094 54.3247 36.2307 54.5122 36.1524 54.6878C36.0765 54.8634 35.8985 54.9726 35.7347 54.9726C35.6137 54.9726 35.5021 54.918 35.4143 54.8183C34.0378 53.3137 32.1866 52.2481 29.6187 51.4791C27.6465 52.0274 25.1451 52.9173 23.2607 54.9726C23.1729 55.0723 23.0613 55.115 22.9403 55.115C22.7647 55.115 22.589 54.994 22.5107 54.8183C22.4348 54.6427 22.468 54.4671 22.6009 54.3247C23.9228 52.8841 25.6292 51.8304 27.9551 51.0282C27.1956 50.8526 26.4243 50.6864 25.6743 50.5227C24.3524 50.2379 22.9735 49.9507 21.6967 49.5662C20.6382 50.0385 19.4041 50.1382 18.2151 50.226C18.0157 50.2379 17.8164 50.2593 17.6312 50.2687H17.6194C16.8908 50.3352 16.1432 50.4135 15.3814 50.4135C14.5554 50.4135 13.8624 50.3257 13.2549 50.1382C13.1671 50.1169 13.1006 50.0172 13.1125 49.9175C13.1244 49.8202 13.2122 49.7419 13.3 49.7419C13.4637 49.7324 13.6417 49.7205 13.8387 49.7205C14.0832 49.7205 14.3347 49.7324 14.5673 49.7419C14.7975 49.7537 15.0515 49.7632 15.284 49.7632C15.3149 49.7632 15.36 49.7632 15.3932 49.7632C16.0886 49.7537 16.7816 49.6873 17.3203 49.6327C18.5331 49.4998 19.5465 49.336 20.4721 49.1391C18.7111 48.4579 17.0118 47.4137 15.4146 46.0182C15.2057 46.0609 14.985 46.0728 14.7216 46.0728C14.4795 46.0728 14.2351 46.0609 13.993 46.0395L13.8838 46.0277C13.5753 46.0063 13.2667 45.9944 12.9701 45.9731C12.4741 45.9399 11.9662 45.9066 11.4583 45.8853C11.2732 45.8853 11.0857 45.8734 10.865 45.8734C10.5778 45.8734 10.2906 45.8734 9.99398 45.8853C9.70681 45.8853 9.41015 45.8971 9.12298 45.8971C8.39675 45.8971 7.52575 45.8734 6.65476 45.6978C6.54558 45.6883 6.46727 45.5886 6.47913 45.4676C6.491 45.337 6.5883 45.2492 6.70934 45.2492C7.15077 45.2706 7.62543 45.2825 8.16417 45.2825C8.71477 45.2825 9.28911 45.2706 9.82785 45.2587C10.2693 45.2492 10.7202 45.2374 11.1735 45.2374C11.8879 45.2374 12.6165 45.2706 13.3213 45.3038C13.4637 45.3133 13.6085 45.3133 13.7509 45.3252C14.0048 45.337 14.2588 45.3584 14.5127 45.3584C14.5673 45.3584 14.6219 45.3584 14.6765 45.3584C13.7177 44.4471 12.7707 43.3696 11.857 42.1497C11.0192 42.0287 10.2266 41.6656 9.58577 41.3689C8.78123 40.9963 7.96719 40.6878 7.20536 40.3911C6.47913 40.1277 5.82885 39.7432 5.07889 39.259C4.92463 39.1617 4.77036 39.0621 4.59474 38.9624C4.04413 38.6325 3.48166 38.2812 3.08532 37.7995C3.03074 37.7425 3.01887 37.6547 3.0521 37.5906C3.08532 37.5123 3.16127 37.4577 3.25145 37.4577C3.28231 37.4577 3.31553 37.4696 3.34876 37.4791L3.36063 37.4909C3.69051 37.6879 4.02277 37.8968 4.3408 38.1056C5.42064 38.7868 6.54558 39.5011 7.7797 39.8975C8.35166 40.0849 8.90226 40.3152 9.44337 40.5335C10.0058 40.7661 10.5683 40.9963 11.1498 41.1838C11.0287 41.0177 10.9196 40.842 10.7985 40.6664C9.71868 39.0407 8.79309 37.2702 8.04313 35.4238C6.68798 34.9847 5.35419 34.3582 4.05363 33.5465C2.79816 32.7444 1.53082 31.8544 0.814083 30.765C0.771364 30.6891 0.771364 30.6013 0.814083 30.5253C0.859175 30.447 0.937495 30.4043 1.02531 30.4043C1.05853 30.4043 1.10125 30.4138 1.13448 30.4256L1.14634 30.4351L1.15584 30.447C1.45487 30.6677 1.73017 30.9312 1.99361 31.1827C2.20246 31.3821 2.41368 31.5909 2.64389 31.7761C3.17314 32.1938 3.75697 32.6115 4.39538 33.0197C5.36606 33.6225 6.44591 34.1161 7.69188 34.5243C7.02974 32.6993 6.54558 30.8101 6.24655 28.9091C5.07889 28.0737 4.08685 26.9203 3.29417 25.9971C2.72221 25.3278 2.25942 24.5684 1.81799 23.8445C1.53082 23.3604 1.22229 22.8667 0.892402 22.4039C0.847309 22.3375 0.847309 22.2615 0.880535 22.1951C0.913761 22.1286 0.99208 22.0859 1.06802 22.0859C1.12261 22.0859 1.17957 22.1073 1.2128 22.1405C1.71831 22.6792 2.12651 23.282 2.51099 23.8659C2.86461 24.4046 3.23959 24.9647 3.68102 25.4489C4.31944 26.1513 5.15721 27.0295 6.10415 27.8435C5.94989 26.4812 5.8953 25.0406 5.94989 23.5692C3.9231 21.5139 2.38046 19.1193 1.34333 16.4707C1.32197 16.4161 1.32197 16.3497 1.35519 16.2951C1.39791 16.2286 1.46436 16.1954 1.54268 16.1954C1.61863 16.1954 1.69695 16.2405 1.73017 16.3046C2.25942 17.5482 2.93106 18.7562 3.72374 19.8977C4.39538 20.8755 5.21179 21.756 6.00447 22.6009C6.10415 21.3264 6.27978 20.0639 6.53372 18.8321C6.07093 17.6573 5.96175 16.2618 5.86208 15.0301L5.84072 14.7121C5.71731 13.1742 5.57491 11.4274 5.64136 9.75665C5.64136 9.64747 5.74104 9.5478 5.85021 9.5478C5.97125 9.5478 6.05906 9.63561 6.05906 9.75665C6.11602 10.4496 6.15874 11.164 6.20383 11.8451C6.24655 12.6473 6.30351 13.4708 6.36759 14.273C6.45777 15.2295 6.54559 16.0198 6.68798 16.8219C6.73307 17.0427 6.77579 17.2729 6.83038 17.4912C6.96328 16.9976 7.09619 16.5253 7.23859 16.0649C7.23859 16.0198 7.25045 15.9652 7.28368 15.8987C7.38336 15.5902 7.48066 15.284 7.6017 14.9542C7.90073 14.1306 8.25198 13.2739 8.68392 12.3388C8.49643 11.0857 8.38489 9.75665 8.36353 8.37302V8.13094C8.34217 6.88971 8.31843 5.60338 8.58424 4.38351V4.36215C8.6056 4.28383 8.68392 4.22925 8.77173 4.22925C8.86904 4.22925 8.95922 4.31706 8.96872 4.41674C9.0233 5.16432 8.99245 5.9214 8.96872 6.65713C8.94736 7.1745 8.93549 7.70137 8.94736 8.21875C8.96872 9.20842 9.04704 10.2171 9.2013 11.3159C9.86107 10.0201 10.6229 8.79072 11.4583 7.65865C11.5817 6.88971 11.8238 6.11839 12.054 5.37317C12.1418 5.09787 12.2296 4.81308 12.3079 4.52591C12.353 4.36215 12.4076 4.19602 12.4503 4.0204C12.7494 2.95479 13.0579 1.84646 13.497 0.790347C13.5207 0.714401 13.6085 0.647949 13.7082 0.647949C13.7723 0.647949 13.8506 0.681175 13.8838 0.735761C13.9265 0.790347 13.9384 0.856799 13.917 0.932744C13.7295 1.76814 13.4875 2.61541 13.2549 3.43894C13.1457 3.81155 13.046 4.18653 12.9369 4.55913C12.7921 5.10974 12.6497 5.67933 12.5168 6.22993C12.5073 6.27265 12.4954 6.31774 12.4836 6.36046C13.0793 5.66984 13.7177 5.01006 14.3798 4.40487C14.3917 4.38351 14.413 4.33842 14.4463 4.30757C16.1764 2.51573 17.8496 1.3718 19.5797 0.811706L19.6129 0.768987H19.658C19.7245 0.768987 19.7791 0.802213 19.8123 0.856799C19.8455 0.911385 19.855 0.98733 19.8218 1.05378L19.8004 1.08701L19.7672 1.10837C19.359 1.39554 18.9081 1.6471 18.4785 1.88918C18.0608 2.11939 17.6312 2.36147 17.2444 2.6249C16.4731 3.16364 15.8014 3.83291 15.2935 4.36215C14.7311 4.99819 14.2137 5.61525 13.7177 6.22993C14.0713 6.15161 14.4225 6.08754 14.7643 6.02108C15.0847 5.9665 15.4264 5.90005 15.7445 5.83359C16.848 5.60338 17.8828 5.32808 18.9294 4.99819L18.9532 4.9887H18.9864C19.0742 4.9887 19.162 5.05278 19.1834 5.14059C19.2047 5.23078 19.162 5.31622 19.0742 5.36131C18.0371 5.85495 16.9477 6.16348 16.0221 6.3842C15.7445 6.44828 15.4692 6.51473 15.2057 6.59305C14.5009 6.76867 13.7723 6.95379 13.046 7.08669C12.3198 8.05262 11.6458 9.03042 11.0525 9.99872C11.3491 9.87768 11.6458 9.75665 11.9448 9.63561C13.1884 9.1301 14.489 8.61272 15.6899 7.93158C15.7231 7.91022 15.7563 7.91022 15.7896 7.91022C15.8892 7.91022 15.9652 7.97668 15.9984 8.07635C16.0221 8.16417 15.9889 8.24011 15.9106 8.2852C14.3347 9.35081 12.4741 10.2503 10.5232 10.8982C9.68545 12.3839 9.0233 13.8221 8.49643 15.2935C10.1269 14.5578 11.7692 13.6678 13.6299 12.5144C13.6631 12.4931 13.6963 12.4812 13.7295 12.4812C13.8055 12.4812 13.8838 12.5358 13.9052 12.6141C13.9265 12.69 13.8957 12.7897 13.8292 12.8324C12.2534 14.0309 10.369 15.1084 8.22113 16.0411C8.06449 16.492 7.95532 16.867 7.85564 17.2278C7.43794 18.7443 7.15077 20.2941 7.00838 21.8533C8.28521 20.6453 9.60713 19.3281 10.7867 17.7879C10.8199 17.7451 10.8745 17.7119 10.9409 17.7119C11.0192 17.7119 11.0857 17.757 11.1165 17.8211C11.1498 17.8875 11.1498 17.9659 11.1071 18.0204C10.0699 19.8099 8.49643 21.3715 6.93006 22.7884C6.78766 25.0739 6.93006 27.3475 7.3264 29.557C7.61357 29.1512 7.90073 28.7549 8.17604 28.3585C9.28911 26.7874 10.4449 25.1617 11.4037 23.4363C11.4369 23.3699 11.5034 23.3271 11.5817 23.3271C11.6458 23.3271 11.7122 23.3604 11.7573 23.4149C11.8001 23.4695 11.8119 23.5241 11.7906 23.5906V23.6119C11.3064 24.865 10.5778 26.0303 9.87294 27.1173C9.0233 28.4155 8.29707 29.4906 7.53762 30.5562C7.81292 31.8306 8.1974 33.1075 8.66019 34.3701C9.27724 33.6011 9.88481 32.8322 10.4354 32.0086C10.7439 31.5577 11.0192 31.0736 11.2945 30.6131C11.5485 30.1836 11.8119 29.7326 12.0991 29.3055V29.2817C12.1418 29.2271 12.2083 29.1939 12.2866 29.1939C12.3625 29.1939 12.4408 29.2271 12.4836 29.2936C12.5287 29.36 12.5287 29.436 12.4954 29.5024C11.8238 31.216 10.611 33.0742 8.91413 35.0393C9.59764 36.7434 10.4449 38.3809 11.4156 39.8975C11.5912 39.0407 11.7906 38.1507 12.0113 37.2821C12.0991 36.9071 12.2083 36.5345 12.3079 36.1714C12.5405 35.3265 12.7826 34.4579 12.9036 33.5798C12.925 33.4587 13.0128 33.3804 13.1244 33.3804C13.2335 33.3804 13.3332 33.4682 13.3427 33.5798V33.5892C13.3997 34.4246 13.1671 35.2933 12.9464 36.1382C12.849 36.4918 12.7589 36.8312 12.6924 37.1492C12.429 38.4236 12.1869 39.5676 11.9875 40.721C12.2961 41.1506 12.6924 41.6988 13.1125 42.2162C13.8506 43.1394 14.5768 43.9415 15.3149 44.6535C15.5356 42.8522 15.7896 41.0177 16.0316 39.2495C16.1194 38.6444 16.1978 38.0297 16.2856 37.4245C16.3069 37.3153 16.3971 37.2489 16.4944 37.2489C16.6155 37.2489 16.7151 37.3367 16.7151 37.4577C16.6606 40.2819 16.4185 42.9068 16.0103 45.2587C16.0316 45.2825 16.0554 45.3133 16.0767 45.3584C16.7057 45.9185 17.3441 46.4121 17.9943 46.8417C18.6209 47.2594 19.3163 47.632 20.1208 47.9738C20.0757 47.6225 20.0425 47.2808 20.0093 46.9414C19.9452 46.3362 19.8787 45.7215 19.7909 45.1163C19.7007 44.4803 19.5916 43.8419 19.4824 43.2153C19.3827 42.6671 19.283 42.0951 19.2047 41.5232C19.1952 41.4472 19.2166 41.3808 19.2617 41.3262C19.3044 41.2716 19.3709 41.2479 19.4373 41.2479C19.537 41.2479 19.6248 41.3143 19.658 41.4021C20.0544 42.622 20.2869 43.8965 20.4839 45.1045C20.6596 46.1819 20.8257 47.2475 20.8803 48.2704C22.2022 48.7641 23.5479 49.0821 24.5945 49.3147C24.8911 49.3788 25.1902 49.4452 25.4963 49.5117C26.8538 49.7965 28.2517 50.105 29.6069 50.4895C30.6321 50.2142 31.7001 49.984 32.7254 49.7632C33.7625 49.5449 34.8305 49.3147 35.8439 49.0394C36.4609 48.8732 37.1112 48.6644 37.7947 48.4128C37.8493 47.3804 38.0154 46.3362 38.1911 45.2587C38.3904 44.0626 38.6206 42.7763 39.0075 41.5683C39.0407 41.4686 39.1167 41.4021 39.2282 41.4021C39.2946 41.4021 39.3587 41.4354 39.4133 41.4899C39.4584 41.5445 39.4798 41.611 39.4703 41.6774C39.3825 42.3135 39.2709 42.9638 39.1617 43.5879C39.0621 44.1385 38.9624 44.7105 38.8864 45.2706C38.8081 45.8307 38.7535 46.4121 38.6871 46.9722C38.6539 47.3472 38.6111 47.7317 38.566 48.1162C39.9093 47.5228 41.0889 46.7966 42.1355 45.9066C42.2897 45.7761 42.4559 45.6337 42.622 45.4889C42.6315 45.4676 42.6552 45.4462 42.6647 45.4343C42.247 43.0065 42.0144 40.3816 41.9599 37.6333C41.9599 37.5123 42.0595 37.4126 42.1806 37.4126C42.2897 37.4126 42.3799 37.4909 42.3894 37.6001L42.5769 38.941C42.8427 40.8634 43.118 42.8522 43.3601 44.8078C44.5491 43.6662 45.6622 42.3467 46.6661 40.9085L46.6756 40.8966C46.4786 39.7313 46.2365 38.5779 45.9707 37.3153C45.9043 37.0068 45.8165 36.6888 45.7286 36.3589C45.4961 35.5021 45.254 34.6121 45.3204 33.7554V33.7435C45.3323 33.6225 45.432 33.5465 45.5412 33.5465C45.6503 33.5465 45.75 33.6343 45.7619 33.7435C45.871 34.6549 46.125 35.5686 46.3789 36.4467C46.4667 36.7766 46.5664 37.1065 46.6542 37.4458C46.8749 38.3145 47.0624 39.1926 47.2499 40.0517C48.2182 38.5684 49.056 36.9403 49.7609 35.215C48.0307 33.2261 46.8299 31.3584 46.1701 29.6662C46.1369 29.6021 46.1463 29.5238 46.1914 29.4692C46.2365 29.4028 46.3125 29.3695 46.3884 29.3695C46.4786 29.3695 46.5427 29.4146 46.5878 29.4811C46.8631 29.8988 47.1289 30.3473 47.3805 30.7769C47.6558 31.2373 47.9334 31.7215 48.242 32.1724C48.8353 33.0505 49.4856 33.8859 50.0267 34.5457C50.499 33.2594 50.8858 31.9849 51.1611 30.7437C50.4444 29.7445 49.6944 28.6338 48.8021 27.2715C48.0972 26.1846 47.3591 25.0193 46.8844 23.7662C46.8631 23.6997 46.8631 23.6357 46.9082 23.5787C46.9414 23.5241 47.0079 23.4909 47.0838 23.4909C47.1502 23.4909 47.2167 23.5241 47.2594 23.5787L47.2713 23.5906V23.6024C48.242 25.3373 49.4096 26.9867 50.5322 28.5792C50.8075 28.9637 51.0947 29.36 51.37 29.7659C51.4364 29.4479 51.491 29.1298 51.5361 28.8094C51.8209 26.9322 51.8992 24.9647 51.7663 22.9759C50.2023 21.5567 48.6146 19.9855 47.5679 18.1723C47.5347 18.1178 47.5347 18.0537 47.5679 17.9872C47.6012 17.9208 47.6676 17.8757 47.7459 17.8757C47.81 17.8757 47.867 17.9089 47.9097 17.9659C49.0465 19.4373 50.2901 20.6904 51.6904 22.0313C51.491 20.0306 51.0733 18.0869 50.4657 16.2167C48.3298 15.284 46.4335 14.2066 44.8458 13.0081L44.8244 12.9867C44.7698 12.9321 44.7485 12.8443 44.7817 12.7684C44.8149 12.7019 44.879 12.6568 44.9455 12.6568C44.9906 12.6568 45.0238 12.6687 45.057 12.69C47.0173 13.8885 48.6264 14.7572 50.2023 15.4715C49.6731 13.9882 49.0014 12.5144 48.1755 11.0762C46.246 10.4378 44.3735 9.53593 42.7644 8.44896C42.6861 8.39438 42.6552 8.2947 42.6861 8.21875C42.7193 8.13094 42.7976 8.07635 42.8736 8.07635C42.9187 8.07635 42.9519 8.08585 42.9851 8.10958C44.1741 8.76698 45.4415 9.28436 46.6661 9.778C46.9841 9.91091 47.314 10.0414 47.6344 10.1743C47.0387 9.20842 46.3671 8.22825 45.629 7.25045C44.8363 7.10805 44.0436 6.91107 43.2723 6.71408C43.0611 6.65713 42.8427 6.60254 42.6315 6.54795C41.7178 6.32961 40.6379 6.03058 39.5794 5.52744H39.57L39.5581 5.51557C39.4798 5.46099 39.4465 5.37317 39.4798 5.28536C39.5035 5.19755 39.5794 5.14059 39.6673 5.14059H39.691L39.7242 5.15246C40.759 5.46099 41.7937 5.73391 42.9068 5.98786C43.2058 6.05431 43.5239 6.10889 43.8229 6.16348C44.186 6.22993 44.561 6.30588 44.936 6.3842C44.4399 5.76714 43.9226 5.15246 43.3601 4.51642C42.6647 3.76883 42.0477 3.21822 41.4187 2.77917C41.0343 2.51573 40.6166 2.27365 40.1965 2.05294C39.7669 1.81324 39.316 1.57116 38.8959 1.2745C38.8295 1.22941 38.7986 1.15346 38.82 1.07514C38.8414 0.98733 38.9197 0.920878 39.017 0.920878H39.0407L39.0621 0.932744C40.8136 1.50471 42.501 2.64863 44.2074 4.4381C44.2406 4.47132 44.262 4.50455 44.2738 4.53778C44.9241 5.11923 45.553 5.76714 46.1701 6.49337C46.1701 6.47201 46.1582 6.44828 46.1582 6.42692C46.0158 5.85495 45.871 5.2735 45.7168 4.70153C45.6171 4.33842 45.5198 3.97768 45.4082 3.61456C45.178 2.79103 44.936 1.93427 44.7366 1.07514C44.7152 1.01106 44.7366 0.944611 44.7698 0.890025C44.8149 0.83544 44.879 0.802213 44.9455 0.802213C45.0451 0.802213 45.1329 0.866292 45.1567 0.954104C45.553 1.94377 45.8615 2.99988 46.1463 4.0204C46.2128 4.24111 46.2674 4.45946 46.3338 4.66831C46.4122 4.93174 46.4881 5.19755 46.5759 5.44912C46.8085 6.20857 47.0506 6.98701 47.1835 7.77969C48.0094 8.89989 48.7688 10.1198 49.4428 11.4274C49.5852 10.3951 49.6612 9.35081 49.6849 8.33979C49.6944 7.80105 49.6849 7.24096 49.6612 6.70222C49.6398 5.98786 49.6185 5.26163 49.6612 4.53778C49.6612 4.4381 49.7514 4.35029 49.8605 4.35029C49.9602 4.35029 50.0362 4.41674 50.048 4.51642" fill="#001378"/>
</g>
<path fill-rule="evenodd" clip-rule="evenodd" d="M41.7609 12.7834C41.7609 12.7834 41.761 28.4692 41.7609 29.8297C41.7608 31.1902 40.5636 35.5918 34.7364 38.873C30.2218 41.4151 29.441 41.846 29.3183 41.9111L29.3183 41.9181C29.3183 41.9181 29.335 41.9281 29.3104 41.9152C29.2858 41.9281 29.3026 41.918 29.3026 41.918L29.3026 41.9111C29.1799 41.846 28.3991 41.4152 23.8844 38.873C18.0573 35.5918 16.86 31.1902 16.8599 29.8297C16.8598 28.4692 16.8599 12.7834 16.8599 12.7834C22.5974 14.1649 25.5458 14.2849 29.297 12.3172L29.297 12.3031L29.3104 12.3102L29.3238 12.3031L29.3238 12.3172C33.0751 14.2849 36.0235 14.1649 41.7609 12.7834ZM37.0554 19.771V22.2119H36.83H32.5002C31.8241 22.2119 31.4584 22.5748 31.4556 23.2475C31.4539 23.6104 31.4543 23.9728 31.4556 24.3356C31.4584 25.1976 32.0396 25.7968 32.8983 25.7743C33.7988 25.7509 34.6353 25.9261 35.3893 26.4359C36.6782 27.3081 37.3103 28.8941 36.9761 30.4214C36.6531 31.8986 35.4086 33.0943 33.9125 33.3504C33.631 33.3984 33.342 33.4251 33.0563 33.4263C31.9687 33.4319 30.881 33.4312 29.7934 33.4305C29.4309 33.4303 29.0684 33.43 28.7059 33.43H28.4486V30.957H28.6854L29.8947 30.9573C31.0033 30.9576 32.1119 30.9579 33.2205 30.9558C33.906 30.9546 34.5118 30.4276 34.5881 29.7749C34.6694 29.0809 34.2364 28.4488 33.5505 28.285C33.3806 28.2444 33.1975 28.2435 33.021 28.2476C32.0175 28.2698 31.1141 27.9936 30.3469 27.3369C29.5289 26.6366 29.0565 25.7435 29.0109 24.664C28.9805 23.9412 28.9502 23.2048 29.0515 22.4931C29.2748 20.9178 30.5501 19.8034 32.1447 19.7681C33.267 19.7435 34.3902 19.7494 35.5134 19.7554C35.998 19.758 36.4826 19.7606 36.9671 19.7607C36.9846 19.7607 37.002 19.7633 37.0226 19.7664C37.0325 19.7679 37.0432 19.7695 37.055 19.771H37.0554ZM27.9195 30.9062V30.9059L27.9199 30.9063C27.9197 30.9063 27.9196 30.9063 27.9195 30.9062ZM27.9195 33.4179V30.9062C27.8997 30.9021 27.8827 30.8985 27.8673 30.8952C27.8432 30.89 27.8231 30.8857 27.8029 30.8817C25.0011 30.3342 23.4574 27.2168 24.7471 24.6732C25.4678 23.2518 26.6421 22.4444 28.2298 22.2614C28.4169 22.24 28.5039 22.1846 28.5552 21.9888C28.7687 21.1708 29.2116 20.4927 29.8683 19.9571C29.9116 19.9218 29.9536 19.8848 30.0048 19.8397C30.0303 19.8172 30.0581 19.7927 30.0895 19.7654C29.9536 19.7654 29.8223 19.7658 29.6942 19.7662C29.4192 19.7669 29.1589 19.7677 28.8988 19.7646C28.1559 19.756 27.4253 19.834 26.7111 20.047C23.4041 21.0317 21.3034 24.3539 21.926 27.736C22.4297 30.4704 24.0665 32.269 26.7021 33.1449C26.9664 33.2328 27.2428 33.2853 27.5236 33.3388C27.6548 33.3637 27.787 33.3889 27.9195 33.4179Z" fill="#FF2231"/>
<path d="M82.8866 14.8054H80.0769C79.9967 14.3446 79.849 13.9364 79.6336 13.5808C79.4183 13.2202 79.1503 12.9147 78.8298 12.6643C78.5092 12.4139 78.1436 12.2261 77.7329 12.1008C77.3273 11.9706 76.889 11.9055 76.4182 11.9055C75.5818 11.9055 74.8406 12.1159 74.1945 12.5366C73.5484 12.9523 73.0426 13.5633 72.677 14.3697C72.3113 15.171 72.1285 16.1501 72.1285 17.3071C72.1285 18.4841 72.3113 19.4757 72.677 20.2821C73.0476 21.0834 73.5534 21.6894 74.1945 22.1001C74.8406 22.5058 75.5793 22.7087 76.4107 22.7087C76.8715 22.7087 77.3022 22.6486 77.7029 22.5284C78.1086 22.4031 78.4717 22.2203 78.7922 21.9799C79.1178 21.7395 79.3907 21.444 79.6111 21.0934C79.8365 20.7429 79.9917 20.3422 80.0769 19.8914L82.8866 19.9064C82.7814 20.6377 82.5535 21.3238 82.203 21.9649C81.8574 22.606 81.4041 23.1719 80.8432 23.6628C80.2822 24.1486 79.6261 24.5292 78.8749 24.8047C78.1236 25.0751 77.2897 25.2104 76.3732 25.2104C75.0209 25.2104 73.8139 24.8973 72.7521 24.2713C71.6903 23.6452 70.8539 22.7412 70.2429 21.5592C69.6318 20.3772 69.3263 18.9599 69.3263 17.3071C69.3263 15.6493 69.6343 14.2319 70.2504 13.0549C70.8664 11.873 71.7053 10.9689 72.7671 10.3429C73.8289 9.71684 75.0309 9.40382 76.3732 9.40382C77.2296 9.40382 78.0259 9.52402 78.7622 9.76442C79.4984 10.0048 80.1545 10.3579 80.7305 10.8237C81.3064 11.2845 81.7797 11.8504 82.1504 12.5216C82.526 13.1877 82.7714 13.9489 82.8866 14.8054ZM90.3523 25.2254C89.2254 25.2254 88.2487 24.9775 87.4223 24.4816C86.5959 23.9858 85.9549 23.2921 85.4991 22.4006C85.0484 21.5091 84.823 20.4674 84.823 19.2754C84.823 18.0834 85.0484 17.0391 85.4991 16.1426C85.9549 15.2461 86.5959 14.55 87.4223 14.0541C88.2487 13.5583 89.2254 13.3104 90.3523 13.3104C91.4791 13.3104 92.4558 13.5583 93.2822 14.0541C94.1086 14.55 94.7471 15.2461 95.1979 16.1426C95.6537 17.0391 95.8815 18.0834 95.8815 19.2754C95.8815 20.4674 95.6537 21.5091 95.1979 22.4006C94.7471 23.2921 94.1086 23.9858 93.2822 24.4816C92.4558 24.9775 91.4791 25.2254 90.3523 25.2254ZM90.3673 23.0467C90.9783 23.0467 91.4892 22.8789 91.8999 22.5434C92.3105 22.2028 92.6161 21.747 92.8164 21.1761C93.0217 20.6051 93.1244 19.9691 93.1244 19.2679C93.1244 18.5617 93.0217 17.9231 92.8164 17.3522C92.6161 16.7762 92.3105 16.3179 91.8999 15.9774C91.4892 15.6368 90.9783 15.4665 90.3673 15.4665C89.7412 15.4665 89.2204 15.6368 88.8047 15.9774C88.394 16.3179 88.086 16.7762 87.8806 17.3522C87.6803 17.9231 87.5801 18.5617 87.5801 19.2679C87.5801 19.9691 87.6803 20.6051 87.8806 21.1761C88.086 21.747 88.394 22.2028 88.8047 22.5434C89.2204 22.8789 89.7412 23.0467 90.3673 23.0467ZM100.909 9.61417V25H98.1898V9.61417H100.909ZM106.425 9.61417V25H103.706V9.61417H106.425ZM114.331 25.2254C113.174 25.2254 112.175 24.985 111.333 24.5042C110.497 24.0184 109.853 23.3322 109.402 22.4457C108.952 21.5542 108.726 20.505 108.726 19.2979C108.726 18.1109 108.952 17.0692 109.402 16.1727C109.858 15.2712 110.494 14.57 111.311 14.0691C112.127 13.5633 113.086 13.3104 114.188 13.3104C114.899 13.3104 115.57 13.4256 116.201 13.656C116.837 13.8813 117.398 14.2319 117.884 14.7077C118.375 15.1835 118.761 15.7895 119.041 16.5258C119.322 17.257 119.462 18.1285 119.462 19.1402V19.9741H110.003V18.141H116.855C116.85 17.6201 116.737 17.1568 116.517 16.7512C116.296 16.3405 115.988 16.0174 115.593 15.782C115.202 15.5466 114.746 15.4289 114.225 15.4289C113.67 15.4289 113.181 15.5642 112.761 15.8346C112.34 16.1001 112.012 16.4506 111.776 16.8864C111.546 17.3171 111.428 17.7904 111.423 18.3063V19.9064C111.423 20.5776 111.546 21.1535 111.791 21.6343C112.037 22.1101 112.38 22.4758 112.821 22.7312C113.261 22.9816 113.777 23.1068 114.368 23.1068C114.764 23.1068 115.122 23.0517 115.443 22.9415C115.763 22.8264 116.041 22.6586 116.276 22.4382C116.512 22.2178 116.69 21.9449 116.81 21.6193L119.349 21.9048C119.189 22.5759 118.883 23.1619 118.433 23.6628C117.987 24.1586 117.416 24.5442 116.72 24.8197C116.023 25.0902 115.227 25.2254 114.331 25.2254ZM126.781 29.5677C125.804 29.5677 124.965 29.4349 124.264 29.1695C123.563 28.9091 123 28.5585 122.574 28.1177C122.148 27.677 121.853 27.1887 121.687 26.6528L124.136 26.0593C124.247 26.2847 124.407 26.5075 124.617 26.7279C124.828 26.9533 125.111 27.1386 125.466 27.2838C125.827 27.4341 126.28 27.5092 126.826 27.5092C127.597 27.5092 128.236 27.3214 128.742 26.9458C129.248 26.5751 129.5 25.9641 129.5 25.1127V22.9265H129.365C129.225 23.207 129.02 23.495 128.749 23.7905C128.484 24.086 128.131 24.3339 127.69 24.5342C127.254 24.7346 126.706 24.8347 126.045 24.8347C125.158 24.8347 124.354 24.6269 123.633 24.2112C122.917 23.7905 122.346 23.1644 121.92 22.333C121.5 21.4966 121.289 20.4499 121.289 19.1928C121.289 17.9256 121.5 16.8563 121.92 15.9849C122.346 15.1084 122.919 14.4448 123.641 13.994C124.362 13.5383 125.166 13.3104 126.052 13.3104C126.728 13.3104 127.284 13.4256 127.72 13.656C128.161 13.8813 128.511 14.1543 128.772 14.4748C129.032 14.7904 129.23 15.0884 129.365 15.3688H129.516V13.4606H132.198V25.1878C132.198 26.1745 131.962 26.9908 131.491 27.6369C131.021 28.283 130.377 28.7663 129.561 29.0869C128.744 29.4074 127.818 29.5677 126.781 29.5677ZM126.803 22.7011C127.379 22.7011 127.87 22.5609 128.276 22.2804C128.682 22 128.99 21.5968 129.2 21.0709C129.41 20.545 129.516 19.914 129.516 19.1777C129.516 18.4515 129.41 17.8154 129.2 17.2695C128.995 16.7236 128.689 16.3004 128.283 15.9999C127.883 15.6944 127.389 15.5416 126.803 15.5416C126.197 15.5416 125.692 15.6994 125.286 16.0149C124.88 16.3304 124.575 16.7637 124.369 17.3146C124.164 17.8605 124.061 18.4816 124.061 19.1777C124.061 19.8839 124.164 20.5024 124.369 21.0333C124.58 21.5592 124.888 21.9699 125.293 22.2654C125.704 22.5559 126.207 22.7011 126.803 22.7011ZM140.093 25.2254C138.936 25.2254 137.937 24.985 137.096 24.5042C136.259 24.0184 135.616 23.3322 135.165 22.4457C134.714 21.5542 134.489 20.505 134.489 19.2979C134.489 18.1109 134.714 17.0692 135.165 16.1727C135.621 15.2712 136.257 14.57 137.073 14.0691C137.89 13.5633 138.849 13.3104 139.951 13.3104C140.662 13.3104 141.333 13.4256 141.964 13.656C142.6 13.8813 143.161 14.2319 143.647 14.7077C144.138 15.1835 144.523 15.7895 144.804 16.5258C145.084 17.257 145.224 18.1285 145.224 19.1402V19.9741H135.766V18.141H142.618C142.612 17.6201 142.5 17.1568 142.279 16.7512C142.059 16.3405 141.751 16.0174 141.355 15.782C140.965 15.5466 140.509 15.4289 139.988 15.4289C139.432 15.4289 138.944 15.5642 138.523 15.8346C138.102 16.1001 137.774 16.4506 137.539 16.8864C137.309 17.3171 137.191 17.7904 137.186 18.3063V19.9064C137.186 20.5776 137.309 21.1535 137.554 21.6343C137.799 22.1101 138.142 22.4758 138.583 22.7312C139.024 22.9816 139.54 23.1068 140.131 23.1068C140.526 23.1068 140.885 23.0517 141.205 22.9415C141.526 22.8264 141.804 22.6586 142.039 22.4382C142.274 22.2178 142.452 21.9449 142.572 21.6193L145.112 21.9048C144.951 22.5759 144.646 23.1619 144.195 23.6628C143.749 24.1586 143.178 24.5442 142.482 24.8197C141.786 25.0902 140.99 25.2254 140.093 25.2254ZM156.007 13.8438C155.937 13.1877 155.641 12.6768 155.12 12.3112C154.605 11.9456 153.933 11.7628 153.107 11.7628C152.526 11.7628 152.028 11.8504 151.612 12.0257C151.196 12.201 150.878 12.4389 150.658 12.7394C150.438 13.0399 150.325 13.383 150.32 13.7686C150.32 14.0892 150.392 14.3671 150.538 14.6025C150.688 14.8379 150.891 15.0383 151.146 15.2036C151.402 15.3638 151.685 15.499 151.995 15.6092C152.306 15.7194 152.619 15.8121 152.934 15.8872L154.377 16.2478C154.958 16.383 155.516 16.5658 156.052 16.7962C156.593 17.0266 157.076 17.3171 157.502 17.6677C157.933 18.0183 158.273 18.4415 158.524 18.9373C158.774 19.4332 158.899 20.0141 158.899 20.6802C158.899 21.5818 158.669 22.3756 158.208 23.0617C157.747 23.7429 157.081 24.2763 156.21 24.6619C155.343 25.0426 154.294 25.2329 153.062 25.2329C151.865 25.2329 150.826 25.0476 149.944 24.677C149.068 24.3063 148.382 23.7654 147.886 23.0542C147.395 22.343 147.129 21.4766 147.089 20.4549H149.831C149.872 20.9908 150.037 21.4365 150.327 21.7921C150.618 22.1477 150.996 22.4132 151.462 22.5885C151.933 22.7637 152.458 22.8514 153.039 22.8514C153.645 22.8514 154.176 22.7612 154.632 22.5809C155.093 22.3956 155.453 22.1402 155.714 21.8147C155.974 21.4841 156.107 21.0984 156.112 20.6577C156.107 20.257 155.989 19.9265 155.759 19.666C155.529 19.4006 155.206 19.1802 154.79 19.0049C154.379 18.8246 153.898 18.6644 153.347 18.5241L151.597 18.0734C150.33 17.7478 149.328 17.2545 148.592 16.5934C147.861 15.9273 147.495 15.0433 147.495 13.9414C147.495 13.0349 147.74 12.2411 148.231 11.5599C148.727 10.8788 149.401 10.3504 150.252 9.97477C151.104 9.59413 152.068 9.40382 153.145 9.40382C154.236 9.40382 155.193 9.59413 156.014 9.97477C156.841 10.3504 157.489 10.8738 157.96 11.5449C158.431 12.211 158.674 12.9773 158.689 13.8438H156.007ZM163.983 18.2386V25H161.264V9.61417H163.923V15.4214H164.059C164.329 14.7703 164.747 14.257 165.313 13.8813C165.884 13.5007 166.61 13.3104 167.492 13.3104C168.293 13.3104 168.992 13.4782 169.588 13.8137C170.184 14.1493 170.645 14.6401 170.97 15.2862C171.301 15.9323 171.466 16.7211 171.466 17.6527V25H168.746V18.0734C168.746 17.2971 168.546 16.6936 168.145 16.2628C167.75 15.8271 167.194 15.6092 166.478 15.6092C165.997 15.6092 165.566 15.7144 165.185 15.9248C164.81 16.1301 164.514 16.4281 164.299 16.8188C164.089 17.2094 163.983 17.6827 163.983 18.2386ZM177.559 25.2329C176.827 25.2329 176.169 25.1027 175.583 24.8422C175.002 24.5768 174.541 24.1861 174.201 23.6703C173.865 23.1544 173.697 22.5183 173.697 21.7621C173.697 21.111 173.817 20.5726 174.058 20.1469C174.298 19.7211 174.626 19.3806 175.042 19.1251C175.458 18.8697 175.926 18.6769 176.447 18.5467C176.973 18.4114 177.516 18.3138 178.077 18.2537C178.753 18.1836 179.302 18.121 179.722 18.0659C180.143 18.0058 180.449 17.9156 180.639 17.7954C180.834 17.6702 180.932 17.4774 180.932 17.2169V17.1719C180.932 16.6059 180.764 16.1677 180.428 15.8571C180.093 15.5466 179.61 15.3914 178.979 15.3914C178.312 15.3914 177.784 15.5366 177.393 15.8271C177.008 16.1176 176.747 16.4607 176.612 16.8563L174.073 16.4957C174.273 15.7945 174.604 15.2086 175.064 14.7378C175.525 14.262 176.089 13.9064 176.755 13.671C177.421 13.4306 178.157 13.3104 178.964 13.3104C179.519 13.3104 180.073 13.3755 180.624 13.5057C181.175 13.6359 181.678 13.8513 182.134 14.1518C182.59 14.4473 182.955 14.8505 183.231 15.3613C183.511 15.8722 183.651 16.5107 183.651 17.277V25H181.037V23.4148H180.947C180.782 23.7354 180.549 24.0359 180.248 24.3164C179.953 24.5918 179.58 24.8147 179.129 24.985C178.683 25.1503 178.16 25.2329 177.559 25.2329ZM178.265 23.2345C178.811 23.2345 179.284 23.1269 179.685 22.9115C180.085 22.6911 180.393 22.4006 180.609 22.04C180.829 21.6794 180.939 21.2863 180.939 20.8606V19.5008C180.854 19.5709 180.709 19.636 180.504 19.6961C180.303 19.7562 180.078 19.8088 179.827 19.8539C179.577 19.8989 179.329 19.939 179.084 19.9741C178.838 20.0091 178.625 20.0392 178.445 20.0642C178.039 20.1193 177.676 20.2095 177.356 20.3347C177.035 20.4599 176.782 20.6352 176.597 20.8606C176.412 21.0809 176.319 21.3664 176.319 21.717C176.319 22.2178 176.502 22.596 176.868 22.8514C177.233 23.1068 177.699 23.2345 178.265 23.2345ZM189.707 25.2329C188.975 25.2329 188.317 25.1027 187.731 24.8422C187.15 24.5768 186.689 24.1861 186.348 23.6703C186.013 23.1544 185.845 22.5183 185.845 21.7621C185.845 21.111 185.965 20.5726 186.206 20.1469C186.446 19.7211 186.774 19.3806 187.19 19.1251C187.606 18.8697 188.074 18.6769 188.595 18.5467C189.121 18.4114 189.664 18.3138 190.225 18.2537C190.901 18.1836 191.449 18.121 191.87 18.0659C192.291 18.0058 192.596 17.9156 192.787 17.7954C192.982 17.6702 193.08 17.4774 193.08 17.2169V17.1719C193.08 16.6059 192.912 16.1677 192.576 15.8571C192.241 15.5466 191.758 15.3914 191.126 15.3914C190.46 15.3914 189.932 15.5366 189.541 15.8271C189.156 16.1176 188.895 16.4607 188.76 16.8563L186.221 16.4957C186.421 15.7945 186.752 15.2086 187.212 14.7378C187.673 14.262 188.237 13.9064 188.903 13.671C189.569 13.4306 190.305 13.3104 191.111 13.3104C191.667 13.3104 192.221 13.3755 192.772 13.5057C193.323 13.6359 193.826 13.8513 194.282 14.1518C194.738 14.4473 195.103 14.8505 195.379 15.3613C195.659 15.8722 195.799 16.5107 195.799 17.277V25H193.185V23.4148H193.095C192.929 23.7354 192.697 24.0359 192.396 24.3164C192.101 24.5918 191.727 24.8147 191.277 24.985C190.831 25.1503 190.308 25.2329 189.707 25.2329ZM190.413 23.2345C190.959 23.2345 191.432 23.1269 191.833 22.9115C192.233 22.6911 192.541 22.4006 192.757 22.04C192.977 21.6794 193.087 21.2863 193.087 20.8606V19.5008C193.002 19.5709 192.857 19.636 192.652 19.6961C192.451 19.7562 192.226 19.8088 191.975 19.8539C191.725 19.8989 191.477 19.939 191.232 19.9741C190.986 20.0091 190.773 20.0392 190.593 20.0642C190.187 20.1193 189.824 20.2095 189.504 20.3347C189.183 20.4599 188.93 20.6352 188.745 20.8606C188.56 21.0809 188.467 21.3664 188.467 21.717C188.467 22.2178 188.65 22.596 189.015 22.8514C189.381 23.1068 189.847 23.2345 190.413 23.2345ZM201.253 9.61417V25H198.534V9.61417H201.253ZM207.371 25.2329C206.639 25.2329 205.981 25.1027 205.395 24.8422C204.814 24.5768 204.353 24.1861 204.012 23.6703C203.677 23.1544 203.509 22.5183 203.509 21.7621C203.509 21.111 203.629 20.5726 203.87 20.1469C204.11 19.7211 204.438 19.3806 204.854 19.1251C205.27 18.8697 205.738 18.6769 206.259 18.5467C206.785 18.4114 207.328 18.3138 207.889 18.2537C208.565 18.1836 209.114 18.121 209.534 18.0659C209.955 18.0058 210.26 17.9156 210.451 17.7954C210.646 17.6702 210.744 17.4774 210.744 17.2169V17.1719C210.744 16.6059 210.576 16.1677 210.24 15.8571C209.905 15.5466 209.422 15.3914 208.79 15.3914C208.124 15.3914 207.596 15.5366 207.205 15.8271C206.82 16.1176 206.559 16.4607 206.424 16.8563L203.885 16.4957C204.085 15.7945 204.416 15.2086 204.876 14.7378C205.337 14.262 205.901 13.9064 206.567 13.671C207.233 13.4306 207.969 13.3104 208.775 13.3104C209.331 13.3104 209.885 13.3755 210.436 13.5057C210.987 13.6359 211.49 13.8513 211.946 14.1518C212.402 14.4473 212.767 14.8505 213.043 15.3613C213.323 15.8722 213.463 16.5107 213.463 17.277V25H210.849V23.4148H210.759C210.594 23.7354 210.361 24.0359 210.06 24.3164C209.765 24.5918 209.391 24.8147 208.941 24.985C208.495 25.1503 207.972 25.2329 207.371 25.2329ZM208.077 23.2345C208.623 23.2345 209.096 23.1269 209.497 22.9115C209.897 22.6911 210.205 22.4006 210.421 22.04C210.641 21.6794 210.751 21.2863 210.751 20.8606V19.5008C210.666 19.5709 210.521 19.636 210.316 19.6961C210.115 19.7562 209.89 19.8088 209.639 19.8539C209.389 19.8989 209.141 19.939 208.896 19.9741C208.65 20.0091 208.437 20.0392 208.257 20.0642C207.851 20.1193 207.488 20.2095 207.168 20.3347C206.847 20.4599 206.594 20.6352 206.409 20.8606C206.224 21.0809 206.131 21.3664 206.131 21.717C206.131 22.2178 206.314 22.596 206.679 22.8514C207.045 23.1068 207.511 23.2345 208.077 23.2345Z" fill="#001378"/>
<path d="M70.414 48.5253V39.7334H71.6976V43.0003H71.7749C71.8493 42.8629 71.9566 42.7041 72.0969 42.5238C72.2371 42.3435 72.4317 42.1861 72.6807 42.0515C72.9297 41.9142 73.2588 41.8455 73.6681 41.8455C74.2004 41.8455 74.6755 41.98 75.0933 42.249C75.5112 42.518 75.8389 42.9058 76.0764 43.4124C76.3168 43.919 76.437 44.5286 76.437 45.2412C76.437 45.9538 76.3182 46.5648 76.0807 47.0743C75.8431 47.5808 75.5169 47.9715 75.1019 48.2462C74.6869 48.5181 74.2133 48.6541 73.6809 48.6541C73.2803 48.6541 72.9526 48.5868 72.6979 48.4523C72.446 48.3178 72.2485 48.1604 72.1054 47.9801C71.9623 47.7998 71.8522 47.6395 71.7749 47.4993H71.6676V48.5253H70.414ZM71.6719 45.2283C71.6719 45.6919 71.7391 46.0983 71.8736 46.4475C72.0081 46.7967 72.2027 47.07 72.4575 47.2674C72.7122 47.4621 73.0241 47.5594 73.3933 47.5594C73.7768 47.5594 74.0974 47.4578 74.3549 47.2546C74.6125 47.0485 74.8071 46.7695 74.9388 46.4174C75.0733 46.0654 75.1405 45.669 75.1405 45.2283C75.1405 44.7933 75.0747 44.4026 74.9431 44.0563C74.8143 43.71 74.6197 43.4367 74.3592 43.2364C74.1017 43.0361 73.7797 42.9359 73.3933 42.9359C73.0213 42.9359 72.7065 43.0318 72.4489 43.2235C72.1942 43.4153 72.001 43.6829 71.8693 44.0263C71.7377 44.3697 71.6719 44.7704 71.6719 45.2283ZM78.4654 50.998C78.2737 50.998 78.0991 50.9823 77.9417 50.9508C77.7843 50.9221 77.6669 50.8907 77.5896 50.8563L77.8987 49.8046C78.1334 49.8675 78.3423 49.8947 78.5255 49.8861C78.7087 49.8775 78.8704 49.8089 79.0106 49.6801C79.1537 49.5513 79.2796 49.3409 79.3884 49.049L79.5472 48.6111L77.1346 41.9313H78.5083L80.1783 47.0485H80.247L81.9169 41.9313H83.2949L80.5775 49.4053C80.4516 49.7488 80.2913 50.0392 80.0967 50.2768C79.9021 50.5172 79.6703 50.6975 79.4013 50.8177C79.1322 50.9379 78.8203 50.998 78.4654 50.998ZM87.8036 48.5253V39.7334H93.2556V40.8753H89.1301V43.5541H92.8649V44.6917H89.1301V48.5253H87.8036ZM98.5477 45.7907V41.9313H99.8356V48.5253H98.5734V47.3834H98.5048C98.3531 47.7354 98.1098 48.0287 97.775 48.2634C97.443 48.4952 97.0294 48.6111 96.5343 48.6111C96.1107 48.6111 95.7358 48.5181 95.4096 48.3321C95.0862 48.1432 94.8315 47.8642 94.6454 47.495C94.4623 47.1258 94.3707 46.6693 94.3707 46.1255V41.9313H95.6543V45.971C95.6543 46.4203 95.7788 46.778 96.0277 47.0442C96.2767 47.3104 96.6001 47.4435 96.9979 47.4435C97.2383 47.4435 97.4773 47.3834 97.7149 47.2631C97.9553 47.1429 98.1542 46.9612 98.3116 46.7179C98.4718 46.4747 98.5506 46.1656 98.5477 45.7907ZM102.844 44.6101V48.5253H101.56V41.9313H102.792V43.0046H102.874C103.026 42.6554 103.263 42.3749 103.587 42.1632C103.913 41.9514 104.323 41.8455 104.819 41.8455C105.268 41.8455 105.661 41.9399 105.999 42.1288C106.337 42.3148 106.599 42.5925 106.785 42.9616C106.971 43.3308 107.064 43.7873 107.064 44.3311V48.5253H105.78V44.4856C105.78 44.0077 105.656 43.6342 105.407 43.3652C105.158 43.0933 104.816 42.9573 104.381 42.9573C104.083 42.9573 103.818 43.0217 103.587 43.1505C103.358 43.2793 103.176 43.4682 103.041 43.7172C102.91 43.9633 102.844 44.261 102.844 44.6101ZM111.563 48.6583C110.925 48.6583 110.375 48.5138 109.914 48.2248C109.456 47.9328 109.104 47.5307 108.858 47.0185C108.612 46.5062 108.489 45.9195 108.489 45.2584C108.489 44.5887 108.615 43.9977 108.867 43.4854C109.119 42.9702 109.474 42.5681 109.931 42.2791C110.389 41.99 110.929 41.8455 111.55 41.8455C112.051 41.8455 112.497 41.9385 112.889 42.1245C113.281 42.3077 113.598 42.5653 113.838 42.8972C114.081 43.2292 114.226 43.617 114.272 44.0606H113.022C112.954 43.7515 112.796 43.4854 112.55 43.2621C112.307 43.0389 111.981 42.9273 111.571 42.9273C111.214 42.9273 110.9 43.0217 110.631 43.2106C110.365 43.3967 110.158 43.6628 110.009 44.0091C109.86 44.3525 109.785 44.7589 109.785 45.2283C109.785 45.7091 109.858 46.1241 110.004 46.4733C110.15 46.8224 110.356 47.0929 110.623 47.2846C110.892 47.4764 111.208 47.5722 111.571 47.5722C111.815 47.5722 112.035 47.5279 112.232 47.4392C112.433 47.3476 112.6 47.2174 112.735 47.0485C112.872 46.8796 112.968 46.6765 113.022 46.4389H114.272C114.226 46.8653 114.087 47.246 113.855 47.5808C113.623 47.9157 113.313 48.179 112.924 48.3707C112.537 48.5625 112.084 48.6583 111.563 48.6583ZM118.722 41.9313V42.9616H115.121V41.9313H118.722ZM116.086 40.3515H117.37V46.5892C117.37 46.8382 117.407 47.0256 117.482 47.1515C117.556 47.2746 117.652 47.359 117.769 47.4048C117.889 47.4477 118.02 47.4692 118.16 47.4692C118.263 47.4692 118.353 47.4621 118.43 47.4477C118.508 47.4334 118.568 47.422 118.611 47.4134L118.842 48.4738C118.768 48.5024 118.662 48.531 118.525 48.5596C118.387 48.5911 118.216 48.6083 118.01 48.6111C117.672 48.6169 117.357 48.5567 117.065 48.4308C116.773 48.3049 116.537 48.1103 116.357 47.847C116.177 47.5837 116.086 47.2531 116.086 46.8553V40.3515ZM120.142 48.5253V41.9313H121.426V48.5253H120.142ZM120.79 40.9139C120.567 40.9139 120.375 40.8395 120.215 40.6907C120.058 40.539 119.979 40.3587 119.979 40.1498C119.979 39.938 120.058 39.7577 120.215 39.6089C120.375 39.4572 120.567 39.3813 120.79 39.3813C121.014 39.3813 121.204 39.4572 121.361 39.6089C121.522 39.7577 121.602 39.938 121.602 40.1498C121.602 40.3587 121.522 40.539 121.361 40.6907C121.204 40.8395 121.014 40.9139 120.79 40.9139ZM125.93 48.6583C125.312 48.6583 124.772 48.5167 124.312 48.2333C123.851 47.95 123.493 47.5536 123.238 47.0442C122.984 46.5348 122.856 45.9395 122.856 45.2584C122.856 44.5743 122.984 43.9762 123.238 43.4639C123.493 42.9516 123.851 42.5538 124.312 42.2705C124.772 41.9871 125.312 41.8455 125.93 41.8455C126.548 41.8455 127.088 41.9871 127.549 42.2705C128.009 42.5538 128.367 42.9516 128.622 43.4639C128.876 43.9762 129.004 44.5743 129.004 45.2584C129.004 45.9395 128.876 46.5348 128.622 47.0442C128.367 47.5536 128.009 47.95 127.549 48.2333C127.088 48.5167 126.548 48.6583 125.93 48.6583ZM125.934 47.5808C126.335 47.5808 126.667 47.4749 126.93 47.2631C127.194 47.0514 127.388 46.7695 127.514 46.4174C127.643 46.0654 127.707 45.6776 127.707 45.2541C127.707 44.8334 127.643 44.447 127.514 44.095C127.388 43.7401 127.194 43.4553 126.93 43.2407C126.667 43.026 126.335 42.9187 125.934 42.9187C125.531 42.9187 125.196 43.026 124.93 43.2407C124.667 43.4553 124.47 43.7401 124.342 44.095C124.216 44.447 124.153 44.8334 124.153 45.2541C124.153 45.6776 124.216 46.0654 124.342 46.4174C124.47 46.7695 124.667 47.0514 124.93 47.2631C125.196 47.4749 125.531 47.5808 125.934 47.5808ZM131.72 44.6101V48.5253H130.437V41.9313H131.669V43.0046H131.75C131.902 42.6554 132.139 42.3749 132.463 42.1632C132.789 41.9514 133.2 41.8455 133.695 41.8455C134.144 41.8455 134.538 41.9399 134.875 42.1288C135.213 42.3148 135.475 42.5925 135.661 42.9616C135.847 43.3308 135.94 43.7873 135.94 44.3311V48.5253H134.657V44.4856C134.657 44.0077 134.532 43.6342 134.283 43.3652C134.034 43.0933 133.692 42.9573 133.257 42.9573C132.959 42.9573 132.695 43.0217 132.463 43.1505C132.234 43.2793 132.052 43.4682 131.918 43.7172C131.786 43.9633 131.72 44.261 131.72 44.6101ZM143.418 39.7334H144.749V45.5159C144.749 46.1312 144.605 46.6765 144.316 47.1515C144.027 47.6238 143.62 47.9958 143.096 48.2677C142.573 48.5367 141.959 48.6712 141.255 48.6712C140.554 48.6712 139.941 48.5367 139.417 48.2677C138.894 47.9958 138.487 47.6238 138.198 47.1515C137.909 46.6765 137.765 46.1312 137.765 45.5159V39.7334H139.091V45.4086C139.091 45.8064 139.178 46.1599 139.353 46.469C139.53 46.778 139.781 47.0213 140.104 47.1988C140.428 47.3733 140.811 47.4606 141.255 47.4606C141.701 47.4606 142.086 47.3733 142.41 47.1988C142.736 47.0213 142.985 46.778 143.157 46.469C143.331 46.1599 143.418 45.8064 143.418 45.4086V39.7334ZM146.575 50.998V41.9313H147.828V43.0003H147.936C148.01 42.8629 148.117 42.7041 148.258 42.5238C148.398 42.3435 148.592 42.1861 148.841 42.0515C149.09 41.9142 149.42 41.8455 149.829 41.8455C150.361 41.8455 150.836 41.98 151.254 42.249C151.672 42.518 152 42.9058 152.237 43.4124C152.478 43.919 152.598 44.5286 152.598 45.2412C152.598 45.9538 152.479 46.5648 152.241 47.0743C152.004 47.5808 151.678 47.9715 151.263 48.2462C150.848 48.5181 150.374 48.6541 149.842 48.6541C149.441 48.6541 149.113 48.5868 148.859 48.4523C148.607 48.3178 148.409 48.1604 148.266 47.9801C148.123 47.7998 148.013 47.6395 147.936 47.4993H147.858V50.998H146.575ZM147.833 45.2283C147.833 45.6919 147.9 46.0983 148.034 46.4475C148.169 46.7967 148.363 47.07 148.618 47.2674C148.873 47.4621 149.185 47.5594 149.554 47.5594C149.938 47.5594 150.258 47.4578 150.516 47.2546C150.773 47.0485 150.968 46.7695 151.099 46.4174C151.234 46.0654 151.301 45.669 151.301 45.2283C151.301 44.7933 151.235 44.4026 151.104 44.0563C150.975 43.71 150.78 43.4367 150.52 43.2364C150.262 43.0361 149.94 42.9359 149.554 42.9359C149.182 42.9359 148.867 43.0318 148.61 43.2235C148.355 43.4153 148.162 43.6829 148.03 44.0263C147.898 44.3697 147.833 44.7704 147.833 45.2283Z" fill="#2D2BB4"/>
</svg>
