<svg width="20" height="20" viewBox="0 0 20 20" fill="none" xmlns="http://www.w3.org/2000/svg">
<path d="M18.75 0H1.25C0.625 0 0 0.625 0 1.25V15.3127C0 15.9377 0.625 16.5627 1.25 16.5627H7.5V17.8127C7.5 18.6807 6.374 19.0627 5 19.0627V20H15V19.0623C13.6257 19.0623 12.5 18.6803 12.5 17.8123V16.5623H18.75C19.375 16.5623 20 15.9373 20 15.3123V1.25C20 0.625 19.375 0 18.75 0ZM19.3333 15.3127C19.3333 15.569 19.006 15.896 18.75 15.896H1.25C0.993667 15.896 0.666667 15.569 0.666667 15.3127V14.0627H19.3333V15.3127Z" fill="black"/>
</svg>
