<svg width="24" height="33" viewBox="0 0 24 33" fill="none" xmlns="http://www.w3.org/2000/svg">
<path id="Vector" d="M12.0922 15.5728C11.0327 15.5728 10.0165 15.1519 9.26732 14.4027C8.51811 13.6535 8.09721 12.6373 8.09721 11.5778C8.09721 10.5183 8.51811 9.50212 9.26732 8.75291C10.0165 8.00371 11.0327 7.58281 12.0922 7.58281C13.1517 7.58281 14.1679 8.00371 14.9171 8.75291C15.6663 9.50212 16.0872 10.5183 16.0872 11.5778C16.0872 12.1024 15.9838 12.6219 15.7831 13.1066C15.5823 13.5913 15.288 14.0317 14.9171 14.4027C14.5461 14.7736 14.1057 15.0679 13.621 15.2687C13.1363 15.4694 12.6168 15.5728 12.0922 15.5728ZM12.0922 0.391846C9.1255 0.391846 6.28031 1.57036 4.18254 3.66813C2.08477 5.7659 0.90625 8.61109 0.90625 11.5778C0.90625 19.9673 12.0922 32.3517 12.0922 32.3517C12.0922 32.3517 23.2781 19.9673 23.2781 11.5778C23.2781 8.61109 22.0996 5.7659 20.0019 3.66813C17.9041 1.57036 15.0589 0.391846 12.0922 0.391846Z" fill="#2A289C"/>
</svg>
