<svg width="38" height="38" viewBox="0 0 38 38" fill="none" xmlns="http://www.w3.org/2000/svg">
<g id="solar:book-bold">
<g id="Group">
<path id="Vector" fill-rule="evenodd" clip-rule="evenodd" d="M10.5962 3.51146C9.34976 3.67457 8.69115 3.97464 8.22028 4.43474C7.75094 4.89638 7.44472 5.54268 7.27699 6.76296C7.10464 8.02016 7.10156 9.68515 7.10156 12.0718V25.2594C7.71047 24.8426 8.38668 24.5339 9.10047 24.3469C9.91296 24.133 10.8609 24.133 12.2504 24.1346H31.7225V12.0734C31.7225 9.68515 31.7194 8.02016 31.5471 6.76296C31.3793 5.54268 31.0731 4.89638 30.6038 4.43474C30.1329 3.97464 29.4743 3.67457 28.2278 3.51146C26.9445 3.34219 25.2456 3.33911 22.8082 3.33911H16.0159C13.5784 3.33911 11.8796 3.34219 10.5962 3.51146ZM11.3471 10.4099C11.3471 9.72055 11.9165 9.16196 12.6197 9.16196H26.2043C26.5382 9.15908 26.8596 9.28865 27.0981 9.52227C27.3366 9.7559 27.4728 10.0745 27.4769 10.4084C27.4733 10.7425 27.3372 11.0615 27.0986 11.2955C26.8601 11.5295 26.5384 11.6592 26.2043 11.6564H12.6197C12.2859 11.6592 11.9645 11.5297 11.7259 11.2961C11.4874 11.0624 11.3512 10.7438 11.3471 10.4099ZM12.6197 14.9848C12.2859 14.9819 11.9645 15.1115 11.7259 15.3451C11.4874 15.5787 11.3512 15.8974 11.3471 16.2312C11.3471 16.9206 11.9165 17.4792 12.6197 17.4792H21.1093C21.4435 17.4825 21.7653 17.3531 22.0041 17.1194C22.243 16.8858 22.3794 16.5669 22.3835 16.2328C22.3798 15.8984 22.2436 15.5791 22.0047 15.3451C21.7657 15.1111 21.4437 14.9815 21.1093 14.9848H12.6197Z" fill="#2A289C"/>
<path id="Vector_2" d="M12.4466 26.6284H31.7232C31.7186 28.3673 31.6909 29.666 31.5493 30.6909C31.3816 31.9111 31.0754 32.5574 30.606 33.0191C30.1351 33.4792 29.4765 33.7793 28.2301 33.9424C26.9467 34.1116 25.2479 34.1147 22.8104 34.1147H16.0166C13.5791 34.1147 11.8803 34.1116 10.5969 33.9439C9.35047 33.7793 8.69186 33.4792 8.22099 33.0191C7.75165 32.5574 7.44543 31.9111 7.2777 30.6909C7.21461 30.2292 7.17306 29.7106 7.14844 29.1213C7.35981 28.5452 7.70787 28.0289 8.16272 27.617C8.61757 27.205 9.16562 26.9096 9.75979 26.7561C10.206 26.6392 10.7862 26.6284 12.4466 26.6284Z" fill="#2A289C"/>
</g>
</g>
</svg>
