<svg width="106" height="127" viewBox="0 0 106 127" fill="none" xmlns="http://www.w3.org/2000/svg">
<path fill-rule="evenodd" clip-rule="evenodd" d="M0.000213819 2.04457C0.000213819 2.04457 -0.000267274 68.8164 0.000213819 74.6079C0.000694912 80.3993 5.0972 99.1363 29.9025 113.104C49.122 123.926 52.4448 125.76 52.9667 126.037L52.9667 126.066C52.9667 126.066 52.8954 126.109 53.0001 126.054C53.1047 126.109 53.0335 126.066 53.0335 126.066L53.0335 126.037C53.5553 125.76 56.8781 123.926 76.0976 113.104C100.903 99.1363 105.999 80.3993 106 74.6079C106 68.8164 106 2.04457 106 2.04457C81.5765 7.92548 69.0256 8.43615 53.0571 0.0599841L53.0571 0L53.0001 0.0300245L52.943 0L52.943 0.0599841C36.9746 8.43615 24.4236 7.92548 0.000213819 2.04457ZM85.9678 31.7895V42.1803H85.0085H66.577C63.6993 42.1803 62.1425 43.7248 62.1303 46.5885C62.1233 48.1331 62.125 49.6759 62.1303 51.2204C62.1425 54.8896 64.6166 57.4406 68.2718 57.3445C72.1052 57.2449 75.6661 57.991 78.8757 60.161C84.3621 63.8739 87.0528 70.6252 85.6305 77.1266C84.2555 83.4149 78.9579 88.5046 72.5892 89.5949C71.3906 89.7993 70.1606 89.9129 68.9445 89.9181C64.3161 89.9417 59.6877 89.9387 55.0593 89.9358H55.0553C53.5121 89.9348 51.9688 89.9338 50.4256 89.9338H49.3301V79.4068H50.3382C52.0542 79.4068 53.7703 79.4073 55.4863 79.4078H55.4967C60.2123 79.4091 64.9278 79.4105 69.6434 79.4015C72.5613 79.3963 75.1402 77.1528 75.4652 74.3747C75.8111 71.4202 73.9678 68.7294 71.0482 68.0323C70.3248 67.8593 69.5455 67.8558 68.7942 67.8733C64.5222 67.9676 60.6766 66.7918 57.411 63.9962C53.9288 61.0154 51.9177 57.2134 51.7238 52.6182C51.5945 49.5413 51.4652 46.4068 51.8968 43.3771C52.8473 36.6712 58.2759 31.9275 65.0639 31.7773C69.8415 31.6723 74.6225 31.6978 79.404 31.7233L79.4048 31.7233C81.4673 31.7343 83.5298 31.7453 85.5921 31.7458C85.6664 31.7458 85.7406 31.7569 85.8283 31.7701C85.8706 31.7764 85.916 31.7832 85.966 31.7895H85.9678ZM47.0778 79.1897V79.1884L47.0796 79.1901C47.079 79.19 47.0784 79.1898 47.0778 79.1897ZM47.0778 89.8814V79.1897C46.9938 79.1721 46.9213 79.1566 46.8558 79.1426C46.7532 79.1206 46.6677 79.1023 46.5816 79.0853C34.655 76.7545 28.0837 63.4842 33.5735 52.6567C36.6416 46.606 41.6404 43.1692 48.3987 42.3899C49.1955 42.2991 49.5659 42.0632 49.7843 41.2298C50.6928 37.7475 52.5781 34.8611 55.3737 32.581C55.5579 32.4306 55.7366 32.2732 55.9546 32.0812C56.0633 31.9855 56.1817 31.8813 56.3154 31.765C55.7367 31.765 55.1778 31.7666 54.6324 31.7682C53.462 31.7715 52.3539 31.7746 51.2467 31.7615C48.0842 31.7248 44.9741 32.0568 41.934 32.9636C27.8565 37.1552 18.9142 51.2973 21.5647 65.6945C23.7086 77.3345 30.6766 84.9909 41.8955 88.7195C43.0208 89.0934 44.1972 89.3172 45.3927 89.5446C45.9513 89.6508 46.5141 89.7579 47.0778 89.8814Z" fill="#FF2231"/>
</svg>
