<svg width="35" height="35" viewBox="0 0 35 35" fill="none" xmlns="http://www.w3.org/2000/svg">
<g id="healthicons:ui-user-profile-negative">
<g clip-path="url(#clip0_329_1924)">
<g id="Group">
<g id="Clip path group">
<mask id="mask0_329_1924" style="mask-type:luminance" maskUnits="userSpaceOnUse" x="0" y="0" width="35" height="35">
<g id="healthiconsUiUserProfileNegative0">
<path id="Vector" d="M0.0268555 0H34.1174V34.0905H0.0268555V0Z" fill="white"/>
</g>
</mask>
<g mask="url(#mask0_329_1924)">
<g id="Group_2">
<path id="Vector_2" fill-rule="evenodd" clip-rule="evenodd" d="M0.0268555 0H34.1174V34.0905H0.0268555V0Z" fill="#2A289C"/>
</g>
</g>
</g>
</g>
<path id="Vector_3" d="M28.2676 9.56345L17.7127 6.04514C17.5321 5.98495 17.3369 5.98495 17.1563 6.04514L6.60141 9.56345C6.42627 9.62183 6.27394 9.73384 6.166 9.88362C6.05806 10.0334 5.99999 10.2133 6 10.3979V19.1937C6 19.427 6.09267 19.6507 6.25762 19.8157C6.42257 19.9806 6.6463 20.0733 6.87958 20.0733C7.11285 20.0733 7.33658 19.9806 7.50153 19.8157C7.66648 19.6507 7.75915 19.427 7.75915 19.1937V11.6184L11.4523 12.8487C10.4711 14.4339 10.159 16.3437 10.5847 18.1588C11.0104 19.9738 12.139 21.5458 13.7227 22.5295C11.7436 23.3057 10.0329 24.7097 8.78166 26.6294C8.71659 26.7261 8.67139 26.8348 8.64869 26.9491C8.62599 27.0635 8.62625 27.1812 8.64944 27.2954C8.67263 27.4097 8.7183 27.5181 8.78379 27.6146C8.84927 27.711 8.93328 27.7935 9.03091 27.8571C9.12855 27.9208 9.23786 27.9645 9.35251 27.9855C9.46716 28.0066 9.58485 28.0046 9.69874 27.9798C9.81264 27.955 9.92046 27.9078 10.0159 27.8409C10.1114 27.7741 10.1927 27.6889 10.2549 27.5904C11.9118 25.0484 14.5286 23.5916 17.4345 23.5916C20.3404 23.5916 22.9571 25.0484 24.614 27.5904C24.743 27.7821 24.9423 27.9154 25.1688 27.9613C25.3953 28.0073 25.6307 27.9623 25.8243 27.8361C26.0179 27.7098 26.154 27.5125 26.2032 27.2867C26.2524 27.0609 26.2108 26.8248 26.0873 26.6294C24.8361 24.7097 23.1187 23.3057 21.1463 22.5295C22.7285 21.5458 23.856 19.9749 24.2816 18.1612C24.7072 16.3474 24.3962 14.4389 23.4167 12.8542L28.2676 11.2379C28.4427 11.1796 28.5951 11.0676 28.7031 10.9178C28.8111 10.768 28.8692 10.5881 28.8692 10.4034C28.8692 10.2188 28.8111 10.0388 28.7031 9.88907C28.5951 9.73929 28.4427 9.62729 28.2676 9.56894V9.56345ZM22.7119 16.555C22.7122 17.3893 22.5146 18.2118 22.1354 18.955C21.7562 19.6982 21.2062 20.3409 20.5305 20.8304C19.8548 21.3198 19.0727 21.6421 18.2484 21.7708C17.424 21.8995 16.5809 21.8308 15.7882 21.5706C14.9955 21.3103 14.2758 20.8658 13.6881 20.2735C13.1005 19.6812 12.6616 18.9581 12.4076 18.1633C12.1536 17.3686 12.0916 16.525 12.2267 15.7017C12.3619 14.8783 12.6903 14.0988 13.185 13.427L17.1563 14.7463C17.3369 14.8065 17.5321 14.8065 17.7127 14.7463L21.6839 13.427C22.3522 14.3329 22.7125 15.4292 22.7119 16.555Z" fill="white"/>
</g>
</g>
<defs>
<clipPath id="clip0_329_1924">
<rect x="0.00341797" width="34.0905" height="34.0905" rx="4.26131" fill="white"/>
</clipPath>
</defs>
</svg>
