<svg width="33" height="32" viewBox="0 0 33 32" fill="none" xmlns="http://www.w3.org/2000/svg">
<g id="teenyicons:certificate-solid" clip-path="url(#clip0_329_1946)">
<g id="Group">
<path id="Vector" fill-rule="evenodd" clip-rule="evenodd" d="M0.389404 3.2C0.389404 2.35131 0.726546 1.53737 1.32666 0.937258C1.92678 0.337142 2.74071 0 3.5894 0L29.1894 0C30.0381 0 30.852 0.337142 31.4521 0.937258C32.0523 1.53737 32.3894 2.35131 32.3894 3.2V11.7333L30.6827 10.4512C28.834 9.06468 26.5473 8.39154 24.2422 8.55535C21.9372 8.71917 19.7685 9.70895 18.1345 11.343C16.5005 12.977 15.5107 15.1456 15.3469 17.4507C15.1831 19.7557 15.8562 22.0425 17.2427 23.8912L17.4561 24.1771V32H3.5894C2.74071 32 1.92678 31.6629 1.32666 31.0627C0.726546 30.4626 0.389404 29.6487 0.389404 28.8L0.389404 3.2ZM17.4561 10.6667H6.7894V8.53333H17.4561V10.6667ZM6.7894 17.0667H13.1894V14.9333H6.7894V17.0667Z" fill="#2A289C"/>
<path id="Vector_2" fill-rule="evenodd" clip-rule="evenodd" d="M24.9228 10.666C23.4523 10.6658 22.0145 11.0998 20.7897 11.9136C19.5649 12.7274 18.6076 13.8847 18.038 15.2404C17.4684 16.5961 17.3118 18.0898 17.5878 19.5341C17.8638 20.9785 18.5601 22.3092 19.5895 23.3593V30.9327C19.5895 31.1308 19.6446 31.325 19.7488 31.4935C19.8529 31.662 20.0019 31.7981 20.1791 31.8867C20.3563 31.9753 20.5546 32.0128 20.7519 31.995C20.9492 31.9773 21.1377 31.9049 21.2961 31.786L24.9228 29.066L28.5495 31.786C28.708 31.9049 28.8964 31.9773 29.0937 31.995C29.291 32.0128 29.4893 31.9753 29.6665 31.8867C29.8437 31.7981 29.9927 31.662 30.0968 31.4935C30.201 31.325 30.2562 31.1308 30.2562 30.9327V23.3593C31.2855 22.3092 31.9818 20.9785 32.2579 19.5341C32.5339 18.0898 32.3772 16.5961 31.8076 15.2404C31.238 13.8847 30.2807 12.7274 29.0559 11.9136C27.8311 11.0998 26.3933 10.6658 24.9228 10.666ZM21.7228 28.7994V24.8804C22.6935 25.3412 23.7772 25.5993 24.9228 25.5993C26.0684 25.5993 27.1522 25.3434 28.1228 24.8804V28.7994L25.5628 26.8794C25.3782 26.7409 25.1536 26.666 24.9228 26.666C24.692 26.666 24.4675 26.7409 24.2828 26.8794L21.7228 28.7994Z" fill="#2A289C"/>
</g>
</g>
<defs>
<clipPath id="clip0_329_1946">
<rect width="32" height="32" fill="white" transform="translate(0.389404)"/>
</clipPath>
</defs>
</svg>
