<svg width="33" height="32" viewBox="0 0 33 32" fill="none" xmlns="http://www.w3.org/2000/svg">
<g id="healthicons:rupee-negative">
<g clip-path="url(#clip0_4966_1547)">
<g id="Group">
<g id="Clip path group">
<mask id="mask0_4966_1547" style="mask-type:luminance" maskUnits="userSpaceOnUse" x="0" y="0" width="33" height="32">
<g id="healthiconsRupeeNegative0">
<path id="Vector" d="M0.398438 0.28418H32.092V31.9777H0.398438V0.28418Z" fill="white"/>
</g>
</mask>
<g mask="url(#mask0_4966_1547)">
<g id="Group_2">
<path id="Vector_2" fill-rule="evenodd" clip-rule="evenodd" d="M32.092 0.28418H0.398438V31.9777H32.092V0.28418ZM12.2835 6.887C11.9333 6.887 11.5974 7.02613 11.3497 7.27378C11.1021 7.52143 10.9629 7.85732 10.9629 8.20756C10.9629 8.55779 11.1021 8.89368 11.3497 9.14134C11.5974 9.38899 11.9333 9.52812 12.2835 9.52812H13.6041C14.5813 9.52812 15.435 10.059 15.8919 10.8487H12.2835C11.9333 10.8487 11.5974 10.9878 11.3497 11.2355C11.1021 11.4831 10.9629 11.819 10.9629 12.1692C10.9629 12.5195 11.1021 12.8554 11.3497 13.103C11.5974 13.3507 11.9333 13.4898 12.2835 13.4898H15.8919C15.6602 13.8915 15.3267 14.225 14.9251 14.4569C14.5234 14.6887 14.0678 14.8106 13.6041 14.8104H12.2835C12.0444 14.8103 11.8098 14.8752 11.6047 14.9981C11.3996 15.1209 11.2317 15.2971 11.1189 15.5079C11.0061 15.7187 10.9527 15.9562 10.9643 16.195C10.9759 16.4338 11.0521 16.665 11.1848 16.8638L16.467 24.7872C16.6614 25.0786 16.9636 25.2809 17.3071 25.3495C17.6506 25.4181 18.0073 25.3474 18.2987 25.153C18.5901 24.9586 18.7923 24.6565 18.8609 24.313C18.9295 23.9695 18.8588 23.6128 18.6645 23.3214L14.6783 17.3419C15.6442 17.1406 16.5345 16.6731 17.2487 15.9924C17.9629 15.3118 18.4725 14.4449 18.7199 13.4898H20.2069C20.5571 13.4898 20.893 13.3507 21.1407 13.103C21.3883 12.8554 21.5274 12.5195 21.5274 12.1692C21.5274 11.819 21.3883 11.4831 21.1407 11.2355C20.893 10.9878 20.5571 10.8487 20.2069 10.8487H18.7199C18.6008 10.386 18.4191 9.94169 18.1798 9.52812H20.2069C20.5571 9.52812 20.893 9.38899 21.1407 9.14134C21.3883 8.89368 21.5274 8.55779 21.5274 8.20756C21.5274 7.85732 21.3883 7.52143 21.1407 7.27378C20.893 7.02613 20.5571 6.887 20.2069 6.887H12.2835Z" fill="#2A289C"/>
</g>
</g>
</g>
</g>
</g>
</g>
<defs>
<clipPath id="clip0_4966_1547">
<rect x="0.375" y="0.28418" width="31.6935" height="31.6935" rx="4.26131" fill="white"/>
</clipPath>
</defs>
</svg>
