<svg width="26" height="23" viewBox="0 0 26 23" fill="none" xmlns="http://www.w3.org/2000/svg">
<g id="fa6-solid:kit-medical" clip-path="url(#clip0_4966_943)">
<path id="Vector" d="M3.48437 1.92969C1.9762 1.92969 0.75 3.15588 0.75 4.66406V18.3359C0.75 19.8441 1.9762 21.0703 3.48437 21.0703H4.85156V1.92969H3.48437ZM6.21875 1.92969V21.0703H19.8906V1.92969H6.21875ZM22.625 21.0703C24.1332 21.0703 25.3594 19.8441 25.3594 18.3359V4.66406C25.3594 3.15588 24.1332 1.92969 22.625 1.92969H21.2578V21.0703H22.625ZM11.6875 8.08203C11.6875 7.70605 11.9951 7.39844 12.3711 7.39844H13.7383C14.1143 7.39844 14.4219 7.70605 14.4219 8.08203V10.1328H16.4727C16.8486 10.1328 17.1562 10.4404 17.1562 10.8164V12.1836C17.1562 12.5596 16.8486 12.8672 16.4727 12.8672H14.4219V14.918C14.4219 15.2939 14.1143 15.6016 13.7383 15.6016H12.3711C11.9951 15.6016 11.6875 15.2939 11.6875 14.918V12.8672H9.63672C9.26074 12.8672 8.95312 12.5596 8.95312 12.1836V10.8164C8.95312 10.4404 9.26074 10.1328 9.63672 10.1328H11.6875V8.08203Z" fill="black"/>
</g>
<defs>
<clipPath id="clip0_4966_943">
<rect width="24.6094" height="21.875" fill="white" transform="translate(0.75 0.5625)"/>
</clipPath>
</defs>
</svg>
