<svg width="35" height="35" viewBox="0 0 35 35" fill="none" xmlns="http://www.w3.org/2000/svg">
<g id="ic:outline-girl">
<path id="Vector" d="M25.177 23.1412L19.6173 13.8769V10.125H20.1798C20.4892 10.125 20.7423 9.87187 20.7423 9.5625C20.7423 9.25312 20.4892 9 20.1798 9H14.5548C14.2454 9 13.9923 9.25312 13.9923 9.5625C13.9923 9.87187 14.2454 10.125 14.5548 10.125H15.1173V13.8769L9.55753 23.1412C8.28403 25.263 9.26728 27 11.7423 27H22.9923C25.4673 27 26.4505 25.2641 25.177 23.1412ZM12.604 20.25L16.2423 14.1863V10.125H18.4923V14.1863L22.1305 20.25H12.604Z" fill="black"/>
</g>
</svg>
