<svg width="27" height="27" viewBox="0 0 27 27" fill="none" xmlns="http://www.w3.org/2000/svg">
<g id="mdi:youtube-sports">
<path id="Vector" d="M2.55156 16.0021C3.20781 15.7615 3.88594 15.6412 4.60781 15.6412C6.07344 15.6412 7.35312 16.1005 8.44687 17.0193L5.0125 20.4537C3.87308 19.1701 3.03258 17.6497 2.55156 16.0021ZM17.0109 10.7193C19.1656 12.3271 21.4953 12.7209 23.9891 11.9005C24.0219 12.1302 24.0547 12.5459 24.0547 13.1255C24.0547 14.2521 23.7812 15.5099 23.2672 16.899C22.7531 18.2771 22.1187 19.3927 21.375 20.2349L14.4516 13.3334L17.0109 10.7193ZM9.58437 18.2005C10.7437 19.874 10.9844 21.7005 10.2953 23.6912C8.74219 23.2427 7.35312 22.5427 6.19375 21.5802L9.58437 18.2005ZM13.325 14.4599L20.2266 21.3834C17.8531 23.4615 15.0641 24.3365 11.8922 23.9974C12.1219 23.2755 12.2422 22.488 12.2422 21.6349C12.2422 20.9568 12.0891 20.1584 11.7828 19.2505C11.4766 18.3427 11.1156 17.599 10.7109 17.0193L13.325 14.4599ZM9.62812 15.8599C8.63139 14.9685 7.40961 14.3671 6.09531 14.1209C4.76094 13.8693 3.48125 13.9459 2.24531 14.3615C2.2125 14.1209 2.17969 13.7052 2.17969 13.1255C2.17969 11.999 2.45312 10.7412 2.96719 9.3521C3.48125 7.97398 4.11562 6.85835 4.85937 6.01617L12.1437 13.3334L9.62812 15.8599ZM17.0109 8.45523C15.5453 6.65054 15.2062 4.68179 15.9937 2.55992C16.6719 2.73492 17.4484 3.06304 18.3234 3.56617C19.1875 4.05835 19.8984 4.55054 20.4453 5.02085L17.0109 8.45523ZM23.6828 10.2599C23.0266 10.4896 22.3484 10.6099 21.6266 10.6099C20.4344 10.6099 19.2859 10.2599 18.1922 9.53804L21.5719 6.2021C22.5344 7.40523 23.2344 8.75054 23.6828 10.2599ZM13.325 12.1521L6.00781 4.86773C8.38125 2.7896 11.1703 1.9146 14.3531 2.25367C14.1125 2.97554 13.9922 3.76304 13.9922 4.61617C13.9922 5.40367 14.1672 6.2896 14.5281 7.28492C14.8891 8.26929 15.3047 9.05679 15.8516 9.63648L13.325 12.1521Z" fill="black"/>
</g>
</svg>
