<svg width="39" height="38" viewBox="0 0 39 38" fill="none" xmlns="http://www.w3.org/2000/svg">
<g id="solar:graph-up-bold">
<path id="Vector" fill-rule="evenodd" clip-rule="evenodd" d="M6.3977 5.45668C4.10156 7.77982 4.10156 11.5133 4.10156 18.9835C4.10156 26.4536 4.10156 30.1887 6.3977 32.5087C8.69697 34.8302 12.3921 34.8302 19.7856 34.8302C27.179 34.8302 30.8757 34.8302 33.1719 32.5087C35.4696 30.1903 35.4696 26.4536 35.4696 18.9835C35.4696 11.5133 35.4696 7.77823 33.1719 5.45668C30.8773 3.13672 27.179 3.13672 19.7856 3.13672C12.3921 3.13672 8.69541 3.13672 6.3977 5.45668ZM22.5303 15.8141C22.5303 16.4702 23.0572 17.0026 23.7066 17.0026H24.7888L21.6316 20.1926C21.5951 20.2295 21.5519 20.2587 21.5042 20.2787C21.4566 20.2987 21.4055 20.309 21.354 20.309C21.3024 20.309 21.2513 20.2987 21.2037 20.2787C21.156 20.2587 21.1128 20.2295 21.0764 20.1926L18.5889 17.6793C18.0742 17.1596 17.3764 16.8677 16.6488 16.8677C15.9212 16.8677 15.2233 17.1596 14.7087 17.6793L11.1123 21.3129C10.9967 21.4218 10.904 21.553 10.8398 21.6988C10.7755 21.8445 10.7409 22.0019 10.7381 22.1615C10.7353 22.3211 10.7644 22.4796 10.8235 22.6276C10.8827 22.7756 10.9708 22.91 11.0825 23.0229C11.1942 23.1357 11.3272 23.2247 11.4737 23.2845C11.6201 23.3443 11.777 23.3736 11.935 23.3708C12.0929 23.368 12.2487 23.333 12.393 23.2681C12.5373 23.2031 12.6671 23.1095 12.7748 22.9927L16.3712 19.359C16.4076 19.3222 16.4508 19.2929 16.4985 19.2729C16.5461 19.2529 16.5972 19.2427 16.6488 19.2427C16.7003 19.2427 16.7514 19.2529 16.799 19.2729C16.8467 19.2929 16.8899 19.3222 16.9264 19.359L19.4139 21.8723C19.9285 22.392 20.6264 22.6839 21.354 22.6839C22.0816 22.6839 22.7794 22.392 23.2941 21.8723L26.4513 18.684V19.7758C26.4513 20.091 26.5752 20.3933 26.7958 20.6162C27.0164 20.8391 27.3156 20.9643 27.6276 20.9643C27.9395 20.9643 28.2387 20.8391 28.4593 20.6162C28.6799 20.3933 28.8039 20.091 28.8039 19.7758V15.8141C28.8039 15.4989 28.6799 15.1966 28.4593 14.9737C28.2387 14.7508 27.9395 14.6256 27.6276 14.6256H23.7066C23.3946 14.6256 23.0954 14.7508 22.8748 14.9737C22.6542 15.1966 22.5303 15.4989 22.5303 15.8141Z" fill="#2A289C"/>
</g>
</svg>
