<svg width="36" height="35" viewBox="0 0 36 35" fill="none" xmlns="http://www.w3.org/2000/svg">
<g id="ic:outline-girl">
<path id="Vector" d="M17.9974 10.9377C19.412 10.9377 20.5495 9.80016 20.5495 8.38558C20.5495 6.971 19.412 5.8335 17.9974 5.8335C16.5828 5.8335 15.4453 6.971 15.4453 8.38558C15.4453 9.80016 16.5828 10.9377 17.9974 10.9377ZM20.9141 23.3335V29.1668H15.0807V23.3335H12.1641L15.6349 14.0293C15.817 13.5502 16.1404 13.1377 16.5624 12.8466C16.9843 12.5556 17.4848 12.3997 17.9974 12.3997C18.51 12.3997 19.0105 12.5556 19.4324 12.8466C19.8544 13.1377 20.1778 13.5502 20.3599 14.0293L23.8307 23.3335H20.9141Z" fill="black"/>
</g>
</svg>
