<svg width="51" height="40" viewBox="0 0 51 40" fill="none" xmlns="http://www.w3.org/2000/svg">
<g id="fa6-solid:handshake" clip-path="url(#clip0_329_1954)">
<path id="Vector" d="M25.6553 6.65625L18.0928 12.7813C16.835 13.7969 16.5928 15.625 17.5459 16.9297C18.5537 18.3203 20.5146 18.5938 21.8662 17.5391L29.624 11.5078C30.1709 11.0859 30.9521 11.1797 31.3818 11.7266C31.8115 12.2734 31.71 13.0547 31.1631 13.4844L29.5303 14.75L40.3896 24.75V10H40.335L40.0303 9.80469L34.3584 6.17188C33.1631 5.40625 31.7646 5 30.3428 5C28.6396 5 26.9834 5.58594 25.6553 6.65625ZM27.4365 16.375L23.3975 19.5156C20.9365 21.4375 17.3662 20.9375 15.5225 18.4062C13.7881 16.0234 14.2256 12.6953 16.5146 10.8438L23.0146 5.58594C22.1084 5.20312 21.1318 5.00781 20.1396 5.00781C18.6709 5 17.2412 5.4375 16.0146 6.25L10.3896 10V27.5H12.5928L19.7334 34.0156C21.2646 35.4141 23.6318 35.3047 25.0303 33.7734C25.46 33.2969 25.749 32.7422 25.8975 32.1641L27.2256 33.3828C28.749 34.7812 31.124 34.6797 32.5225 33.1562C32.874 32.7734 33.1318 32.3281 33.2959 31.8672C34.8115 32.8828 36.874 32.6719 38.1475 31.2812C39.5459 29.7578 39.4443 27.3828 37.9209 25.9844L27.4365 16.375ZM1.63965 10C0.952148 10 0.389648 10.5625 0.389648 11.25V27.5C0.389648 28.8828 1.50684 30 2.88965 30H5.38965C6.77246 30 7.88965 28.8828 7.88965 27.5V10H1.63965ZM4.13965 25C4.47117 25 4.78911 25.1317 5.02353 25.3661C5.25795 25.6005 5.38965 25.9185 5.38965 26.25C5.38965 26.5815 5.25795 26.8995 5.02353 27.1339C4.78911 27.3683 4.47117 27.5 4.13965 27.5C3.80813 27.5 3.49019 27.3683 3.25576 27.1339C3.02134 26.8995 2.88965 26.5815 2.88965 26.25C2.88965 25.9185 3.02134 25.6005 3.25576 25.3661C3.49019 25.1317 3.80813 25 4.13965 25ZM42.8896 10V27.5C42.8896 28.8828 44.0068 30 45.3896 30H47.8896C49.2725 30 50.3896 28.8828 50.3896 27.5V11.25C50.3896 10.5625 49.8271 10 49.1396 10H42.8896ZM45.3896 26.25C45.3896 25.9185 45.5213 25.6005 45.7558 25.3661C45.9902 25.1317 46.3081 25 46.6396 25C46.9712 25 47.2891 25.1317 47.5235 25.3661C47.758 25.6005 47.8896 25.9185 47.8896 26.25C47.8896 26.5815 47.758 26.8995 47.5235 27.1339C47.2891 27.3683 46.9712 27.5 46.6396 27.5C46.3081 27.5 45.9902 27.3683 45.7558 27.1339C45.5213 26.8995 45.3896 26.5815 45.3896 26.25Z" fill="#2A289C"/>
</g>
<defs>
<clipPath id="clip0_329_1954">
<rect width="50" height="40" fill="white" transform="translate(0.389648)"/>
</clipPath>
</defs>
</svg>
