<svg width="29" height="28" viewBox="0 0 29 28" fill="none" xmlns="http://www.w3.org/2000/svg">
<g id="skill-icons:instagram" clip-path="url(#clip0_4966_2077)">
<g id="Group">
<path id="Vector" d="M21.5 0H6.625C3.00063 0 0.0625 2.93813 0.0625 6.5625V21.4375C0.0625 25.0619 3.00063 28 6.625 28H21.5C25.1244 28 28.0625 25.0619 28.0625 21.4375V6.5625C28.0625 2.93813 25.1244 0 21.5 0Z" fill="url(#paint0_radial_4966_2077)"/>
<path id="Vector_2" d="M21.5 0H6.625C3.00063 0 0.0625 2.93813 0.0625 6.5625V21.4375C0.0625 25.0619 3.00063 28 6.625 28H21.5C25.1244 28 28.0625 25.0619 28.0625 21.4375V6.5625C28.0625 2.93813 25.1244 0 21.5 0Z" fill="url(#paint1_radial_4966_2077)"/>
<path id="Vector_3" d="M14.0635 3.0625C11.0931 3.0625 10.7202 3.07552 9.55363 3.12856C8.38922 3.18194 7.59439 3.36623 6.89898 3.63672C6.17952 3.91606 5.56931 4.2898 4.96141 4.89792C4.35295 5.50594 3.97922 6.11614 3.699 6.83528C3.42775 7.53091 3.24323 8.32606 3.19084 9.48992C3.13867 10.6566 3.125 11.0296 3.125 14.0001C3.125 16.9706 3.13813 17.3423 3.19106 18.5089C3.24466 19.6733 3.42895 20.4681 3.69922 21.1635C3.97878 21.883 4.35252 22.4932 4.96064 23.1011C5.56844 23.7095 6.17864 24.0842 6.89756 24.3635C7.59352 24.634 8.38845 24.8183 9.55264 24.8717C10.7193 24.9247 11.0919 24.9377 14.0622 24.9377C17.0329 24.9377 17.4046 24.9247 18.5712 24.8717C19.7356 24.8183 20.5313 24.634 21.2272 24.3635C21.9464 24.0842 22.5557 23.7095 23.1634 23.1011C23.7718 22.4932 24.1455 21.883 24.4258 21.1638C24.6946 20.4681 24.8792 19.6731 24.9339 18.5091C24.9863 17.3425 25 16.9706 25 14.0001C25 11.0296 24.9863 10.6568 24.9339 9.49014C24.8792 8.32573 24.6946 7.53102 24.4258 6.83561C24.1455 6.11614 23.7718 5.50594 23.1634 4.89792C22.555 4.28958 21.9466 3.91584 21.2266 3.63683C20.5293 3.36623 19.734 3.18183 18.5696 3.12856C17.4029 3.07552 17.0315 3.0625 14.0601 3.0625H14.0635ZM13.0823 5.03355C13.3735 5.03311 13.6985 5.03355 14.0635 5.03355C16.9839 5.03355 17.33 5.04405 18.4832 5.09644C19.5496 5.14522 20.1284 5.32339 20.514 5.47312C21.0244 5.67131 21.3883 5.90833 21.7709 6.29125C22.1537 6.67406 22.3906 7.03861 22.5894 7.54906C22.7391 7.93406 22.9175 8.51287 22.9661 9.57928C23.0185 10.7323 23.0298 11.0786 23.0298 13.9976C23.0298 16.9166 23.0185 17.263 22.9661 18.4159C22.9173 19.4823 22.7391 20.0611 22.5894 20.4462C22.3912 20.9567 22.1537 21.3201 21.7709 21.7027C21.3881 22.0855 21.0247 22.3225 20.514 22.5208C20.1289 22.6711 19.5496 22.8489 18.4832 22.8977C17.3302 22.95 16.9839 22.9614 14.0635 22.9614C11.143 22.9614 10.7968 22.95 9.64386 22.8977C8.57745 22.8484 7.99864 22.6703 7.61277 22.5205C7.10242 22.3222 6.73777 22.0853 6.35495 21.7025C5.97214 21.3197 5.73523 20.956 5.5365 20.4454C5.38677 20.0602 5.20837 19.4814 5.15981 18.415C5.10742 17.262 5.09692 16.9157 5.09692 13.9949C5.09692 11.0741 5.10742 10.7296 5.15981 9.57655C5.20859 8.51014 5.38677 7.93133 5.5365 7.54578C5.7348 7.03533 5.97214 6.67078 6.35506 6.28797C6.73788 5.90516 7.10242 5.66814 7.61287 5.46952C7.99842 5.31912 8.57745 5.14139 9.64386 5.09239C10.6528 5.04678 11.0439 5.03311 13.0823 5.03081V5.03355ZM19.9019 6.84961C19.1773 6.84961 18.5894 7.43695 18.5894 8.16167C18.5894 8.88628 19.1773 9.47417 19.9019 9.47417C20.6265 9.47417 21.2144 8.88628 21.2144 8.16167C21.2144 7.43706 20.6265 6.84917 19.9019 6.84917V6.84961ZM14.0635 8.38316C10.9616 8.38316 8.44664 10.8981 8.44664 14.0001C8.44664 17.1021 10.9616 19.6159 14.0635 19.6159C17.1655 19.6159 19.6796 17.1021 19.6796 14.0001C19.6796 10.8982 17.1653 8.38316 14.0633 8.38316H14.0635ZM14.0635 10.3542C16.077 10.3542 17.7094 11.9864 17.7094 14.0001C17.7094 16.0136 16.077 17.646 14.0635 17.646C12.0499 17.646 10.4177 16.0136 10.4177 14.0001C10.4177 11.9864 12.0499 10.3542 14.0635 10.3542Z" fill="white"/>
</g>
</g>
<defs>
<radialGradient id="paint0_radial_4966_2077" cx="0" cy="0" r="1" gradientUnits="userSpaceOnUse" gradientTransform="translate(7.5 30.1565) rotate(-90) scale(27.7501 25.8098)">
<stop stop-color="#FFDD55"/>
<stop offset="0.1" stop-color="#FFDD55"/>
<stop offset="0.5" stop-color="#FF543E"/>
<stop offset="1" stop-color="#C837AB"/>
</radialGradient>
<radialGradient id="paint1_radial_4966_2077" cx="0" cy="0" r="1" gradientUnits="userSpaceOnUse" gradientTransform="translate(-4.62761 2.01698) rotate(78.681) scale(12.4044 51.1315)">
<stop stop-color="#3771C8"/>
<stop offset="0.128" stop-color="#3771C8"/>
<stop offset="1" stop-color="#6600FF" stop-opacity="0"/>
</radialGradient>
<clipPath id="clip0_4966_2077">
<rect width="28" height="28" fill="white" transform="translate(0.0625)"/>
</clipPath>
</defs>
</svg>
