<svg width="38" height="38" viewBox="0 0 38 38" fill="none" xmlns="http://www.w3.org/2000/svg">
<g id="clarity:group-solid" clip-path="url(#clip0_5277_25315)">
<path id="Vector" d="M12.6698 17.0362H11.7515C10.4983 16.991 9.24915 17.2037 8.0816 17.6613C6.91404 18.1189 5.85298 18.8115 4.96427 19.6962L4.71094 19.9918V28.7318H9.0176V23.7707L9.59816 23.1162L9.86205 22.8101C11.2363 21.3983 12.9472 20.3594 14.8337 19.7912C13.8892 19.0726 13.1443 18.1241 12.6698 17.0362Z" fill="black"/>
<path id="Vector_2" d="M33.0801 19.665C32.1914 18.7803 31.1304 18.0876 29.9628 17.63C28.7953 17.1724 27.5461 16.9597 26.2929 17.005C25.9086 17.0061 25.5245 17.0272 25.1424 17.0683C24.659 18.0889 23.9344 18.9765 23.0312 19.6544C25.0452 20.2116 26.8697 21.3063 28.309 22.8211L28.5729 23.1167L29.1429 23.7711V28.7428H33.3018V19.9605L33.0801 19.665Z" fill="black"/>
<path id="Vector_3" d="M11.7178 14.978H12.0451C11.893 13.6725 12.1221 12.3509 12.7046 11.1728C13.2871 9.99464 14.1982 9.01027 15.3278 8.33852C14.9183 7.71294 14.3534 7.20444 13.6884 6.8628C13.0233 6.52116 12.2809 6.35809 11.5339 6.38957C10.7869 6.42105 10.0608 6.646 9.42688 7.04238C8.79292 7.43876 8.27277 7.993 7.91736 8.65081C7.56196 9.30861 7.38349 10.0474 7.39942 10.795C7.41535 11.5425 7.62514 12.273 8.00825 12.9151C8.39136 13.5572 8.93465 14.0887 9.58492 14.4577C10.2352 14.8268 10.9702 15.0206 11.7178 15.0202V14.978Z" fill="black"/>
<path id="Vector_4" d="M25.7885 14.1871C25.8013 14.4297 25.8013 14.6728 25.7885 14.9154C25.9911 14.9475 26.1957 14.9651 26.4007 14.9682H26.6013C27.3457 14.9285 28.0671 14.6967 28.6953 14.2954C29.3236 13.8942 29.8372 13.3371 30.1862 12.6784C30.5352 12.0197 30.7077 11.2818 30.687 10.5367C30.6662 9.7915 30.4528 9.06442 30.0676 8.42621C29.6824 7.78799 29.1385 7.26039 28.4889 6.89478C27.8392 6.52916 27.106 6.33798 26.3606 6.33986C25.6151 6.34173 24.8828 6.5366 24.2351 6.90548C23.5873 7.27436 23.046 7.80469 22.6641 8.44483C23.6194 9.0686 24.405 9.91976 24.9503 10.922C25.4957 11.9242 25.7837 13.0461 25.7885 14.1871Z" fill="black"/>
<path id="Vector_5" d="M18.859 18.9152C21.4648 18.9152 23.5773 16.8027 23.5773 14.1968C23.5773 11.591 21.4648 9.47852 18.859 9.47852C16.2531 9.47852 14.1406 11.591 14.1406 14.1968C14.1406 16.8027 16.2531 18.9152 18.859 18.9152Z" fill="black"/>
<path id="Vector_6" d="M19.1126 21.4274C17.7341 21.3718 16.3586 21.5956 15.0688 22.0854C13.7791 22.5751 12.6017 23.3208 11.6076 24.2774L11.3438 24.573V31.2547C11.3479 31.4723 11.3948 31.687 11.4819 31.8865C11.569 32.086 11.6946 32.2663 11.8514 32.4173C12.0083 32.5683 12.1933 32.6868 12.396 32.7663C12.5987 32.8457 12.815 32.8844 13.0326 32.8802H25.161C25.3786 32.8844 25.5949 32.8457 25.7976 32.7663C26.0003 32.6868 26.1853 32.5683 26.3422 32.4173C26.499 32.2663 26.6246 32.086 26.7117 31.8865C26.7988 31.687 26.8457 31.4723 26.8499 31.2547V24.5941L26.5965 24.2774C25.6089 23.3178 24.4356 22.5701 23.1487 22.08C21.8618 21.5899 20.4884 21.3679 19.1126 21.4274Z" fill="black"/>
</g>
<defs>
<clipPath id="clip0_5277_25315">
<rect width="38" height="38" fill="white"/>
</clipPath>
</defs>
</svg>
