<svg width="41" height="41" viewBox="0 0 41 41" fill="none" xmlns="http://www.w3.org/2000/svg">
<g id="material-symbols:work">
<path id="Vector" d="M7.24404 36.6027C6.3326 36.6027 5.55207 36.2757 4.90245 35.6219C4.25284 34.968 3.92859 34.1829 3.92969 33.2665V14.9177C3.92969 14.0002 4.2545 13.2146 4.90411 12.5607C5.55372 11.9068 6.3337 11.5804 7.24404 11.5815H13.8728V8.24534C13.8728 7.3279 14.1976 6.54223 14.8472 5.88834C15.4968 5.23446 16.2768 4.90807 17.1871 4.90918H23.8158C24.7273 4.90918 25.5078 5.23613 26.1574 5.89001C26.807 6.5439 27.1313 7.32901 27.1302 8.24534V11.5815H33.7589C34.6703 11.5815 35.4509 11.9084 36.1005 12.5623C36.7501 13.2162 37.0743 14.0013 37.0732 14.9177V33.2665C37.0732 34.184 36.7484 34.9696 36.0988 35.6235C35.4492 36.2774 34.6692 36.6038 33.7589 36.6027H7.24404ZM17.1871 11.5815H23.8158V8.24534H17.1871V11.5815Z" fill="#2A289C"/>
</g>
</svg>
