<svg width="100" height="120" viewBox="0 0 100 120" fill="none" xmlns="http://www.w3.org/2000/svg">
<rect width="99.2593" height="120" rx="6" fill="white"/>
<circle cx="50.3738" cy="54.8153" r="32.5926" fill="#E2E7FE"/>
<path d="M76.0844 57.5317H21.7344V47.1931C21.7344 46.7258 21.9199 46.2777 22.2502 45.9472C22.5805 45.6167 23.0286 45.4309 23.4958 45.4307H74.323C74.7901 45.4312 75.2378 45.6171 75.5679 45.9475C75.8981 46.278 76.0835 46.726 76.0835 47.1931L76.0844 57.5317Z" fill="white"/>
<path d="M21.7353 55.3936H76.0854V68.2546C76.0854 68.7717 75.8799 69.2677 75.5143 69.6333C75.1486 69.999 74.6527 70.2044 74.1356 70.2044H23.6842C23.1671 70.2044 22.6711 69.999 22.3055 69.6333C21.9398 69.2677 21.7344 68.7717 21.7344 68.2546L21.7353 55.3936Z" fill="url(#paint0_linear_5380_1992)"/>
<path d="M27.1016 51.376H35.6333V71.1503H27.1016V51.376Z" fill="#DEEFFF"/>
<path d="M47.2029 60.8324H41.4103C40.8689 60.8324 40.4297 60.5106 40.4297 60.1131V52.0943C40.4297 51.6968 40.8689 51.375 41.4103 51.375H47.2029C47.7452 51.375 48.1844 51.6968 48.1844 52.0943V60.1141C48.1844 60.5106 47.7452 60.8324 47.2029 60.8324ZM58.7615 60.8324H52.9689C52.4266 60.8324 51.9874 60.5106 51.9874 60.1131V52.0943C51.9874 51.6968 52.4266 51.375 52.9689 51.375H58.7615C59.3029 51.375 59.7421 51.6968 59.7421 52.0943V60.1141C59.7421 60.5106 59.3029 60.8324 58.7615 60.8324ZM70.3193 60.8324H64.5267C63.9843 60.8324 63.5452 60.5106 63.5452 60.1131V52.0943C63.5452 51.6968 63.9843 51.375 64.5267 51.375H70.3193C70.8607 51.375 71.3008 51.6968 71.3008 52.0943V60.1141C71.3008 60.5106 70.8607 60.8324 70.3193 60.8324Z" fill="url(#paint1_linear_5380_1992)"/>
<path d="M21.7344 71.1494H76.0854V72.4272C76.0851 72.8776 75.906 73.3095 75.5874 73.6279C75.2688 73.9463 74.8368 74.1252 74.3864 74.1252H23.4333C22.9828 74.1252 22.5506 73.9462 22.232 73.6276C21.9134 73.309 21.7344 72.8768 21.7344 72.4262V71.1494Z" fill="#3F3F3F"/>
<path d="M32.2805 80.6163C31.4529 80.6156 30.6355 80.4342 29.8854 80.0848C29.1352 79.7353 28.4704 79.2263 27.9374 78.5933C27.4044 77.9602 27.0161 77.2184 26.7996 76.4197C26.583 75.621 26.5435 74.7846 26.6838 73.969C26.7217 73.7494 26.8359 73.5501 27.0063 73.4064C27.1767 73.2627 27.3923 73.1837 27.6152 73.1834L36.9411 73.1777H36.942C37.165 73.1775 37.3808 73.256 37.5516 73.3994C37.7223 73.5428 37.8369 73.7418 37.8753 73.9614C38.0173 74.7775 37.9791 75.6147 37.7635 76.4144C37.5478 77.2142 37.1599 77.9571 36.6269 78.5911C36.0938 79.2251 35.4286 79.7349 34.6778 80.0847C33.927 80.4346 33.1088 80.616 32.2805 80.6163ZM65.5936 80.6163C64.088 80.6145 62.6445 80.0157 61.5798 78.951C60.5152 77.8864 59.9163 76.4429 59.9146 74.9373C59.9151 74.6138 59.9423 74.2909 59.996 73.9719C60.0333 73.7515 60.1474 73.5515 60.318 73.4072C60.4886 73.2629 60.7048 73.1836 60.9283 73.1834L70.2561 73.1777C70.479 73.1775 70.6949 73.256 70.8656 73.3994C71.0363 73.5428 71.151 73.7418 71.1893 73.9614C71.3305 74.7774 71.2917 75.6144 71.0756 76.4139C70.8596 77.2133 70.4715 77.9559 69.9386 78.5898C69.4056 79.2236 68.7406 79.7334 67.9901 80.0834C67.2396 80.4335 66.4217 80.6153 65.5936 80.6163Z" fill="#DEEFFF"/>
<path d="M74.0649 74.1238H23.7517C23.2165 74.1238 22.7031 73.9113 22.3245 73.5329C21.9459 73.1544 21.7331 72.6412 21.7328 72.1059V48.3496C21.684 47.629 21.9214 46.9182 22.3935 46.3715C22.8656 45.8248 23.5342 45.4864 24.2543 45.4297H73.5623C74.2824 45.4864 74.9511 45.8248 75.4232 46.3715C75.8953 46.9182 76.1327 47.629 76.0838 48.3496V72.1068C76.0838 72.3719 76.0316 72.6344 75.9301 72.8793C75.8287 73.1242 75.6799 73.3467 75.4925 73.5341C75.305 73.7215 75.0824 73.8701 74.8375 73.9715C74.5925 74.0728 74.33 74.124 74.0649 74.1238Z" stroke="#8584AC" stroke-width="1.30424" stroke-linecap="round" stroke-linejoin="round"/>
<path d="M20.3906 70.2037H27.0512V52.7976C27.0128 52.4655 27.1049 52.1315 27.3079 51.866C27.5109 51.6004 27.8091 51.4241 28.1396 51.374H34.5721C34.9026 51.4241 35.2008 51.6004 35.4038 51.866C35.6068 52.1315 35.6989 52.4655 35.6605 52.7976V70.2037H77.1931" stroke="#8584AC" stroke-width="1.21212" stroke-linecap="round" stroke-linejoin="round"/>
<path d="M36.9345 74.1232C37.0523 74.8027 37.0202 75.4998 36.8404 76.1656C36.6606 76.8315 36.3374 77.4499 35.8935 77.9778C35.4496 78.5056 34.8957 78.93 34.2705 79.2214C33.6454 79.5127 32.9641 79.6638 32.2745 79.6643C31.5848 79.6647 30.9033 79.5143 30.2778 79.2238C29.6523 78.9332 29.0979 78.5095 28.6534 77.9822C28.2088 77.4549 27.8849 76.8368 27.7043 76.1712C27.5236 75.5056 27.4907 74.8085 27.6077 74.1288M70.2485 74.1232C70.3664 74.8027 70.3343 75.4998 70.1544 76.1656C69.9746 76.8315 69.6514 77.4499 69.2075 77.9778C68.7636 78.5056 68.2097 78.93 67.5846 79.2214C66.9594 79.5127 66.2782 79.6638 65.5885 79.6643C64.8988 79.6647 64.2174 79.5143 63.5919 79.2238C62.9664 78.9332 62.412 78.5095 61.9674 77.9822C61.5228 77.4549 61.1989 76.8368 61.0183 76.1712C60.8377 75.5056 60.8047 74.8085 60.9217 74.1288M47.1984 60.8305H41.4058C40.8644 60.8305 40.4252 60.5087 40.4252 60.1112V52.0924C40.4252 51.6949 40.8644 51.373 41.4058 51.373H47.1984C47.7407 51.373 48.1799 51.6949 48.1799 52.0924V60.1121C48.1799 60.5087 47.7407 60.8305 47.1984 60.8305ZM58.7571 60.8305H52.9645C52.4221 60.8305 51.9829 60.5087 51.9829 60.1112V52.0924C51.9829 51.6949 52.4221 51.373 52.9645 51.373H58.7571C59.2985 51.373 59.7376 51.6949 59.7376 52.0924V60.1121C59.7376 60.5087 59.2985 60.8305 58.7571 60.8305ZM70.3148 60.8305H64.5222C63.9799 60.8305 63.5407 60.5087 63.5407 60.1112V52.0924C63.5407 51.6949 63.9799 51.373 64.5222 51.373H70.3148C70.8562 51.373 71.2963 51.6949 71.2963 52.0924V60.1121C71.2963 60.5087 70.8562 60.8305 70.3148 60.8305Z" stroke="#8584AC" stroke-width="1.21212" stroke-linecap="round" stroke-linejoin="round"/>
<path d="M29.7167 60.6992H27.1016" stroke="#8584AC" stroke-width="1.30424" stroke-linecap="round" stroke-linejoin="round"/>
<path d="M66.2298 45.4303L60.3672 38.3779L66.5762 31.7344" stroke="#8584AC" stroke-width="1.21212" stroke-linecap="round" stroke-linejoin="round"/>
<defs>
<linearGradient id="paint0_linear_5380_1992" x1="48.9099" y1="55.3936" x2="48.9099" y2="70.2044" gradientUnits="userSpaceOnUse">
<stop stop-color="#FF2231"/>
<stop offset="1" stop-color="#FF2231" stop-opacity="0.6"/>
</linearGradient>
<linearGradient id="paint1_linear_5380_1992" x1="55.8652" y1="51.375" x2="55.8652" y2="60.8324" gradientUnits="userSpaceOnUse">
<stop stop-color="#001378"/>
<stop offset="1" stop-color="#001378" stop-opacity="0.71"/>
</linearGradient>
</defs>
</svg>
