<svg width="39" height="39" viewBox="0 0 39 39" fill="none" xmlns="http://www.w3.org/2000/svg">
<g id="solar:graph-up-bold">
<path id="Vector" fill-rule="evenodd" clip-rule="evenodd" d="M6.3977 6.00747C4.10156 8.3306 4.10156 12.0641 4.10156 19.5343C4.10156 27.0044 4.10156 30.7395 6.3977 33.0595C8.69697 35.381 12.3921 35.381 19.7856 35.381C27.179 35.381 30.8757 35.381 33.1719 33.0595C35.4696 30.7411 35.4696 27.0044 35.4696 19.5343C35.4696 12.0641 35.4696 8.32902 33.1719 6.00747C30.8773 3.6875 27.179 3.6875 19.7856 3.6875C12.3921 3.6875 8.69541 3.6875 6.3977 6.00747ZM22.5303 16.3649C22.5303 17.021 23.0572 17.5534 23.7066 17.5534H24.7888L21.6316 20.7434C21.5951 20.7803 21.5519 20.8095 21.5042 20.8295C21.4566 20.8495 21.4055 20.8598 21.354 20.8598C21.3024 20.8598 21.2513 20.8495 21.2037 20.8295C21.156 20.8095 21.1128 20.7803 21.0764 20.7434L18.5889 18.2301C18.0742 17.7104 17.3764 17.4185 16.6488 17.4185C15.9212 17.4185 15.2233 17.7104 14.7087 18.2301L11.1123 21.8637C10.9967 21.9725 10.904 22.1037 10.8398 22.2495C10.7755 22.3953 10.7409 22.5527 10.7381 22.7123C10.7353 22.8719 10.7644 23.0304 10.8235 23.1784C10.8827 23.3264 10.9708 23.4608 11.0825 23.5737C11.1942 23.6865 11.3272 23.7755 11.4737 23.8353C11.6201 23.895 11.777 23.9244 11.935 23.9216C12.0929 23.9188 12.2487 23.8838 12.393 23.8189C12.5373 23.7539 12.6671 23.6603 12.7748 23.5435L16.3712 19.9098C16.4076 19.8729 16.4508 19.8437 16.4985 19.8237C16.5461 19.8037 16.5972 19.7934 16.6488 19.7934C16.7003 19.7934 16.7514 19.8037 16.799 19.8237C16.8467 19.8437 16.8899 19.8729 16.9264 19.9098L19.4139 22.4231C19.9285 22.9428 20.6264 23.2347 21.354 23.2347C22.0816 23.2347 22.7794 22.9428 23.2941 22.4231L26.4513 19.2348V20.3266C26.4513 20.6418 26.5752 20.9441 26.7958 21.167C27.0164 21.3899 27.3156 21.5151 27.6276 21.5151C27.9395 21.5151 28.2387 21.3899 28.4593 21.167C28.6799 20.9441 28.8039 20.6418 28.8039 20.3266V16.3649C28.8039 16.0497 28.6799 15.7474 28.4593 15.5245C28.2387 15.3016 27.9395 15.1764 27.6276 15.1764H23.7066C23.3946 15.1764 23.0954 15.3016 22.8748 15.5245C22.6542 15.7474 22.5303 16.0497 22.5303 16.3649Z" fill="#2A289C"/>
</g>
</svg>
