<svg width="21" height="26" viewBox="0 0 21 26" fill="none" xmlns="http://www.w3.org/2000/svg">
<path id="Vector" d="M20.7868 0H0V2.59835L7.5482 8.26274C5.25741 9.01812 3.36028 10.6521 2.27377 12.8057C1.18725 14.9592 1.00025 17.4561 1.75388 19.7474C2.12673 20.8825 2.71972 21.9329 3.49891 22.8386C4.2781 23.7443 5.22821 24.4875 6.29489 25.0257C7.36158 25.5639 8.52389 25.8865 9.71536 25.975C10.9068 26.0635 12.1041 25.9163 13.2386 25.5417C15.058 24.9437 16.6423 23.7865 17.7654 22.2352C18.8885 20.6838 19.4931 18.8175 19.4931 16.9022C19.4931 14.987 18.8885 13.1207 17.7654 11.5693C16.6423 10.018 15.058 8.86077 13.2386 8.26274L20.7868 2.59835V0ZM14.213 22.7355L10.3934 20.501L6.57382 22.7355L7.58717 18.4093L4.22231 15.4991L8.65249 15.1224L10.3934 11.043L12.1343 15.1224L16.5645 15.4991L13.1996 18.4093L14.213 22.7355Z" fill="#1B49EA"/>
</svg>
