<svg width="29" height="46" viewBox="0 0 29 46" fill="none" xmlns="http://www.w3.org/2000/svg">
<path id="Vector" d="M3.01802 0.532227L0.0236374 17.0014C-0.413543 19.4118 5.35964 20.5377 5.26382 22.9901L4.51522 42.4537C4.40143 45.448 7.50961 45.448 7.50961 45.448C7.50961 45.448 10.6178 45.448 10.504 42.4537L9.7554 22.9901C9.66257 20.5407 14.9447 19.4568 14.9956 17.0014L12.0012 0.532227H10.504L11.2526 12.5098L9.0068 14.007L8.2582 0.532227H6.76101L6.01241 14.007L3.76662 12.5098L4.51522 0.532227H3.01802ZM28.4703 0.532227C26.2664 0.532227 22.5893 2.49355 21.1191 5.43404C19.8914 7.63791 19.4872 12.5637 19.4872 15.5042V22.9901C19.4872 25.4395 22.751 25.9845 23.9787 25.9845L22.4815 42.4537C22.212 45.4361 25.4759 45.448 25.4759 45.448C25.4759 45.448 28.4703 45.448 28.4703 42.4537V0.532227Z" fill="black"/>
</svg>
