<svg width="31" height="36" viewBox="0 0 31 36" fill="none" xmlns="http://www.w3.org/2000/svg">
<path fill-rule="evenodd" clip-rule="evenodd" d="M6.11685e-05 21.3027C-7.64607e-05 19.649 6.11685e-05 0.583784 6.11685e-05 0.583784C7.00365 2.26695 10.5946 2.40945 15.1784 0L15.1768 8.28606C14.3551 9.49768 13.6004 10.7244 12.9906 11.8608C12.2591 13.2217 11.566 14.0966 10.9115 14.4854C10.2569 14.8742 9.20769 15.0589 7.76381 15.0395L6.81086 18.4515H10.8248L7.48617 31.6569C7.48665 31.6576 7.48731 31.6583 7.48816 31.6591C1.30988 27.7575 0.00019161 22.8699 6.11685e-05 21.3027ZM12.274 34.3825C15.46 36.1683 15.1716 35.9955 15.1716 35.9955L15.1741 22.4641L12.8017 31.9245C12.5905 32.7752 12.418 33.5945 12.274 34.3825ZM15.1826 22.4303L15.1852 35.9955C15.1852 35.9955 14.7062 36.2825 21.8024 32.2944C28.8986 28.3062 30.3566 22.9563 30.3567 21.3027C30.3568 19.649 30.3567 0.583784 30.3567 0.583784C27.6117 1.24349 25.3909 1.66652 23.4291 1.79198C21.3914 4.49894 18.1731 10.5169 17.0756 15.0395H21.2628L20.2521 18.4515H16.1804L15.1826 22.4303ZM20.6107 1.74543C18.7648 1.54501 17.0548 0.986324 15.1784 0L15.1799 8.28146C16.9385 5.68905 19.0033 3.16629 20.6107 1.74543Z" fill="#FF2231"/>
</svg>
