<svg width="29" height="28" viewBox="0 0 29 28" fill="none" xmlns="http://www.w3.org/2000/svg">
<g id="devicon:twitter" clip-path="url(#clip0_4966_2090)">
<path id="Vector" d="M25.2194 8.28791C25.2365 8.53488 25.2365 8.78163 25.2365 9.03078C25.2365 16.6214 19.4578 25.3758 8.8915 25.3758V25.3714C5.76996 25.3758 2.71311 24.4817 0.0859375 22.7958C0.539844 22.8505 0.995938 22.8779 1.45312 22.879C4.04031 22.881 6.55307 22.0133 8.58766 20.4152C7.3889 20.3925 6.22718 19.9959 5.26494 19.2806C4.30269 18.5653 3.58802 17.5672 3.22084 16.4258C4.08206 16.5921 4.96931 16.5578 5.81456 16.3268C3.13444 15.7853 1.20638 13.4307 1.20638 10.6961V10.6233C2.00532 11.0684 2.89951 11.315 3.81366 11.3423C1.28906 9.65532 0.511406 6.29728 2.03566 3.67207C3.47785 5.44671 5.27722 6.89813 7.3169 7.93207C9.35657 8.966 11.5909 9.55931 13.8748 9.67347C13.6472 8.6932 13.6809 7.67034 13.9726 6.70718C14.2642 5.74402 14.8037 4.87431 15.5369 4.18503C17.8506 2.01 21.4895 2.12157 23.6643 4.43419C24.9509 4.18016 26.1846 3.70848 27.3124 3.03944C26.8836 4.36959 25.9862 5.49871 24.7872 6.21678C25.9259 6.08252 27.038 5.77759 28.0859 5.31225C27.315 6.46673 26.3443 7.47441 25.2194 8.28791Z" fill="#1D9BF0"/>
</g>
<defs>
<clipPath id="clip0_4966_2090">
<rect width="28" height="28" fill="white" transform="translate(0.0859375)"/>
</clipPath>
</defs>
</svg>
