<svg width="41" height="28" viewBox="0 0 41 28" fill="none" xmlns="http://www.w3.org/2000/svg">
<g id="logos:youtube-icon" clip-path="url(#clip0_4966_2087)">
<path id="Vector" d="M39.1381 4.36722C38.9096 3.52311 38.4641 2.75356 37.8458 2.1352C37.2274 1.51684 36.4579 1.07125 35.6138 0.8428C32.5235 0 20.0862 0 20.0862 0C20.0862 0 7.64832 0.025511 4.55805 0.868311C3.71393 1.09678 2.94439 1.54239 2.32606 2.16078C1.70772 2.77916 1.26218 3.54875 1.03379 4.39289C0.0990535 9.88369 -0.263547 18.2504 1.05945 23.5216C1.28787 24.3657 1.73342 25.1352 2.35175 25.7536C2.97009 26.3719 3.73962 26.8175 4.58372 27.046C7.67399 27.8888 20.1116 27.8888 20.1116 27.8888C20.1116 27.8888 32.549 27.8888 35.6391 27.046C36.4833 26.8176 37.2528 26.372 37.8712 25.7536C38.4896 25.1353 38.9351 24.3657 39.1636 23.5216C40.1495 18.023 40.4533 9.6614 39.1381 4.36722Z" fill="#FF0000"/>
<path id="Vector_2" d="M16.125 19.9205L26.4427 13.9444L16.125 7.96826V19.9205Z" fill="white"/>
</g>
<defs>
<clipPath id="clip0_4966_2087">
<rect width="39.8222" height="28" fill="white" transform="translate(0.195312)"/>
</clipPath>
</defs>
</svg>
